<?xml version="1.0" encoding="UTF-8"?>
<svg id="Layer_2" data-name="Layer 2" xmlns="http://www.w3.org/2000/svg" viewBox="0 0 119.31 119.31">
  <defs>
    <style>
      .cls-1 {
        fill: #27b4e8;
      }

      .cls-1, .cls-2 {
        stroke-width: 0px;
      }

      .cls-2 {
        fill: #1c2f5d;
      }
    </style>
  </defs>
  <g id="Layer_1-2" data-name="Layer 1">
    <g>
      <path class="cls-2" d="M59.66,119.31C26.76,119.31,0,92.55,0,59.66S26.76,0,59.66,0s59.66,26.76,59.66,59.66-26.76,59.66-59.66,59.66ZM59.66,3C28.42,3,3,28.42,3,59.66s25.42,56.66,56.66,56.66,56.66-25.42,56.66-56.66S90.9,3,59.66,3Z"/>
      <g>
        <g>
          <path class="cls-1" d="M108,52.19c.03-.18.01-.36-.06-.53,0-.03-.03-.07-.05-.1-.04-.11-.1-.22-.19-.31-.12-.15-.55-.23-.81-.15-.15-.28-.4-.5-.74-.54-.72,0-1.29.54-1.92.81-1.1.53-2.26,1.08-3.51,1.06-1.32.02-2.47-.69-3.65-1.18-2.2-.86-4.49-1.76-6.87-1.92-4.57-.56-8.99.98-13.4,2.56-5.15,1.64-10.16,3.68-15.26,5.46-.36.02-.72.02-1.09.02-.83.01-1.6-.32-2.37-.59-1.52-.47-3.05-.89-4.55-1.45-1.34-.46-2.72-.79-4.09-1.17-.2-.04-.45-.11-.74-.18-1.37-.35-3.47-.85-3.54.73.18,1.15,1.01,2.09,1.6,3.06.77,1.1,1.55,2.21,2.46,3.21-2.6,1.56-4.94,3.51-7.72,4.77-3.16,1.45-6.75,2.34-10.22,1.74-2.57-.6-5.1-1.58-7.28-3.08,1.82.11,3.35-.83,3.76-2.61.01-.12.02-.23.03-.35,0-.05,0-.1.01-.15,0-.08,0-.15,0-.23,0-.08,0-.16,0-.24.01-.18.03-.37.09-.54.05-.12.11-.23.19-.33.11-.14.25-.24.39-.34,0,0,0,0,0,0,.08-.06.16-.12.25-.18,0,0,0,0,.02-.01t0,0s.09-.06.14-.1h0c.13-.09.26-.19.38-.29.09-.07.17-.15.25-.23.05-.05.1-.1.14-.15.04-.05.07-.1.1-.15,0,0,0,0,0,0,.02-.04.05-.08.07-.11,0,0,0,0,0,0,0,0,0,0,0,0,0-.02.01-.04.02-.06,0-.02.01-.04.02-.06,0-.03.01-.06.01-.1,0,0,0-.02,0-.03,0-.02,0-.03,0-.05,0,0,0,.01,0,.02,0-.02,0-.05-.02-.07-.01-.03-.02-.06-.03-.09-.1-.11-.24-.19-.42-.21-1.23-.16-2.38.55-3.61.54-1.26.1-2.55-.26-3.78.15-.89.27-1.79,1.05-2.12,1.96-.7-1.6-1.68-3.1-3.03-4.24-2.01-1.55-4.61-1.87-6.82-3.06-.8-.38-1.51-.93-2.33-1.29-.24-.1-.52-.22-.78-.12-.35.12-.46.54-.31.85.45.93,1.32,1.56,2.02,2.28.7.7,1.4,1.41,2.01,2.19,1.52,2.41,3.66,4.42,6.19,5.7.7.45,1.43.89,1.99,1.52.47.43.85.93,1.23,1.44.3.53.61,1.06.97,1.55,1.44,2.01,2.98,3.95,4.73,5.7,4.51,4.35,10.22,7.47,16.34,8.83,14.09,2.79,28.25-2.46,40.55-9.09.07-.05.14-.09.21-.14.07-.05.15-.1.23-.15.1-.06.2-.12.3-.17.19-.11.37-.23.56-.34.11-.06.22-.13.33-.19.12-.07.23-.14.35-.22.21-.13.43-.25.64-.38.21-.13.43-.25.64-.38,0,0,0,0,0,0,0,0,0,0,0,0h0s0,0,.01,0c.67-.39,1.32-.8,1.96-1.22,0,0,0,0-.01,0,.12-.08.23-.16.35-.23h0s0,0,.01,0c0,0,0,0,0,0,.08-.05.15-.1.23-.15,0,0-.01,0-.02.01.22-.14.44-.29.66-.43.22-.14.44-.29.65-.43,0,0,0,0,0,0,.02-.01.03-.02.05-.03.03-.02.06-.04.09-.06.05-.03.1-.07.15-.1,0,0,0-.01.01-.01.03-.02.06-.05.09-.07.05-.04.11-.09.16-.13,0,0,.01-.01.02-.02,0,0,0,0,0,0,.97-.67,1.94-1.35,2.87-2.07,3.11-2.33,6.16-4.77,8.96-7.47,1.04-.95,2.02-1.95,3.03-2.93.63-.75,2.51-1.98,2.76-3.1h0s.02-.05.01-.08ZM67.17,71.21c-2.28,2.1-4.6,4.29-7.47,5.56-1.23.59-3.48,1.01-4.4-.07,0,0,0,0-.01-.01-.3-.38-.41-.88-.23-1.46.36-1.2,1.26-2.09,2.19-2.91,0,0,0,0,0,0,.59-.44,1.21-.86,1.77-1.34.57-.44,1.07-.95,1.54-1.49.59-.62,1.15-1.29,1.75-1.91.59-.57,1.26-1.07,1.98-1.46-.99.65-1.81,1.54-2.61,2.65-.71.96-1.31,2.02-2.3,2.75-1.29,1.08-4.8,3.05-3.11,5.03.57.5,1.35.16,2,.02,2.25-.69,4.17-2.12,6.01-3.54,2.45-1.86,4.62-4.05,6.54-6.44-1.07,1.65-2.3,3.19-3.65,4.63Z"/>
          <path class="cls-1" d="M29.56,58.83s0,0,0,0c0,0,0,0,0,0,0,0,.01,0,.02-.02Z"/>
          <polygon class="cls-1" points="85.93 70.74 85.93 70.74 85.93 70.74 85.93 70.74"/>
          <path class="cls-1" d="M29.31,59.05s-.01,0-.02.01c0,0,0,0,0,0,0,0,.01,0,.02-.01Z"/>
          <path class="cls-1" d="M90.03,68.74c-.14.09-.29.19-.43.28-.29.19-.58.38-.87.56-.29.18-.58.35-.86.54-.15.1-.29.2-.44.29-.14.09-.29.18-.43.28-.14.09-.29.19-.43.28-.13.09-.27.17-.41.26-.15.09-.29.18-.44.28-.16.1-.32.19-.47.29-.3.18-.59.36-.89.55-.29.19-.59.37-.88.56-.15.1-.3.2-.46.3-.06.04-.12.08-.19.11-.02.11-.03.21-.04.32-.11,2.12.81,4.12,1.02,6.2.16.9-.7,3.06.19,3.57.03,0,.06.02.08.02,1.05.23,2.08-1.62,2.64-2.33,1.62-2.15,2.82-4.6,3.33-7.26.39-1.75.6-3.59.39-5.38-.14.1-.27.2-.41.29Z"/>
        </g>
        <path class="cls-2" d="M112.26,81.41s0,0,0,0c-1.81-.74-3.77-3-5.55-5.05-1.3-1.5-2.49-2.87-3.61-3.71.17-.22.26-.5.22-.8-.02-.17-.09-.32-.19-.45.76-.81,1.32-1.72,1.88-2.62.64-1.07,1.23-2.17,1.81-3.25,1.17-2.17,2.3-4.35,3.67-6.32.48-.67.99-1.32,1.57-1.87.03,0,.05.01.08.01.12,0,.23-.02.35-.06,1.05-.37,1.64-.59,2.53-.94.23.1.46.23.68.38.77.54,1.44,1.28,2.1,2.04,0-.52-.02-1.03-.04-1.54-.45-.47-.93-.92-1.49-1.32-.08-.06-.17-.11-.26-.16.17-.27.22-.61.09-.94,0-.02-.02-.04-.03-.06.52-.52.96-1.08,1.36-1.66-.06-.5-.12-1-.19-1.5-.02.04-.05.08-.07.12-.56.89-1.18,1.75-1.9,2.45-.17-.02-.35,0-.52.06-.96.38-1.54.6-2.38.9-.09-.05-.18-.1-.27-.17-.87-.68-1.51-1.79-2.09-2.86-.58-1.1-1.1-2.25-1.65-3.39-.51-1.03-.99-2.08-1.74-3.05.32-.22.5-.59.45-1-.02-.18-.1-.34-.2-.48,1.23-1.27,2.49-3.51,3.86-5.96.54-.97,1.11-1.97,1.69-2.95-.12-.25-.22-.5-.34-.75-.67,1.11-1.32,2.27-1.94,3.37-1.35,2.41-2.64,4.73-3.82,5.91-.13-.04-.28-.05-.42-.03-.83.11-1.29.16-1.95.18-.9-1.26-1.67-4.15-2.32-6.59-.63-2.37-1.14-4.2-1.71-5.34.41-.14.71-.52.71-.97,0-.29-.12-.56-.31-.75.99-1.1,2.14-2.99,3.6-5.46.32-.53.65-1.09.98-1.64-.15-.19-.3-.38-.45-.56-.37.6-.74,1.23-1.11,1.86-1.19,2.01-2.59,4.37-3.67,5.51-.02,0-.05,0-.07,0-.73,0-1.15-.01-1.78-.02-.78-1.31-1.56-4.17-2.16-6.4-.64-2.34-1.13-4.11-1.65-5.21.41-.14.7-.52.71-.98,0-.36-.18-.67-.45-.86,0-.01.02-.02.02-.03.35-.54.64-1.09.92-1.65.13-.27.26-.54.39-.81-.21-.17-.43-.34-.65-.51-.15.32-.3.65-.45.97-.27.54-.55,1.08-.87,1.58-.06.09-.13.19-.19.28h-1.41c-.12-.17-.23-.34-.34-.52-.31-.51-.58-1.05-.84-1.6-.53-1.1-1.01-2.24-1.49-3.37-.21-.49-.42-.99-.64-1.48-.35-.2-.7-.41-1.06-.61.35.79.69,1.58,1.03,2.38.48,1.14.96,2.28,1.49,3.41.27.56.55,1.12.87,1.67.06.1.12.19.18.29-.29.18-.48.5-.48.87,0,.29.12.56.31.75-1.01,1.12-2.27,3.08-3.88,5.67-1.3,2.08-2.94,4.72-4.11,5.95-.02,0-.03,0-.05,0-.68,0-1.08-.02-1.67-.02-.56-1.08-1.1-3.21-1.56-5.03-.64-2.53-1.27-4.97-2.12-6.39.35-.17.59-.52.59-.94,0-.31-.14-.59-.36-.78,1.13-1.33,2.27-3.69,3.44-6.13.44-.92.92-1.91,1.4-2.82.09-.18.19-.35.28-.53.09-.17.19-.33.28-.49-.21-.09-.41-.19-.62-.28-.58,1-1.21,2.29-1.95,3.83-1.09,2.26-2.37,4.92-3.5,6.16,0,0,0,0,0,0h-2.23c-1.03-1.13-2.19-3.47-3.25-5.61-1.12-2.25-2.19-4.41-3.27-5.67.22-.19.37-.47.37-.78,0-.38-.2-.72-.51-.9.2-.3.4-.64.6-1.02-.24-.04-.47-.08-.71-.11-.2.38-.41.72-.61.98l-2.12-.02s-.09,0-.14.02c-.4-.36-.82-.86-1.26-1.42-.3-.02-.59-.05-.89-.07.52.71,1.04,1.34,1.53,1.82-.17.18-.28.42-.28.69,0,.34.16.64.41.84-1.06,1.24-2.15,3.34-3.27,5.52-1.09,2.12-2.29,4.44-3.33,5.56l-2.21-.04c-1.01-1.14-2.17-3.45-3.23-5.56-1.14-2.27-2.24-4.46-3.33-5.73.22-.19.36-.46.36-.77,0-.36-.17-.68-.45-.87.09-.13.17-.26.25-.39.06-.11.11-.22.17-.32-.36.06-.73.13-1.09.19-.08.11-.15.23-.23.34h-1.35c-.52.1-1.04.22-1.56.35.02.02.03.03.05.05-.13.17-.21.38-.21.62,0,.34.16.64.41.83-1,1.19-2.01,3.18-3.12,5.36-1.11,2.19-2.33,4.59-3.43,5.74,0,0-.02,0-.03,0h0c-.94,0-1.43,0-2.4.01-1.1-1.09-2.33-3.27-3.45-5.26-.42-.74-.83-1.47-1.24-2.16-.2.11-.39.22-.59.33.42.71.84,1.45,1.24,2.16,1.19,2.11,2.28,4.04,3.35,5.19-.22.19-.36.47-.36.78,0,.19.06.37.15.52-.13.12-.25.24-.37.36-.46.47-.85.97-1.23,1.48-.76,1.02-1.44,2.07-2.11,3.12-.67,1.05-1.34,2.09-2.03,3.1-.7,1-1.42,2-2.26,2.82-.2.2-.42.39-.64.55-.03,0-.05,0-.08,0h0l-2.37.02c-.27-.24-.51-.53-.74-.84-.34-.47-.65-.98-.94-1.51-1.16-2.12-2.06-4.41-3.3-6.58-.32-.54-.65-1.08-1.06-1.59,0,0-.01-.02-.02-.02-.24.24-.48.49-.72.74.33.43.64.9.92,1.38,1.19,2.07,2.1,4.36,3.31,6.55.3.55.63,1.09,1.02,1.61.14.19.3.38.47.57-.18.19-.29.44-.29.73,0,.14.03.27.08.39,0,0,0,0,0,0-.53.4-.99.86-1.43,1.32-.87.94-1.64,1.93-2.39,2.92-1.5,1.98-2.89,4.03-4.53,5.78-.41.43-.84.84-1.3,1.17-.08.06-.16.11-.25.17-.04,0-.08-.01-.12-.01h-2.37c-.36-.35-.7-.81-.97-1.27-1.12-1.92-1.88-4.11-2.79-6.23-.21.43-.4.86-.6,1.29.75,1.82,1.45,3.69,2.5,5.48.21.35.45.69.73,1.02-.19.19-.31.45-.31.74,0,.19.05.36.14.52-1.65,1.19-3.38,3.49-5.18,5.89-.91,1.21-1.83,2.43-2.71,3.45-.05.39-.11.78-.15,1.17,1.09-1.15,2.23-2.66,3.4-4.21,1.76-2.34,3.56-4.73,5.17-5.84.11.04.24.07.37.07h2.64c1.06,1.12,1.98,3.36,2.88,5.56.89,2.17,1.74,4.26,2.79,5.52-.26.19-.43.49-.43.83,0,.21.06.41.16.57-1.53,1.19-3.08,3.43-4.7,5.75-1.62,2.33-3.29,4.71-4.82,5.83-.08-.02-.17-.04-.26-.04h-2.84c-1.26-1.21-2.34-3.8-3.31-6.15-.44-1.06-.87-2.09-1.31-3.02,0,.37-.03.73-.03,1.09,0,.17.01.34.01.51.24.55.47,1.11.7,1.67.97,2.34,1.97,4.73,3.2,6.1-.25.19-.42.49-.42.83,0,.16.04.31.1.45-.24.19-.46.4-.67.61-.62.64-1.15,1.33-1.64,2.04.1.47.21.93.32,1.39.63-.96,1.29-1.91,2.06-2.7.26-.28.55-.53.86-.74,0,0,0,0,0,0h2.72c.12.09.24.19.36.3.4.37.76.82,1.1,1.28,1.35,1.89,2.38,4.08,3.58,6.19.61,1.06,1.23,2.12,2.07,3.09.1.12.21.24.33.35-.14.17-.23.39-.23.63,0,.27.09.51.25.69-1.46,1.29-2.9,3.64-4.32,5.94-.49.79-.98,1.59-1.47,2.33.13.21.27.42.4.62.53-.8,1.07-1.68,1.64-2.6,1.4-2.28,2.93-4.79,4.37-5.95.05,0,.09.02.14.02l2.69.04c1.15,1.22,2.18,3.79,3.12,6.14.83,2.07,1.59,3.97,2.44,5.15-.3.18-.52.5-.53.87,0,.21.06.42.17.58-.04.04-.09.08-.13.11-.48.44-.89.92-1.29,1.41-.79.97-1.5,1.99-2.19,3.01-.46.68-.91,1.37-1.36,2.06.23.22.46.45.7.66.48-.73.95-1.47,1.44-2.19.68-1.01,1.37-2.02,2.12-2.96.38-.47.77-.92,1.19-1.32.11-.11.23-.21.36-.31,0,0,0,0,0,0,.83.01,1.32.02,2.05.02,0,0,.02.02.02.03.33.44.61.98.85,1.52.49,1.1.89,2.26,1.3,3.43.41,1.17.8,2.34,1.27,3.51.24.58.49,1.16.79,1.73.19.36.41.72.66,1.05-.26.19-.43.49-.43.84,0,.23.07.43.19.6-.49.4-.99.93-1.5,1.52.2.11.39.23.59.34.5-.59,1-1.1,1.47-1.46.09.03.18.04.28.04l2.62.02c1.05,1.01,2.11,2.95,3.15,4.89.32.12.64.24.96.36-.07-.13-.14-.27-.21-.4-1.06-2-2.09-3.92-3.18-5.09.23-.19.38-.47.38-.79,0-.24-.08-.46-.21-.63.06-.05.12-.11.18-.16.93-.91,1.67-1.93,2.39-2.96,1.42-2.06,2.67-4.22,4.13-6.2.37-.49.75-.97,1.17-1.4.12-.12.24-.24.37-.35.01,0,.03,0,.04,0l2.35.09s.03,0,.04,0c0,0,0,0,0,0,.37.38.7.81,1.02,1.26.59.86,1.13,1.77,1.66,2.68.19.33.38.67.58,1,1.36,2.38,2.75,4.81,4.18,6.14-.15.18-.25.41-.25.67,0,.28.11.54.3.73-1.21,1.15-2.38,3.12-3.6,5.16-.56.95-1.14,1.9-1.71,2.77.24.04.48.09.72.13.53-.82,1.05-1.69,1.57-2.55,1.22-2.05,2.48-4.15,3.68-5.19.03,0,.06.01.09.01l2.66.02h0c.06,0,.12,0,.19-.02,1.4,1.13,2.98,3.47,4.41,5.61.62.92,1.23,1.82,1.82,2.64.26-.02.53-.03.79-.06-.68-.91-1.37-1.94-2.05-2.96-1.51-2.24-2.96-4.39-4.36-5.6.14-.18.24-.4.24-.65,0-.34-.16-.64-.41-.83,1.09-1.28,2.03-3.46,2.94-5.6.79-1.84,1.65-3.85,2.51-4.89h2.21s0,0,0,0c.08,0,.16-.01.23-.03,1.21,1.02,2.66,3.05,4.08,5.03,1.6,2.24,3.22,4.51,4.77,5.75-.12.17-.19.37-.19.59,0,.33.15.63.4.82-.03.04-.06.08-.1.12-.02.03-.04.05-.06.08-.08.1-.16.2-.23.3-.03.04-.06.08-.09.12-.03.04-.06.08-.08.12-.02.03-.04.06-.06.09-.31.46-.61.98-.9,1.54,0,0,0,0,0,0-.52.99-1.02,2.1-1.53,3.24-.26.57-.51,1.14-.77,1.69.28-.06.56-.13.83-.19.18-.4.37-.81.55-1.22.39-.88.81-1.79,1.23-2.64.05-.1.1-.2.15-.3.06-.11.11-.22.17-.32.13-.25.26-.49.4-.73,0,0,0-.02.01-.02.15-.26.31-.51.48-.75.22-.32.47-.63.74-.9l2.52.03h.01c.11,0,.22-.02.32-.06.15.12.31.24.45.37.44.4.85.84,1.24,1.3.54.64,1.04,1.31,1.54,2,.23-.1.46-.21.69-.31-.54-.73-1.09-1.46-1.68-2.16-.41-.48-.84-.94-1.32-1.37-.11-.1-.23-.2-.35-.29.09-.15.14-.32.14-.51,0-.37-.18-.69-.47-.88.89-1.17,1.62-3.05,2.38-5.01.75-1.94,1.57-4.06,2.51-5.11l2.35.07s.02,0,.03,0c.15,0,.3-.04.43-.1,1.28.92,2.68,2.71,4.13,4.57,1.04,1.34,2.15,2.74,3.31,3.95.18-.14.36-.28.54-.42-1.15-1.2-2.27-2.61-3.32-3.95-1.49-1.91-2.85-3.64-4.17-4.63.07-.13.11-.28.11-.44.01-.41-.22-.78-.57-.95.12-.17.23-.34.33-.52.63-1.11,1.07-2.27,1.51-3.42.44-1.15.84-2.3,1.3-3.41.23-.56.47-1.1.75-1.62.18-.34.39-.67.62-.94.68.02,1.14.04,1.93.06.01,0,.02,0,.03,0,.06,0,.13,0,.19-.02.26.2.51.43.76.67,1.67,1.68,3.09,3.67,4.61,5.57.76.95,1.53,1.9,2.36,2.8.42.45.86.89,1.34,1.3.18.15.37.3.56.43-.04.12-.07.24-.06.38,0,.21.09.39.2.55.45-.53.9-1.08,1.33-1.62-.16,0-.33.01-.52.02-.08,0-.15.01-.23.03-.23-.15-.45-.32-.67-.51-.44-.37-.86-.79-1.26-1.22-.81-.87-1.57-1.8-2.32-2.74-1.52-1.88-2.94-3.85-4.71-5.62-.21-.2-.42-.4-.65-.58.07-.13.11-.28.11-.43.01-.39-.2-.74-.52-.93.8-1.11,1.54-2.89,2.33-4.83.89-2.16,1.86-4.52,2.92-5.71,0,0,.01,0,.02,0,0,0,.02,0,.02,0,.98-.02,1.52-.07,2.63-.23,0,0,.01,0,.02,0,1.14.78,2.45,2.29,3.73,3.77,1.8,2.08,3.64,4.2,5.47,5.1-.13.24-.17.53-.09.81.03.11.08.2.15.29-.38.47-.68.98-.94,1.49-1.1,2.21-1.65,4.56-2.3,6.84.69-1.06,1.34-2.14,1.96-3.25.34-1.09.73-2.14,1.23-3.14.28-.55.62-1.08,1.01-1.52.04,0,.07-.01.11-.02.37-.82.72-1.66,1.05-2.5-.47.15-.94.3-1.57.5ZM97.48,32.03c.69,0,1.1.01,1.71.02.64,1.15,1.26,3.48,1.79,5.46.69,2.59,1.35,5.08,2.23,6.51-.39.15-.67.54-.66.99,0,.16.05.32.12.45-.08.07-.15.13-.22.2-.96.93-1.72,1.98-2.45,3.04-.73,1.06-1.41,2.14-2.09,3.22-.68,1.08-1.36,2.16-2.07,3.2-.64.91-1.31,1.86-2.09,2.56,0,0,0,0,0,0-.79-.02-1.24-.04-1.93-.06-.2-.29-.37-.63-.53-.97-.49-1.13-.83-2.37-1.16-3.6l-.94-3.73c-.33-1.23-.64-2.47-1.19-3.68.4-.13.7-.5.72-.95,0-.28-.09-.54-.27-.73,1.13-1.13,2.52-3.16,4.29-5.84,1.49-2.25,3.23-4.89,4.53-6.1.07.02.14.02.21.02ZM90.64,59.31c-.16.17-.32.35-.47.52-.41.5-.78,1.02-1.14,1.55-1.4,2.11-2.6,4.32-3.94,6.42-.65,1-1.32,2.01-2.13,2.79l-2.1-.12c-.14-.18-.28-.37-.41-.57-.63-1.03-1.11-2.19-1.58-3.35-.46-1.16-.89-2.35-1.33-3.53-.16-.42-.32-.84-.48-1.25-.03-.09-.07-.17-.1-.26-.04-.1-.08-.21-.13-.31-.38-.92-.75-1.72-1.13-2.34.35-.16.6-.5.62-.91.01-.26-.08-.49-.22-.68.94-.83,1.98-2.13,3.06-3.63.01-.02.03-.04.04-.05.2-.28.4-.56.6-.84.92-1.28,1.81-2.58,2.73-3.84.76-1.03,1.53-2.06,2.41-2.95.13-.13.26-.25.4-.37.06.01.12.02.18.02l1.65.06c.04.08.09.15.13.24.51,1.11.82,2.37,1.14,3.6l.92,3.74c.33,1.25.66,2.5,1.18,3.72.12.26.24.51.38.77-.3.17-.52.49-.53.87-.01.27.09.52.25.71ZM61.06,71.65c-1.01,1.29-1.96,3.5-2.95,5.79-.76,1.76-1.65,3.82-2.41,4.85-.66-.04-1.07-.06-1.79-.11-.02,0-.03,0-.05,0,0,0,0,0,0-.01-.18-.24-.35-.48-.51-.74,0,0,0,0,0,0-.13-.21-.25-.43-.37-.65-.06-.1-.12-.21-.17-.32-.26-.49-.5-.99-.73-1.48-1.05-2.25-1.93-4.57-3-6.85-.22-.47-.46-.93-.73-1.38.26-.16.45-.44.49-.77.04-.4-.15-.77-.46-.98.73-.97,1.63-2.57,2.8-4.68,1.17-2.12,2.67-4.82,3.77-6.04.65.05,1.04.07,1.63.11.58,1.08,1.26,3.14,1.79,4.77.85,2.62,1.73,5.29,2.78,6.79-.28.18-.47.5-.48.86,0,.34.16.64.41.83ZM45.43,70.52c-.17.23-.32.47-.48.71-.34.54-.64,1.09-.94,1.64-1.18,2.2-2.21,4.46-3.45,6.57-.31.52-.64,1.03-1.01,1.49-.06.07-.11.14-.18.21-.6-.03-.99-.06-1.59-.08-.11-.15-.21-.31-.3-.47-.29-.51-.55-1.06-.79-1.62-.96-2.24-1.72-4.6-2.76-6.87-.26-.57-.55-1.13-.88-1.68-.17-.28-.36-.56-.57-.83.19-.19.31-.45.31-.74,0-.31-.14-.59-.36-.78,1.21-1.29,2.48-3.55,3.8-5.9,1.04-1.86,2.28-4.03,3.24-5.09.7.04,1.09.06,1.71.1.73,1.26,1.57,3.88,2.24,5.95.81,2.52,1.46,4.47,2.1,5.66-.28.16-.49.45-.52.79-.04.38.13.73.42.95ZM23.27,55.13c1.6-1.26,3.26-3.66,4.89-6,1.46-2.11,2.96-4.26,4.23-5.3.09.03.18.05.28.05.88.01,1.35.02,2.11.03.91,1.26,1.74,3.93,2.45,6.2.68,2.2,1.24,3.91,1.82,4.99-.33.16-.57.49-.59.88-.02.33.12.62.35.82-.88,1.03-1.89,2.77-3.16,5.03-1.23,2.18-2.67,4.76-3.9,5.97h-2.42c-1-1.09-2.02-3.27-3.02-5.41-1.08-2.32-2.12-4.55-3.28-5.85.25-.19.41-.48.42-.82,0-.22-.06-.42-.18-.59ZM35.91,42.31c.18-.17.36-.34.53-.52.89-.96,1.64-1.99,2.38-3.03,1.47-2.07,2.81-4.22,4.36-6.19.39-.49.79-.96,1.23-1.37.07-.07.15-.14.23-.21.01,0,.02,0,.03,0,.73.01,1.16.02,1.78.04.08.12.15.26.21.39.26.54.47,1.13.65,1.72.74,2.4,1.2,4.91,1.93,7.39.19.62.39,1.24.67,1.85.01.02.03.05.04.07-.35.15-.61.49-.63.89-.02.3.09.57.28.77-1.07,1.09-2.39,3.02-4.07,5.56-1.31,1.98-2.85,4.31-3.95,5.41,0,0,0,0,0,0-.72-.05-1.12-.07-1.79-.11-.65-1.11-1.33-3.26-1.9-5.1-.75-2.41-1.48-4.73-2.37-6.11.33-.17.56-.51.56-.9,0-.21-.06-.41-.17-.58ZM44.08,62.91c-.84-2.6-1.5-4.59-2.16-5.81.34-.15.59-.48.62-.88.02-.32-.11-.61-.32-.81,1.02-1.06,2.27-2.91,3.86-5.33,1.36-2.07,2.95-4.5,4.11-5.62.03,0,.05.01.08.01l1.56.1c.51,1.23.98,3.74,1.32,5.57.51,2.76.94,4.86,1.48,6.13-.38.13-.67.48-.7.91-.02.33.11.63.34.84-1,1.16-2.2,3.23-3.72,5.98-.88,1.59-2.08,3.76-2.9,4.81l-1.44-.16c-.71-1.28-1.54-3.86-2.15-5.75ZM53.17,42.93c.07-.07.15-.14.22-.21.46-.47.88-.97,1.28-1.48,1.6-2.03,3.01-4.17,4.53-6.21.76-1.02,1.54-2.03,2.42-2.92.2-.2.41-.4.63-.58.08.02.17.04.26.04.73.02,1.16.03,1.78.05.03.05.05.1.08.15.57,1.23.99,3.54,1.34,5.51.43,2.39.82,4.56,1.46,5.9-.44.12-.76.51-.76.99,0,.21.06.4.16.56-1.57,1.29-3.41,3.82-5.31,6.46-1.37,1.9-2.99,4.12-4.14,5.18-.04,0-.07-.02-.11-.02-.68-.04-1.06-.07-1.64-.11-.61-1.31-1.13-4.07-1.53-6.23-.45-2.41-.81-4.27-1.27-5.45.44-.1.79-.48.81-.95.02-.26-.07-.5-.21-.69ZM58.99,62.96c-.67-2.04-1.19-3.59-1.69-4.61.38-.14.65-.49.68-.91.02-.28-.08-.54-.25-.73,1.06-1.02,2.38-2.8,4.07-5.13,1.73-2.38,3.75-5.19,5.31-6.43.1.04.21.06.33.06.54,0,.93,0,1.34,0h.53c.66,1.18,1.18,3.61,1.62,5.67.5,2.34.98,4.59,1.7,5.96-.37.15-.64.5-.65.92,0,.28.09.53.26.72-1.23,1.19-2.59,3.33-4.08,5.68-1.37,2.15-2.86,4.5-4.07,5.63-.01,0-.02,0-.04,0-.9,0-1.38,0-2.22,0-1.05-1.36-2.05-4.43-2.83-6.83ZM64.74,70.08c1.22-1.23,2.57-3.35,3.97-5.55,1.39-2.19,2.91-4.59,4.13-5.71.04,0,.08.02.12.02.81.03,1.26.05,1.99.08,0,.01.02.02.03.04.02.03.04.06.06.09.05.07.09.15.14.23.03.05.06.1.09.16,0,0,0,0,0,.01.08.15.16.31.25.47.09.19.18.38.27.57.04.1.09.19.13.29.08.19.17.39.25.58.03.07.06.15.09.22.22.55.43,1.11.64,1.67.44,1.18.86,2.37,1.31,3.55.46,1.18.94,2.36,1.62,3.48.09.14.18.27.27.41-.23.18-.38.44-.4.75-.02.36.14.68.41.89-.96,1.17-1.89,3.14-2.84,5.19-.94,2.01-1.97,4.22-2.93,5.29h-.07c-.8-.03-1.27-.05-2.14-.08-.07,0-.14,0-.2.01-1.23-1.19-2.61-3.63-3.86-5.86-1.2-2.13-2.3-4.09-3.35-5.26.22-.19.36-.47.37-.78,0-.3-.13-.57-.33-.76ZM83.72,29.99c1.06-1.15,2.37-3.18,4.04-5.87,1.3-2.1,2.84-4.56,3.94-5.74.03,0,.06,0,.08,0h1.52c.58,1.18,1.23,3.58,1.71,5.34.77,2.85,1.4,5.01,2.08,6.29-.38.15-.63.53-.64.96,0,.25.09.48.23.66-1.19,1.15-2.65,3.28-4.51,6.1-1.43,2.17-3.11,4.71-4.34,5.89-.04,0-.08-.02-.12-.02l-1.72-.06c-.63-1.29-1.11-4.04-1.48-6.18-.43-2.49-.79-4.41-1.27-5.6.46-.1.81-.51.82-1,0-.3-.13-.58-.33-.77ZM82.51,31.78c.54,1.21.98,3.72,1.32,5.7.48,2.75.88,4.84,1.43,6.1-.42.12-.73.49-.75.96,0,.24.07.46.19.64-.1.09-.19.18-.28.27-.93.95-1.7,2-2.46,3.04-1.47,2.03-2.83,4.12-4.35,6.09-.34.44-.68.85-1,1.22-.06.07-.12.14-.18.2-.23.25-.46.49-.67.69,0,0-.01.01-.02.02-.07.07-.15.13-.22.19-.06-.01-.13-.03-.2-.03-.8-.03-1.25-.05-1.98-.08-.74-1.24-1.29-3.84-1.76-6.03-.48-2.24-.91-4.28-1.54-5.56.45-.12.78-.52.78-1,0-.22-.07-.42-.18-.59,1.53-1.27,3.35-3.69,5.24-6.2,1.64-2.19,3.43-4.57,4.75-5.69.09.03.19.05.3.05.66,0,1.05.01,1.59.02ZM74.87,18.38h2.08c.88,1.28,1.59,4.08,2.19,6.45.55,2.15.99,3.83,1.49,4.91-.42.13-.73.51-.74.98,0,.22.06.42.17.59-1.23,1.08-2.76,3.06-4.73,5.7-1.72,2.29-3.75,4.98-5.26,6.2-.09-.03-.19-.05-.29-.05h-1.01c-.29,0-.56,0-.88,0-.67-1.22-1.14-3.8-1.53-5.98-.4-2.24-.77-4.29-1.35-5.57.43-.12.75-.5.76-.97,0-.25-.08-.48-.22-.66,1.25-1.16,2.68-3.24,4.25-5.52,1.61-2.35,3.37-4.92,4.8-6.1.09.02.17.04.26.04ZM58.91,16.36c1.04-1.2,2.1-3.26,3.26-5.51,1.1-2.14,2.31-4.48,3.37-5.61l2.25.02h.01s0,0,0,0c1.06,1.16,2.24,3.54,3.33,5.72,1.11,2.24,2.13,4.28,3.13,5.51-.26.19-.44.5-.44.85,0,.23.08.44.21.61-1.46,1.27-3.09,3.64-4.79,6.1-1.25,1.83-2.61,3.8-3.75,5.02-.13.14-.27.28-.41.41-.04.03-.07.06-.11.09-.07-.02-.14-.03-.21-.03-.77-.02-1.21-.03-1.89-.05-.08-.13-.16-.27-.24-.41-.01-.02-.02-.04-.03-.06-.13-.25-.25-.51-.36-.78,0-.02-.02-.04-.03-.07-.11-.28-.22-.56-.32-.84-.83-2.37-1.41-4.86-2.27-7.28-.22-.6-.46-1.21-.78-1.79-.04-.08-.09-.15-.13-.22.32-.17.54-.5.55-.89,0-.32-.14-.61-.36-.8ZM55.89,18.13s.03,0,.04,0l1.99.04c.1.14.2.3.28.46.29.53.52,1.11.74,1.69.73,1.98,1.27,4.05,1.93,6.09.1.31.2.61.3.9.03.09.06.18.09.27.02.07.05.13.08.2.07.2.15.39.22.57.03.07.06.14.09.21.11.27.23.52.35.75,0,.02.02.04.03.06.01.03.03.05.05.08.02.04.04.08.06.12-.37.15-.63.51-.64.93,0,.23.06.44.19.62-.19.16-.37.33-.55.5-.93.94-1.72,1.96-2.5,2.98-1.55,2.05-2.97,4.19-4.55,6.17-.4.49-.8.97-1.24,1.41-.12.12-.24.23-.37.34-.03,0-.05-.01-.08-.01l-1.62-.1c-.06-.11-.12-.22-.17-.34-.25-.55-.44-1.15-.62-1.75-.7-2.42-1.15-4.94-1.89-7.41-.19-.62-.4-1.24-.69-1.84-.02-.04-.04-.07-.06-.11.35-.16.59-.51.6-.91,0-.25-.08-.49-.23-.67.14-.14.28-.29.41-.44.86-.98,1.57-2.04,2.27-3.1,1.4-2.11,2.68-4.3,4.2-6.28.38-.49.78-.96,1.22-1.37.02-.02.04-.04.06-.06ZM39.93,16.16c1.12-1.26,2.22-3.44,3.37-5.7,1.05-2.07,2.2-4.34,3.22-5.45l2.24.02h.01s.01,0,.02,0c1.07,1.17,2.28,3.58,3.38,5.78,1.11,2.22,2.13,4.25,3.13,5.47-.24.19-.41.47-.41.81,0,.27.09.51.26.7-.43.41-.81.86-1.17,1.31-1.57,2.04-2.87,4.22-4.27,6.31-.7,1.04-1.41,2.08-2.22,2.99-.19.21-.39.41-.59.6-.76-.02-1.2-.03-1.88-.04-.66-.9-1.12-2.05-1.57-3.16-.46-1.16-.88-2.34-1.33-3.52-.46-1.18-.92-2.35-1.54-3.49-.2-.36-.42-.72-.68-1.06.22-.19.36-.47.36-.78,0-.31-.14-.58-.35-.77ZM28.26,29.92c0-.16-.04-.31-.11-.45.16-.14.32-.28.47-.42.92-.92,1.66-1.94,2.37-2.97.71-1.03,1.37-2.09,2.04-3.13.67-1.04,1.34-2.09,2.07-3.07.36-.49.74-.97,1.15-1.39.17-.18.35-.35.54-.5.01,0,.02,0,.03,0h0c.87,0,1.35,0,2.11,0,.32.35.61.81.85,1.24.58,1.06,1.05,2.21,1.5,3.37.45,1.16.88,2.34,1.36,3.52.24.59.48,1.17.76,1.75.21.42.42.84.69,1.25-.27.18-.46.49-.46.84,0,.23.07.44.19.61,0,0-.01.01-.02.02-.49.46-.91.95-1.32,1.45-1.61,2.02-2.96,4.16-4.42,6.2-.73,1.02-1.48,2.03-2.31,2.91-.23.24-.48.48-.73.69-.77-.01-1.23-.02-1.93-.03-.29-.36-.54-.79-.76-1.24-.27-.54-.51-1.11-.75-1.69-.46-1.15-.88-2.33-1.33-3.51-.45-1.17-.92-2.35-1.55-3.49-.23-.41-.48-.81-.79-1.2.21-.19.34-.47.34-.77ZM16.9,49.07c-.88-2.16-1.73-4.23-2.77-5.49.27-.19.44-.5.44-.85,0-.13-.03-.25-.07-.36,0,0,0,0,.01,0,.53-.39.99-.84,1.43-1.3,1.73-1.85,3.11-3.91,4.59-5.88.74-.98,1.49-1.96,2.31-2.85.41-.44.84-.86,1.3-1.21.08-.06.16-.11.23-.16.04,0,.09.01.13.01h0l2.33-.02c.38.38.71.88,1,1.4.58,1.05,1.05,2.2,1.5,3.36.45,1.16.87,2.34,1.35,3.52.24.59.49,1.18.78,1.76.18.34.36.68.59,1.01-.25.19-.42.48-.42.81,0,.22.07.43.18.6-1.29,1.11-2.69,3.11-4.22,5.31-1.6,2.3-3.35,4.82-4.9,5.98-.09-.03-.19-.05-.29-.05l-2.64-.03c-1.07-1.12-1.99-3.37-2.89-5.57ZM19.8,80.73l-2.55-.04c-.22-.18-.43-.39-.62-.62-.74-.86-1.36-1.89-1.94-2.93-1.18-2.08-2.2-4.27-3.63-6.29-.36-.49-.74-.98-1.21-1.41.13-.17.2-.38.2-.61,0-.22-.07-.43-.19-.6,1.56-1.22,3.15-3.49,4.79-5.85,1.59-2.28,3.21-4.62,4.69-5.72.1.03.2.06.31.06l2.65.03c1.19,1.19,2.35,3.67,3.4,5.93.98,2.11,1.93,4.14,2.95,5.36-.23.19-.39.48-.39.8,0,.2.06.39.16.55-.15.14-.29.27-.42.41-.88.94-1.58,1.96-2.27,2.98-.68,1.02-1.33,2.06-1.99,3.08-.66,1.02-1.33,2.02-2.06,2.96-.37.47-.75.92-1.16,1.32-.22.22-.45.42-.69.59-.01,0-.02,0-.03,0ZM28.38,93.99s-.09-.02-.14-.02c-.91,0-1.41,0-2.25-.02-.89-1.09-1.76-3.27-2.55-5.26-.93-2.33-1.89-4.71-3.04-6.09.25-.19.42-.48.43-.82,0-.18-.04-.35-.12-.49.18-.15.35-.3.51-.45.46-.45.86-.93,1.24-1.42.76-.98,1.44-2.01,2.1-3.04.66-1.03,1.31-2.06,1.98-3.07.67-1,1.36-2.01,2.16-2.86.19-.2.39-.4.6-.57,0,0,.01,0,.02,0h2.22c.28.29.52.64.75,1.01.31.5.58,1.04.84,1.58,1.02,2.2,1.8,4.54,2.79,6.83.25.57.52,1.14.84,1.7.04.07.09.15.14.22-.26.18-.44.46-.46.8-.01.29.1.56.28.76-1.12,1.12-2.38,3.06-3.78,5.18-1.53,2.32-3.2,4.85-4.56,6.03ZM44.33,96.14c-.07.06-.13.12-.2.19-.45.46-.85.96-1.24,1.46-1.51,2.03-2.77,4.18-4.18,6.2-.71,1-1.44,2-2.3,2.82-.12.12-.25.23-.38.33-.02,0-.05,0-.07,0h-2.38c-.68-.8-1.15-1.87-1.57-2.91-.45-1.13-.84-2.3-1.24-3.47-.4-1.17-.8-2.35-1.31-3.51-.2-.45-.42-.9-.7-1.34.3-.18.5-.51.5-.88,0-.26-.1-.5-.26-.68,1.38-1.27,2.91-3.59,4.49-6,1.31-2,2.74-4.18,3.85-5.24.02,0,.05,0,.07.01.77.04,1.18.06,1.88.1.71,1.09,1.53,3.2,2.22,5,.98,2.54,1.92,4.99,2.98,6.39-.25.18-.42.47-.43.8-.01.28.09.54.27.73ZM47.41,94.49l-2.22-.09c-1.07-1.3-2.14-4.08-3.04-6.44-.82-2.14-1.48-3.81-2.12-4.87.31-.17.53-.48.55-.85.02-.33-.12-.63-.35-.84.39-.5.73-1.02,1.04-1.55,1.26-2.17,2.28-4.44,3.43-6.62.29-.54.58-1.08.9-1.6.19-.3.4-.61.61-.89l1.36.15c.31.49.58,1.02.84,1.56,1.06,2.23,1.96,4.56,3.04,6.82.3.63.61,1.25.96,1.87.27.49.54.92.8,1.27-.22.18-.37.44-.39.74-.02.38.16.72.45.92-.84,1.09-1.69,2.85-2.63,4.79-.99,2.06-2.15,4.49-3.21,5.63ZM61.31,101.68c-.92,2.15-1.94,4.51-3.03,5.64l-2.61-.02h0c-.05,0-.1,0-.15.01-1.4-1.2-2.88-3.78-4.22-6.13-.76-1.33-1.48-2.59-2.17-3.61-.03-.05-.06-.09-.09-.14-.27-.39-.56-.78-.88-1.15.2-.18.33-.43.34-.72.01-.34-.14-.65-.39-.85,1.05-1.24,2.07-3.37,3.13-5.57.86-1.78,1.86-3.86,2.71-4.89.7.04,1.11.07,1.88.11.02,0,.04,0,.06,0,.02,0,.05,0,.07,0,.96,1.05,2.15,3.02,3.25,4.84,1.5,2.48,2.94,4.85,4.3,6.15-.15.18-.24.4-.24.65,0,.36.18.67.45.86-.83,1.11-1.59,2.87-2.41,4.8ZM66.47,94.99h-2.16s0,0,0,0c-.07,0-.13,0-.19.02-1.36-1.23-2.97-3.88-4.33-6.13-1.28-2.12-2.3-3.76-3.18-4.77.18-.18.3-.42.32-.69.02-.4-.19-.76-.51-.95.69-1.01,1.41-2.65,2.32-4.74.92-2.14,2.01-4.65,3.03-5.84.86,0,1.34,0,2.25,0,1.07,1.1,2.32,3.31,3.46,5.33,1.32,2.34,2.59,4.59,3.84,5.86-.15.18-.25.4-.26.66-.01.36.16.69.44.88,0,0-.01.02-.02.02-.07.09-.14.19-.21.29-.03.04-.06.08-.08.12-.03.04-.05.09-.08.13-.16.25-.31.5-.44.76-.05.09-.09.18-.14.27-.01.03-.03.05-.04.08-.54,1.08-1.06,2.38-1.59,3.7-.75,1.89-1.58,3.95-2.41,5ZM81.53,102.33c-.74,1.92-1.56,4.02-2.48,5.07l-2.46-.03h-.01c-.1,0-.19.02-.28.04-1.5-1.14-3.22-3.55-4.79-5.74-1.47-2.05-2.8-3.94-4.03-5.03.13-.17.21-.38.21-.62,0-.38-.2-.7-.5-.89.8-1.13,1.52-2.94,2.31-4.91.46-1.16.95-2.37,1.45-3.41.09-.18.18-.36.27-.54.02-.04.05-.09.07-.14.27-.48.56-.94.91-1.33.76.03,1.22.04,1.96.07h.24s.03.01.04.01c.09,0,.18-.02.27-.04.09.07.18.15.26.23.87.81,1.61,1.79,2.34,2.76,1.45,1.97,2.78,4.05,4.32,6,.39.49.79.97,1.23,1.42.23.23.46.45.71.66-.07.14-.12.29-.12.45-.01.37.17.7.46.89-.9,1.17-1.64,3.07-2.4,5.05ZM90.65,86.2c-.3.56-.55,1.13-.78,1.71-.47,1.15-.87,2.3-1.29,3.45-.43,1.14-.86,2.28-1.44,3.3-.16.28-.34.55-.54.79l-2.07-.06c-.11,0-.22.01-.33.04-.72-.56-1.36-1.31-1.96-2.05-1.52-1.9-2.85-3.97-4.33-5.96-.75-.99-1.51-1.98-2.45-2.85-.05-.04-.1-.08-.15-.12.1-.15.17-.34.18-.54.01-.37-.17-.7-.45-.9.96-1.19,1.88-3.15,2.83-5.19.93-2,1.96-4.2,2.91-5.26l2.2.13s.04,0,.06,0c0,0,.02,0,.03,0,1.08,1.11,2.36,3.27,3.54,5.24,1.45,2.44,2.85,4.78,4.2,6.06-.13.17-.21.37-.22.6-.01.39.19.73.49.92-.15.23-.29.47-.42.71ZM96.22,78.71c-.77,1.87-1.61,3.91-2.44,4.93-.78-.02-1.26-.04-2.12-.07-.1,0-.19.01-.28.04-1.32-1.2-2.81-3.73-4.19-6.04-1.24-2.09-2.38-4-3.44-5.16.19-.18.32-.42.34-.71.02-.33-.12-.62-.34-.83.79-.82,1.4-1.74,2.01-2.65,1.37-2.12,2.58-4.33,3.96-6.38.35-.51.71-1.01,1.09-1.47.2-.24.42-.48.64-.68.75.03,1.2.04,1.87.06.3.39.57.86.81,1.32,1.1,2.19,1.92,4.55,2.95,6.84.52,1.14,1.05,2.29,1.83,3.35.05.07.11.13.17.2-.21.19-.34.47-.33.78,0,.31.15.57.36.76-1.08,1.31-2,3.53-2.89,5.71ZM102.23,70.97s-.06,0-.09,0c-.9.13-1.38.18-2.09.2-.14-.14-.28-.3-.4-.47-.7-.93-1.23-2.05-1.75-3.17-1.02-2.24-1.86-4.59-3.01-6.86-.19-.36-.39-.72-.63-1.07.29-.18.48-.49.49-.85,0-.25-.08-.47-.21-.66.3-.29.58-.6.84-.92.41-.51.8-1.03,1.17-1.56.74-1.06,1.42-2.14,2.11-3.22.69-1.07,1.37-2.14,2.09-3.18.72-1.03,1.47-2.05,2.34-2.88.12-.11.24-.22.37-.32.05,0,.09.01.14.01,0,0,.02,0,.02,0,.78-.02,1.28-.05,2-.14.02.02.04.04.05.06.75.87,1.29,2.04,1.84,3.16.54,1.14,1.06,2.3,1.66,3.43.3.57.62,1.13.99,1.68.34.49.72.98,1.22,1.39-.25.27-.35.67-.22,1.05.02.04.04.08.06.12-.58.58-1.07,1.22-1.53,1.87-1.43,2.06-2.56,4.26-3.72,6.43-.58,1.09-1.16,2.17-1.78,3.22-.59.96-1.21,1.93-1.97,2.68Z"/>
      </g>
    </g>
  </g>
</svg>