<?xml version="1.0" encoding="UTF-8"?>
<svg id="Layer_6" data-name="Layer 6" xmlns="http://www.w3.org/2000/svg" viewBox="0 0 500 500">
  <defs>
    <style>
      .cls-1 {
        fill: #1c2f5d;
      }

      .cls-2 {
        fill: #27b4e8;
      }
    </style>
  </defs>
  <g>
    <path class="cls-1" d="M250,413.87c-114.1,0-206.93-92.83-206.93-206.94S135.89,0,250,0s206.94,92.83,206.94,206.93-92.83,206.94-206.94,206.94ZM250,10.41c-108.37,0-196.53,88.16-196.53,196.53s88.16,196.53,196.53,196.53,196.53-88.16,196.53-196.53S358.37,10.41,250,10.41Z"/>
    <g>
      <g>
        <path class="cls-2" d="M417.68,181.04c.1-.62.04-1.24-.21-1.84-.03-.12-.09-.24-.17-.36-.14-.4-.35-.77-.67-1.07-.4-.51-1.91-.8-2.8-.52-.51-.98-1.39-1.73-2.56-1.88-2.49-.02-4.47,1.87-6.67,2.8-3.81,1.85-7.83,3.75-12.16,3.68-4.58.07-8.56-2.39-12.67-4.1-7.64-2.99-15.57-6.11-23.82-6.67-15.86-1.94-31.18,3.4-46.46,8.89-17.86,5.69-35.23,12.78-52.93,18.93-1.25.06-2.51.09-3.77.08-2.86.04-5.53-1.11-8.21-2.03-5.27-1.63-10.6-3.08-15.77-5.03-4.65-1.61-9.44-2.75-14.19-4.04-.68-.13-1.57-.37-2.57-.62-4.74-1.21-12.03-2.96-12.27,2.52.64,3.98,3.51,7.24,5.55,10.61,2.67,3.81,5.38,7.67,8.53,11.12-9.01,5.42-17.14,12.16-26.77,16.55-10.95,5.02-23.41,8.13-35.45,6.04-8.91-2.09-17.68-5.48-25.24-10.7,6.32.38,11.63-2.86,13.04-9.04.04-.4.07-.81.1-1.22.01-.17.03-.35.04-.52,0-.26,0-.52,0-.78,0-.27.02-.55.03-.82.04-.63.1-1.28.32-1.87.16-.41.39-.8.66-1.14.38-.47.88-.84,1.36-1.19,0,0-.01,0-.02.01.29-.21.57-.42.86-.62.02-.01.03-.03.05-.04t.01,0c.16-.11.33-.22.49-.33h0c.46-.32.9-.65,1.33-1,.3-.26.59-.52.88-.8.17-.17.34-.34.49-.53.13-.17.24-.33.35-.51,0,0,0,0,0,0,.08-.13.16-.26.23-.4,0,0,0,0,0,0,0,0,0,0,0,0,.03-.06.05-.13.07-.19.02-.07.04-.14.05-.21.02-.11.04-.22.05-.33,0-.03,0-.06,0-.1,0-.06-.01-.11-.03-.16,0,.02,0,.05.01.08-.01-.09-.03-.17-.06-.25-.04-.11-.08-.21-.12-.3-.35-.39-.85-.65-1.46-.72-4.25-.55-8.26,1.92-12.53,1.86-4.36.35-8.85-.91-13.12.52-3.09.94-6.21,3.63-7.36,6.79-2.44-5.56-5.84-10.76-10.5-14.72-6.99-5.38-15.99-6.49-23.66-10.62-2.77-1.32-5.24-3.21-8.07-4.46-.85-.36-1.81-.76-2.72-.42-1.2.42-1.59,1.88-1.07,2.96,1.55,3.21,4.56,5.42,7.02,7.92,2.42,2.42,4.85,4.88,6.98,7.6,5.28,8.36,12.7,15.33,21.49,19.78,2.44,1.58,4.96,3.09,6.9,5.28,1.61,1.49,2.96,3.21,4.26,4.99,1.05,1.84,2.12,3.66,3.36,5.37,5.01,6.96,10.35,13.71,16.41,19.79,15.65,15.07,35.44,25.9,56.66,30.63,48.87,9.67,98-8.54,140.64-31.53.24-.16.48-.32.72-.48.26-.18.52-.35.8-.51.35-.21.7-.4,1.05-.61.66-.39,1.29-.8,1.95-1.19.38-.22.76-.44,1.13-.66.4-.25.8-.5,1.2-.75.73-.45,1.48-.88,2.22-1.31.74-.44,1.48-.87,2.22-1.3,0,0,0,0,0,0,0,0,0,0,.01,0h0s.03-.01.04-.02c2.31-1.35,4.58-2.76,6.81-4.23-.01.01-.03.02-.04.03.41-.27.81-.55,1.22-.81h0s.03-.02.04-.03c0,0,.02-.01.02-.01.26-.17.53-.33.8-.5-.02.01-.04.03-.06.04.78-.49,1.53-1,2.29-1.51.75-.5,1.51-1,2.26-1.5-.01,0-.03.01-.03.02.05-.03.11-.07.17-.11.11-.07.22-.14.33-.21.18-.11.35-.23.53-.35.01-.02.03-.04.05-.05.09-.09.2-.16.3-.24.18-.15.38-.3.57-.45.02-.02.05-.04.08-.06,0,0,0,0,0-.02,3.37-2.33,6.73-4.68,9.97-7.19,10.79-8.1,21.35-16.55,31.08-25.91,3.59-3.3,7-6.76,10.5-10.15,2.19-2.6,8.7-6.86,9.57-10.77h0c.04-.09.06-.18.05-.28ZM276.07,247.01c-7.91,7.29-15.95,14.89-25.92,19.27-4.26,2.03-12.06,3.49-15.27-.25-.02-.01-.03-.03-.04-.05-1.03-1.32-1.41-3.06-.8-5.06,1.25-4.17,4.38-7.24,7.6-10.11,0,0,.01-.01.02-.01,2.06-1.54,4.19-3,6.15-4.63,1.97-1.52,3.71-3.29,5.34-5.17,2.06-2.17,4-4.46,6.06-6.63,2.06-1.96,4.36-3.7,6.87-5.06-3.43,2.25-6.27,5.33-9.06,9.19-2.46,3.34-4.56,7-7.96,9.53-4.48,3.75-16.65,10.57-10.78,17.43,1.97,1.73,4.67.56,6.92.08,7.8-2.39,14.45-7.36,20.84-12.28,8.52-6.45,16.01-14.05,22.69-22.33-3.7,5.73-7.97,11.07-12.66,16.08Z"/>
        <path class="cls-2" d="M145.59,204.06s-.02.01-.02.02c-.01,0-.02.02-.03.03.02-.02.04-.03.05-.05Z"/>
        <path class="cls-2" d="M341.13,245.37h0s0,0,0,0Z"/>
        <path class="cls-2" d="M144.75,204.84s-.04.03-.05.04c0,0,0,0,0,0,.02-.02.04-.03.06-.05Z"/>
        <path class="cls-2" d="M355.37,238.44c-.5.33-1,.64-1.5.97-1.01.65-2.01,1.32-3.03,1.95-1,.61-2,1.22-2.97,1.86-.51.34-1.01.68-1.52,1.02-.49.33-1,.64-1.49.96-.5.32-1,.65-1.5.97-.47.3-.95.59-1.42.88-.51.32-1.01.64-1.52.96-.55.34-1.1.66-1.64.99-1.04.62-2.06,1.26-3.08,1.91-1.02.65-2.05,1.3-3.06,1.95-.53.34-1.06.69-1.59,1.02-.21.13-.43.26-.65.4-.06.37-.11.74-.15,1.1-.38,7.35,2.8,14.28,3.55,21.52.56,3.12-2.43,10.63.65,12.39.1.03.2.06.29.08,3.65.78,7.22-5.61,9.17-8.1,5.61-7.47,9.78-15.97,11.54-25.18,1.34-6.08,2.09-12.46,1.36-18.68-.47.35-.95.69-1.44,1.02Z"/>
      </g>
      <path class="cls-1" d="M432.46,282.39s0,0-.01,0c-6.28-2.58-13.07-10.4-19.25-17.53-4.5-5.2-8.65-9.96-12.51-12.86.6-.75.91-1.73.76-2.76-.09-.59-.32-1.12-.65-1.58,2.64-2.82,4.58-5.98,6.51-9.1,2.23-3.72,4.27-7.51,6.29-11.28,4.05-7.52,7.96-15.09,12.74-21.92,1.66-2.32,3.45-4.59,5.45-6.5.09,0,.18.04.27.04.4,0,.81-.07,1.21-.21,3.64-1.29,5.7-2.06,8.79-3.26.8.34,1.59.79,2.35,1.31,2.66,1.89,5.01,4.45,7.28,7.09-.03-1.79-.06-3.58-.14-5.35-1.56-1.63-3.23-3.19-5.18-4.58-.28-.19-.6-.38-.9-.56.6-.94.76-2.13.32-3.24-.03-.07-.07-.13-.1-.2,1.79-1.79,3.32-3.74,4.73-5.75-.2-1.74-.42-3.48-.66-5.21-.08.14-.16.28-.24.42-1.94,3.08-4.09,6.06-6.6,8.5-.59-.08-1.2-.03-1.79.2-3.34,1.31-5.34,2.07-8.27,3.13-.31-.18-.62-.36-.92-.59-3.01-2.35-5.23-6.21-7.25-9.94-2.01-3.81-3.81-7.79-5.72-11.77-1.78-3.56-3.42-7.21-6.03-10.59,1.09-.75,1.74-2.06,1.55-3.46-.09-.63-.34-1.18-.7-1.66,4.27-4.41,8.62-12.16,13.39-20.67,1.88-3.37,3.84-6.84,5.86-10.24-.4-.86-.77-1.75-1.18-2.61-2.33,3.86-4.57,7.86-6.73,11.71-4.68,8.36-9.17,16.41-13.24,20.5-.46-.13-.96-.18-1.47-.11-2.89.4-4.48.55-6.77.63-3.12-4.39-5.79-14.41-8.05-22.87-2.19-8.22-3.96-14.57-5.94-18.52,1.42-.48,2.45-1.79,2.47-3.37,0-1.01-.4-1.93-1.07-2.59,3.42-3.81,7.41-10.37,12.48-18.93,1.09-1.85,2.24-3.77,3.4-5.69-.53-.65-1.03-1.31-1.57-1.96-1.27,2.09-2.55,4.26-3.85,6.45-4.14,6.97-8.98,15.15-12.72,19.1-.08,0-.16-.03-.24-.03-2.54-.02-3.98-.04-6.17-.07-2.7-4.54-5.4-14.45-7.51-22.21-2.21-8.13-3.93-14.25-5.71-18.08,1.41-.48,2.44-1.81,2.45-3.38,0-1.24-.61-2.33-1.56-2.98.03-.04.06-.08.08-.12,1.22-1.87,2.23-3.79,3.2-5.73.47-.93.89-1.88,1.34-2.82-.75-.59-1.48-1.18-2.24-1.76-.52,1.12-1.02,2.25-1.57,3.35-.94,1.88-1.91,3.75-3.01,5.47-.21.33-.44.65-.66.96l-4.88-.02c-.41-.57-.81-1.16-1.18-1.78-1.06-1.77-2.02-3.66-2.93-5.57-1.82-3.82-3.49-7.76-5.18-11.7-.73-1.71-1.47-3.43-2.22-5.14-1.22-.71-2.43-1.43-3.67-2.11,1.21,2.73,2.39,5.48,3.56,8.24,1.67,3.95,3.32,7.91,5.16,11.82.92,1.96,1.89,3.9,3.02,5.81.2.33.41.67.63,1-.99.64-1.65,1.75-1.66,3.01,0,1.02.42,1.93,1.09,2.59-3.52,3.9-7.87,10.69-13.44,19.66-4.5,7.23-10.2,16.38-14.27,20.63-.06,0-.11-.02-.17-.02-2.35-.03-3.74-.05-5.78-.08-1.94-3.76-3.82-11.14-5.42-17.44-2.23-8.79-4.39-17.24-7.36-22.17,1.21-.59,2.05-1.81,2.04-3.24,0-1.09-.5-2.05-1.26-2.71,3.93-4.63,7.86-12.78,11.94-21.26,1.53-3.18,3.2-6.63,4.85-9.77.33-.61.65-1.23.98-1.84.33-.6.65-1.15.97-1.71-.72-.32-1.43-.66-2.16-.97-2,3.48-4.19,7.94-6.76,13.27-3.78,7.85-8.24,17.08-12.15,21.38,0,0-.02,0-.03,0h0l-7.72.02c-3.56-3.94-7.6-12.06-11.28-19.48-3.87-7.79-7.61-15.28-11.35-19.67.78-.65,1.28-1.62,1.3-2.71.01-1.33-.71-2.49-1.78-3.13.71-1.03,1.4-2.23,2.08-3.55-.82-.13-1.64-.26-2.46-.39-.71,1.32-1.42,2.49-2.13,3.41l-7.37-.08c-.17,0-.33.03-.49.05-1.38-1.26-2.85-2.97-4.37-4.94-1.03-.08-2.06-.17-3.1-.24,1.82,2.46,3.59,4.64,5.3,6.3-.59.63-.98,1.45-.99,2.38-.01,1.18.55,2.23,1.42,2.9-3.69,4.31-7.45,11.59-11.35,19.15-3.8,7.36-7.95,15.41-11.55,19.3l-7.68-.14c-3.51-3.96-7.54-11.96-11.21-19.28-3.96-7.88-7.77-15.47-11.56-19.88.75-.65,1.25-1.6,1.26-2.68.01-1.24-.61-2.34-1.55-3,.3-.46.59-.92.87-1.37.22-.37.4-.75.6-1.13-1.26.22-2.52.43-3.77.67-.27.39-.52.81-.8,1.17l-4.67-.04c-1.81.4-3.62.8-5.41,1.25.06.06.1.12.16.17-.45.6-.73,1.33-.74,2.14,0,1.18.56,2.22,1.43,2.89-3.48,4.14-6.98,11.05-10.81,18.61-3.85,7.6-8.07,15.9-11.9,19.91-.03,0-.07-.01-.1-.01h0c-3.27,0-4.95.01-8.33.03-3.8-3.76-8.08-11.33-11.98-18.25-1.45-2.57-2.88-5.09-4.3-7.5-.69.37-1.37.76-2.05,1.14,1.46,2.47,2.91,5.02,4.31,7.51,4.13,7.32,7.9,14.01,11.6,18.01-.76.67-1.24,1.63-1.23,2.72,0,.66.2,1.28.52,1.81-.44.4-.86.82-1.27,1.23-1.58,1.64-2.96,3.38-4.28,5.14-2.63,3.54-4.98,7.18-7.32,10.81-2.34,3.63-4.63,7.26-7.05,10.76-2.42,3.48-4.93,6.93-7.83,9.78-.71.69-1.44,1.34-2.2,1.91-.1,0-.19-.03-.29-.03h-.03l-8.22.06c-.92-.83-1.79-1.83-2.57-2.9-1.19-1.63-2.26-3.41-3.27-5.23-4.03-7.34-7.15-15.29-11.45-22.82-1.09-1.88-2.26-3.74-3.66-5.5-.02-.03-.05-.05-.07-.08-.85.84-1.68,1.7-2.51,2.56,1.16,1.48,2.2,3.11,3.19,4.79,4.14,7.19,7.28,15.12,11.47,22.73,1.06,1.9,2.19,3.79,3.53,5.6.5.67,1.05,1.33,1.62,1.98-.63.66-1.01,1.54-1.01,2.52,0,.48.1.93.28,1.35,0,0-.02.01-.03.02-1.84,1.4-3.44,2.97-4.95,4.59-3.02,3.24-5.67,6.69-8.28,10.13-5.2,6.87-10.03,13.98-15.72,20.04-1.43,1.5-2.92,2.9-4.51,4.08-.28.21-.57.39-.86.58-.14-.02-.28-.04-.43-.04l-8.21-.02c-1.27-1.18-2.41-2.78-3.38-4.39-3.9-6.66-6.51-14.25-9.67-21.62-.72,1.48-1.4,2.99-2.09,4.49,2.6,6.3,5.04,12.8,8.67,19,.74,1.21,1.56,2.4,2.52,3.54-.66.65-1.08,1.56-1.08,2.56,0,.65.18,1.26.48,1.79-5.72,4.14-11.73,12.12-17.97,20.42-3.15,4.19-6.34,8.41-9.41,11.97-.17,1.35-.38,2.69-.51,4.05,3.79-3.99,7.74-9.21,11.8-14.61,6.11-8.13,12.35-16.42,17.92-20.24.4.15.83.25,1.28.25l9.16.03c3.68,3.84,6.87,11.63,9.98,19.25,3.07,7.53,6.03,14.78,9.67,19.14-.9.65-1.49,1.69-1.5,2.88,0,.73.21,1.41.57,1.98-5.29,4.13-10.69,11.89-16.3,19.96-5.62,8.09-11.42,16.34-16.73,20.23-.29-.08-.59-.13-.9-.13h-9.85c-4.38-4.21-8.1-13.18-11.49-21.35-1.52-3.66-3.01-7.25-4.56-10.46-.02,1.27-.1,2.52-.1,3.8,0,.59.04,1.18.04,1.77.82,1.9,1.63,3.85,2.44,5.79,3.37,8.12,6.82,16.41,11.12,21.17-.88.66-1.45,1.7-1.45,2.88,0,.56.14,1.08.36,1.55-.83.67-1.59,1.39-2.32,2.12-2.16,2.23-3.99,4.63-5.7,7.07.34,1.61.73,3.21,1.11,4.81,2.19-3.33,4.49-6.61,7.16-9.37.92-.96,1.92-1.84,2.97-2.58,0,0,.01,0,.02,0h9.42c.42.33.84.67,1.24,1.04,1.39,1.29,2.65,2.84,3.83,4.45,4.68,6.57,8.25,14.15,12.43,21.45,2.1,3.66,4.27,7.34,7.18,10.71.36.41.74.82,1.13,1.22-.49.6-.8,1.36-.81,2.2-.02.92.33,1.76.88,2.4-5.07,4.46-10.06,12.63-14.97,20.61-1.69,2.75-3.4,5.52-5.08,8.08.46.73.92,1.45,1.39,2.17,1.83-2.76,3.72-5.82,5.69-9.02,4.87-7.91,10.18-16.6,15.15-20.64.16.02.32.05.49.06l9.32.15c3.98,4.23,7.57,13.15,10.83,21.29,2.88,7.19,5.52,13.77,8.46,17.87-1.05.62-1.8,1.73-1.82,3.03-.01.75.2,1.44.58,2.02-.15.13-.31.26-.46.39-1.65,1.53-3.09,3.19-4.47,4.88-2.74,3.38-5.19,6.91-7.58,10.45-1.61,2.36-3.17,4.75-4.73,7.13.81.76,1.6,1.55,2.42,2.3,1.66-2.55,3.31-5.1,5.01-7.61,2.36-3.51,4.75-7,7.36-10.25,1.31-1.62,2.67-3.19,4.14-4.57.4-.37.81-.73,1.23-1.07,0,0,.02,0,.03,0,2.89.04,4.58.06,7.11.08.02.03.05.06.08.09,1.16,1.53,2.1,3.39,2.96,5.28,1.7,3.81,3.09,7.85,4.5,11.89,1.41,4.05,2.79,8.13,4.42,12.17.82,2.02,1.7,4.03,2.74,5.99.67,1.24,1.41,2.48,2.29,3.66-.9.65-1.49,1.7-1.5,2.9,0,.78.25,1.5.67,2.1-1.71,1.4-3.45,3.22-5.19,5.28.68.39,1.35.79,2.03,1.17,1.74-2.04,3.46-3.81,5.1-5.08.31.09.63.15.98.16l9.09.05c3.65,3.5,7.32,10.22,10.91,16.95,1.11.42,2.21.84,3.32,1.24-.25-.46-.5-.93-.74-1.39-3.69-6.92-7.25-13.59-11.05-17.66.79-.66,1.31-1.63,1.31-2.74,0-.83-.28-1.58-.75-2.2.21-.19.43-.37.63-.56,3.24-3.14,5.79-6.7,8.28-10.27,4.93-7.15,9.27-14.64,14.33-21.52,1.27-1.7,2.6-3.36,4.04-4.85.41-.42.85-.83,1.29-1.22.05,0,.1.02.15.02l8.15.33s.1,0,.15,0c0,0,0,0,0,0,1.28,1.31,2.43,2.82,3.52,4.38,2.05,2.99,3.93,6.13,5.77,9.31.67,1.15,1.34,2.32,2,3.48,4.71,8.25,9.54,16.67,14.52,21.28-.54.63-.87,1.44-.88,2.34,0,.98.39,1.86,1.03,2.52-4.19,4-8.27,10.81-12.49,17.89-1.96,3.28-3.94,6.58-5.93,9.62.84.15,1.67.31,2.51.45,1.84-2.84,3.65-5.86,5.44-8.86,4.25-7.12,8.6-14.38,12.76-18.01.11.01.22.03.33.04l9.21.06h.02c.22,0,.43-.03.64-.06,4.85,3.93,10.32,12.04,15.31,19.47,2.14,3.19,4.25,6.31,6.32,9.16.91-.08,1.84-.12,2.75-.21-2.34-3.16-4.75-6.72-7.13-10.26-5.23-7.77-10.26-15.24-15.11-19.43.5-.62.82-1.39.82-2.24,0-1.18-.56-2.21-1.43-2.88,3.79-4.45,7.04-12,10.21-19.41,2.74-6.39,5.74-13.37,8.72-16.95l7.68.03h.02c.27,0,.54-.04.79-.09,4.19,3.55,9.24,10.57,14.14,17.44,5.54,7.76,11.18,15.65,16.54,19.95-.41.58-.66,1.28-.66,2.04-.01,1.16.53,2.18,1.38,2.85-.12.14-.22.28-.34.41-.07.09-.15.18-.22.27-.27.34-.54.69-.8,1.04-.1.14-.2.28-.31.42-.1.14-.2.27-.29.4-.07.1-.13.21-.2.31-1.07,1.59-2.1,3.39-3.12,5.33,0,.01-.01.02-.02.03-1.79,3.42-3.53,7.29-5.3,11.24-.88,1.97-1.78,3.94-2.67,5.85.97-.21,1.93-.44,2.9-.67.64-1.38,1.27-2.79,1.91-4.22,1.37-3.05,2.79-6.22,4.27-9.17.17-.34.34-.68.52-1.02.19-.37.38-.75.57-1.11.45-.85.92-1.69,1.4-2.52.02-.03.03-.06.05-.09.53-.89,1.08-1.76,1.66-2.61.78-1.12,1.63-2.19,2.56-3.11l8.74.09h.04c.39,0,.76-.08,1.11-.19.54.4,1.06.82,1.57,1.27,1.53,1.37,2.95,2.91,4.31,4.52,1.87,2.23,3.62,4.56,5.35,6.92.81-.35,1.61-.73,2.41-1.09-1.87-2.53-3.78-5.05-5.83-7.48-1.42-1.65-2.91-3.26-4.58-4.74-.4-.35-.81-.69-1.23-1.02.3-.52.49-1.12.5-1.76.01-1.27-.63-2.39-1.61-3.04,3.09-4.05,5.62-10.59,8.24-17.37,2.6-6.72,5.44-14.07,8.69-17.72l8.15.25s.07,0,.11,0c.53,0,1.04-.13,1.49-.34,4.43,3.2,9.28,9.4,14.34,15.85,3.62,4.63,7.47,9.51,11.49,13.7.63-.48,1.24-.97,1.86-1.46-4-4.15-7.87-9.04-11.5-13.69-5.18-6.61-9.9-12.64-14.46-16.06.23-.46.38-.96.39-1.51.04-1.44-.77-2.69-1.96-3.31.4-.59.78-1.19,1.14-1.79,2.19-3.86,3.72-7.87,5.25-11.85,1.51-3.99,2.92-7.98,4.52-11.84.8-1.93,1.64-3.83,2.61-5.62.63-1.17,1.35-2.31,2.14-3.27,2.35.08,3.96.13,6.68.22.04,0,.07,0,.11,0,.22,0,.44-.03.65-.06.9.71,1.78,1.5,2.63,2.33,5.78,5.84,10.72,12.74,15.98,19.3,2.63,3.3,5.29,6.59,8.2,9.72,1.46,1.56,2.98,3.09,4.64,4.51.62.52,1.27,1.02,1.94,1.51-.15.41-.23.84-.22,1.3.02.72.3,1.34.68,1.89,1.58-1.85,3.11-3.73,4.62-5.64-.55.02-1.14.04-1.79.05-.27,0-.54.05-.79.11-.79-.52-1.57-1.12-2.31-1.76-1.53-1.29-2.97-2.73-4.38-4.23-2.81-3.01-5.44-6.24-8.06-9.51-5.27-6.52-10.21-13.36-16.35-19.51-.72-.69-1.47-1.38-2.26-2.03.23-.46.37-.96.39-1.5.04-1.37-.7-2.57-1.8-3.21,2.79-3.86,5.33-10.02,8.09-16.75,3.08-7.49,6.45-15.69,10.14-19.8.02,0,.04,0,.07,0,.03,0,.06,0,.08,0,3.41-.07,5.28-.24,9.12-.79.03,0,.05-.01.08-.02,3.94,2.71,8.5,7.95,12.95,13.09,6.24,7.2,12.61,14.56,18.96,17.68-.46.83-.61,1.84-.3,2.83.12.37.29.71.51,1.01-1.3,1.63-2.35,3.38-3.28,5.17-3.81,7.67-5.71,15.81-7.99,23.72,2.39-3.68,4.66-7.43,6.81-11.26,1.19-3.77,2.53-7.44,4.26-10.88.99-1.91,2.14-3.75,3.5-5.28.12-.01.25-.04.37-.06,1.28-2.86,2.49-5.75,3.63-8.67-1.64.54-3.26,1.05-5.44,1.73ZM381.2,111.1c2.41.03,3.83.05,5.95.07,2.22,3.98,4.38,12.06,6.21,18.94,2.39,8.98,4.7,17.61,7.75,22.57-1.37.54-2.33,1.87-2.29,3.43.01.57.17,1.1.42,1.58-.26.23-.53.46-.78.69-3.33,3.24-5.96,6.88-8.5,10.55-2.53,3.68-4.89,7.43-7.26,11.17-2.36,3.74-4.71,7.48-7.19,11.1-2.22,3.17-4.53,6.44-7.26,8.87,0,0,0,0,0,0-2.74-.09-4.3-.14-6.69-.22-.69-1.01-1.3-2.19-1.82-3.37-1.7-3.93-2.89-8.21-4.03-12.48l-3.28-12.95c-1.15-4.27-2.22-8.56-4.14-12.77,1.4-.45,2.44-1.73,2.5-3.29.03-.98-.33-1.87-.93-2.54,3.93-3.91,8.75-10.95,14.9-20.26,5.15-7.8,11.21-16.97,15.73-21.17.24.05.48.08.73.08ZM357.46,205.74c-.57.59-1.11,1.2-1.63,1.81-1.43,1.73-2.71,3.54-3.94,5.36-4.87,7.32-9,14.98-13.66,22.27-2.25,3.45-4.58,6.97-7.4,9.69l-7.3-.42c-.5-.63-.98-1.3-1.41-1.99-2.19-3.58-3.86-7.61-5.47-11.63-1.59-4.04-3.07-8.15-4.61-12.25-.55-1.45-1.11-2.9-1.68-4.35-.12-.31-.24-.61-.36-.9-.15-.36-.29-.73-.44-1.09-1.3-3.18-2.59-5.97-3.92-8.12,1.22-.54,2.09-1.73,2.15-3.14.04-.89-.26-1.71-.77-2.36,3.26-2.87,6.86-7.39,10.63-12.58.04-.06.09-.12.13-.18.69-.96,1.39-1.93,2.1-2.92,3.18-4.45,6.27-8.94,9.48-13.32,2.63-3.57,5.31-7.14,8.35-10.22.44-.43.9-.87,1.38-1.28.2.04.4.08.61.08l5.73.2c.15.27.3.54.43.82,1.76,3.86,2.85,8.22,3.96,12.49l3.21,12.98c1.14,4.33,2.3,8.67,4.1,12.92.4.88.83,1.78,1.32,2.66-1.06.6-1.8,1.71-1.85,3.01-.03.94.3,1.8.87,2.47ZM254.87,248.55c-3.51,4.48-6.8,12.14-10.23,20.08-2.63,6.11-5.73,13.26-8.37,16.83-2.3-.13-3.7-.21-6.19-.38-.05,0-.11,0-.16,0-.01-.01-.02-.03-.03-.04-.62-.82-1.21-1.68-1.76-2.57,0,0,0,0,0,0-.45-.73-.88-1.48-1.3-2.24-.2-.36-.4-.73-.6-1.11-.89-1.69-1.73-3.42-2.55-5.14-3.63-7.79-6.7-15.86-10.4-23.75-.77-1.61-1.6-3.21-2.53-4.8.91-.56,1.56-1.53,1.69-2.68.15-1.39-.52-2.67-1.61-3.39,2.55-3.38,5.64-8.9,9.7-16.23,4.08-7.36,9.28-16.74,13.08-20.94,2.26.16,3.59.25,5.66.38,2.03,3.76,4.36,10.89,6.21,16.54,2.96,9.09,6,18.35,9.63,23.55-.97.64-1.64,1.73-1.65,2.98-.01,1.18.55,2.23,1.42,2.9ZM200.65,244.61c-.59.82-1.12,1.65-1.66,2.47-1.16,1.87-2.22,3.78-3.25,5.69-4.09,7.64-7.66,15.48-11.97,22.77-1.08,1.81-2.22,3.58-3.49,5.16-.19.24-.4.48-.61.72-2.07-.12-3.44-.19-5.51-.29-.37-.52-.73-1.06-1.06-1.64-1.02-1.77-1.9-3.68-2.74-5.61-3.33-7.78-5.97-15.95-9.58-23.82-.91-1.97-1.89-3.92-3.04-5.82-.6-.97-1.24-1.94-1.97-2.86.67-.65,1.09-1.57,1.09-2.58,0-1.08-.49-2.04-1.24-2.71,4.21-4.49,8.61-12.31,13.18-20.45,3.62-6.45,7.9-13.99,11.24-17.67,2.42.12,3.79.2,5.94.34,2.53,4.38,5.46,13.47,7.76,20.62,2.82,8.76,5.07,15.51,7.27,19.64-.98.55-1.69,1.54-1.82,2.75-.14,1.33.46,2.55,1.47,3.28ZM123.78,191.23c5.55-4.38,11.32-12.68,16.97-20.81,5.07-7.3,10.26-14.76,14.66-18.37.31.09.64.16.98.16,3.04.04,4.67.06,7.33.1,3.15,4.36,6.04,13.64,8.49,21.49,2.37,7.62,4.3,13.56,6.32,17.33-1.15.55-1.96,1.68-2.03,3.05-.06,1.13.42,2.16,1.21,2.86-3.06,3.58-6.55,9.61-10.96,17.45-4.25,7.57-9.27,16.49-13.52,20.7h-8.41c-3.48-3.76-7.02-11.34-10.47-18.75-3.75-8.04-7.36-15.77-11.38-20.31.86-.65,1.44-1.67,1.45-2.84,0-.76-.23-1.47-.62-2.06ZM167.62,146.77c.64-.59,1.25-1.19,1.83-1.8,3.09-3.32,5.68-6.91,8.24-10.5,5.09-7.19,9.76-14.65,15.12-21.45,1.35-1.69,2.75-3.32,4.26-4.75.25-.24.52-.48.79-.71.04,0,.08.01.12.01,2.54.05,4.04.08,6.16.14.26.43.51.89.74,1.36.9,1.86,1.62,3.91,2.26,5.98,2.56,8.32,4.17,17.04,6.7,25.63.65,2.15,1.35,4.3,2.31,6.42.04.09.09.17.13.25-1.21.52-2.11,1.68-2.19,3.09-.06,1.03.32,1.98.97,2.68-3.71,3.77-8.28,10.46-14.11,19.3-4.54,6.88-9.87,14.95-13.7,18.76,0,0,0,0,0,0-2.49-.16-3.87-.24-6.22-.37-2.27-3.85-4.6-11.32-6.58-17.69-2.61-8.37-5.12-16.42-8.21-21.2,1.13-.59,1.93-1.76,1.95-3.13.01-.74-.2-1.43-.57-2.01ZM195.96,218.22c-2.9-9.01-5.21-15.93-7.48-20.16,1.19-.52,2.06-1.67,2.15-3.06.07-1.1-.37-2.1-1.1-2.81,3.52-3.69,7.86-10.09,13.4-18.49,4.73-7.17,10.24-15.6,14.27-19.5.1.01.19.04.29.05l5.43.34c1.77,4.27,3.39,12.99,4.57,19.33,1.78,9.57,3.25,16.85,5.14,21.27-1.33.45-2.32,1.67-2.42,3.16-.08,1.15.39,2.19,1.18,2.91-3.48,4.02-7.62,11.21-12.9,20.75-3.05,5.5-7.22,13.03-10.07,16.69l-4.99-.54c-2.45-4.43-5.34-13.39-7.45-19.93ZM227.48,148.91c.25-.24.51-.48.76-.73,1.61-1.64,3.05-3.37,4.45-5.13,5.54-7.05,10.43-14.46,15.72-21.55,2.64-3.53,5.35-7.04,8.38-10.13.7-.7,1.44-1.39,2.19-2.01.28.08.58.14.88.15,2.52.07,4.01.11,6.19.17.09.17.18.34.27.51,1.97,4.26,3.42,12.28,4.65,19.13,1.49,8.28,2.86,15.83,5.06,20.45-1.51.42-2.63,1.79-2.65,3.43,0,.72.21,1.38.56,1.95-5.46,4.49-11.81,13.26-18.42,22.39-4.77,6.58-10.38,14.28-14.36,17.96-.13-.02-.25-.05-.38-.06-2.35-.14-3.68-.23-5.7-.37-2.13-4.54-3.91-14.1-5.3-21.59-1.55-8.35-2.83-14.82-4.39-18.89,1.53-.34,2.72-1.65,2.82-3.3.05-.89-.23-1.72-.73-2.38ZM247.69,218.4c-2.31-7.07-4.12-12.46-5.88-15.97,1.3-.48,2.27-1.69,2.36-3.16.06-.97-.28-1.86-.86-2.55,3.68-3.53,8.26-9.71,14.11-17.79,5.98-8.27,13.02-17.99,18.41-22.29.36.12.73.21,1.13.21,1.87.01,3.22.02,4.66.02h1.83c2.29,4.09,4.09,12.51,5.61,19.66,1.72,8.11,3.39,15.91,5.89,20.67-1.27.52-2.2,1.74-2.26,3.2-.03.96.32,1.83.9,2.5-4.26,4.14-8.98,11.56-14.16,19.7-4.74,7.45-9.93,15.6-14.11,19.54-.04,0-.08-.01-.13-.01-3.11-.02-4.79,0-7.68-.03-3.63-4.72-7.1-15.36-9.82-23.69ZM267.64,243.11c4.24-4.27,8.92-11.61,13.78-19.25,4.83-7.6,10.1-15.91,14.33-19.79.14.02.28.05.43.06,2.81.1,4.37.16,6.89.26.03.05.07.09.1.13.07.1.13.19.2.3.17.26.32.53.48.79.11.19.22.36.32.55,0,.02.02.03.03.05.28.51.57,1.06.85,1.64.32.66.64,1.32.94,1.99.15.33.3.66.45,1.01.29.67.57,1.34.85,2.02.1.25.21.51.31.76.76,1.91,1.49,3.84,2.21,5.78,1.51,4.09,2.97,8.22,4.55,12.31,1.61,4.09,3.26,8.19,5.61,12.07.31.47.62.95.95,1.42-.79.61-1.33,1.54-1.4,2.61-.07,1.24.49,2.37,1.41,3.07-3.34,4.07-6.55,10.9-9.87,18.01-3.26,6.99-6.83,14.62-10.17,18.34h-.23c-2.78-.12-4.42-.18-7.43-.29-.24-.01-.47,0-.7.04-4.26-4.12-9.04-12.58-13.4-20.32-4.17-7.4-7.98-14.17-11.63-18.23.77-.66,1.27-1.62,1.27-2.71,0-1.05-.44-1.98-1.15-2.65ZM333.46,104.02c3.69-4.01,8.23-11.05,14.02-20.35,4.53-7.28,9.85-15.83,13.66-19.89.1,0,.19.03.29.03l5.27.02c2.01,4.07,4.28,12.41,5.93,18.49,2.68,9.88,4.85,17.38,7.22,21.82-1.3.52-2.2,1.83-2.22,3.32-.01.86.3,1.65.8,2.28-4.13,4-9.18,11.36-15.65,21.17-4.97,7.52-10.78,16.35-15.06,20.42-.14-.02-.28-.05-.42-.06l-5.98-.21c-2.18-4.48-3.85-14-5.14-21.45-1.51-8.65-2.75-15.3-4.4-19.43,1.6-.35,2.81-1.76,2.84-3.47.01-1.06-.43-2.01-1.15-2.68ZM329.28,110.23c1.86,4.2,3.39,12.92,4.58,19.77,1.66,9.53,3.05,16.78,4.95,21.16-1.47.42-2.54,1.72-2.6,3.32-.03.82.23,1.58.67,2.21-.33.31-.66.62-.98.93-3.22,3.31-5.9,6.93-8.54,10.56-5.1,7.04-9.83,14.31-15.09,21.12-1.19,1.52-2.35,2.94-3.47,4.22-.21.24-.42.47-.63.7-.8.88-1.58,1.69-2.33,2.38-.02.02-.05.05-.08.07-.26.24-.51.44-.76.66-.22-.05-.44-.09-.68-.1-2.79-.11-4.35-.18-6.87-.27-2.58-4.31-4.49-13.31-6.11-20.92-1.65-7.76-3.16-14.86-5.33-19.29,1.55-.4,2.7-1.79,2.71-3.46,0-.76-.23-1.46-.62-2.04,5.32-4.41,11.63-12.79,18.17-21.52,5.69-7.59,11.91-15.87,16.47-19.74.33.1.67.18,1.03.18,2.28.03,3.65.04,5.51.07ZM302.77,63.74h0l7.21-.02c3.04,4.44,5.51,14.16,7.59,22.38,1.9,7.47,3.44,13.3,5.18,17.02-1.46.45-2.53,1.78-2.55,3.39,0,.76.22,1.46.61,2.04-4.26,3.74-9.57,10.63-16.41,19.76-5.96,7.95-13,17.29-18.25,21.51-.32-.1-.66-.16-1.01-.17h-3.51c-.99-.01-1.95-.01-3.06-.02-2.33-4.24-3.94-13.18-5.3-20.73-1.4-7.78-2.68-14.89-4.68-19.34,1.49-.41,2.61-1.75,2.65-3.38.02-.86-.28-1.65-.77-2.29,4.34-4.01,9.3-11.23,14.73-19.14,5.58-8.14,11.71-17.05,16.65-21.16.29.08.6.13.92.13ZM247.4,56.74c3.6-4.17,7.29-11.31,11.31-19.12,3.83-7.42,8.02-15.55,11.68-19.47l7.81.08h.04s.01,0,.02,0c3.67,4.02,7.78,12.29,11.54,19.86,3.86,7.77,7.38,14.86,10.87,19.11-.92.65-1.52,1.72-1.52,2.93,0,.8.27,1.53.71,2.13-5.07,4.4-10.73,12.61-16.61,21.17-4.35,6.34-9.06,13.19-13.01,17.4-.47.49-.93.98-1.42,1.43-.13.12-.25.22-.37.33-.24-.06-.49-.09-.74-.1-2.68-.06-4.19-.1-6.54-.17-.29-.45-.57-.93-.83-1.42-.04-.07-.07-.14-.11-.22-.45-.88-.85-1.78-1.23-2.71-.03-.08-.06-.15-.1-.23-.39-.96-.75-1.93-1.1-2.91-2.89-8.24-4.88-16.84-7.89-25.24-.77-2.1-1.61-4.19-2.7-6.22-.14-.26-.31-.52-.46-.78,1.1-.6,1.87-1.75,1.9-3.09.02-1.11-.47-2.1-1.25-2.78ZM236.92,62.89s.09.02.14.02l6.91.13c.35.5.68,1.03.98,1.58,1,1.84,1.82,3.84,2.58,5.87,2.52,6.87,4.39,14.03,6.69,21.14.34,1.07.68,2.11,1.03,3.11.11.31.2.61.3.92.08.23.18.46.27.69.25.69.51,1.35.77,1.99.1.25.2.5.31.75.39.94.8,1.81,1.21,2.61.03.07.06.14.09.2.05.09.11.19.16.28.07.14.15.29.22.42-1.27.53-2.18,1.76-2.22,3.22-.02.8.22,1.53.64,2.14-.66.57-1.29,1.15-1.9,1.75-3.21,3.24-5.96,6.78-8.66,10.34-5.38,7.12-10.32,14.52-15.79,21.39-1.37,1.71-2.79,3.37-4.29,4.89-.41.41-.84.81-1.27,1.19-.09-.01-.17-.04-.26-.04l-5.62-.35c-.21-.38-.4-.77-.58-1.17-.86-1.91-1.53-3.99-2.14-6.08-2.43-8.41-3.99-17.13-6.57-25.7-.66-2.15-1.38-4.29-2.39-6.4-.06-.13-.14-.26-.21-.39,1.2-.56,2.05-1.75,2.09-3.17.02-.88-.28-1.68-.79-2.32.49-.5.97-1.01,1.44-1.52,2.97-3.41,5.43-7.08,7.87-10.74,4.86-7.33,9.31-14.91,14.56-21.79,1.32-1.7,2.71-3.35,4.22-4.76.07-.07.15-.13.22-.2ZM181.59,56.05c3.88-4.38,7.72-11.93,11.69-19.77,3.65-7.2,7.64-15.07,11.19-18.92l7.77.07h.04s.05,0,.08,0c3.72,4.04,7.91,12.41,11.74,20.05,3.87,7.7,7.4,14.74,10.86,18.97-.85.65-1.41,1.65-1.43,2.8-.02.93.33,1.77.89,2.42-1.48,1.44-2.81,2.97-4.05,4.54-5.46,7.07-9.94,14.63-14.8,21.87-2.43,3.61-4.89,7.21-7.69,10.38-.65.72-1.34,1.43-2.04,2.07-2.62-.07-4.15-.1-6.51-.15-2.29-3.13-3.89-7.12-5.45-10.96-1.59-4.02-3.06-8.12-4.63-12.2-1.58-4.08-3.19-8.16-5.33-12.12-.7-1.25-1.45-2.49-2.34-3.68.75-.66,1.23-1.62,1.23-2.7,0-1.07-.47-2.01-1.21-2.67ZM141.08,103.77c0-.56-.15-1.08-.38-1.56.57-.48,1.12-.97,1.64-1.47,3.21-3.18,5.76-6.73,8.23-10.31,2.45-3.59,4.76-7.24,7.08-10.87,2.32-3.62,4.64-7.23,7.17-10.64,1.26-1.7,2.57-3.35,4-4.83.6-.62,1.23-1.21,1.88-1.74.04,0,.08.01.12.01h.02c3.03-.02,4.69-.03,7.32-.03,1.1,1.21,2.1,2.8,2.94,4.31,2.02,3.67,3.64,7.68,5.22,11.7,1.57,4.03,3.07,8.12,4.71,12.2.82,2.04,1.68,4.07,2.64,6.09.71,1.46,1.46,2.91,2.38,4.32-.95.63-1.58,1.7-1.6,2.93-.02.79.23,1.52.65,2.12-.02.02-.05.04-.08.07-1.69,1.59-3.17,3.3-4.57,5.04-5.57,7-10.27,14.43-15.35,21.52-2.53,3.53-5.12,7.03-8.01,10.11-.81.85-1.66,1.66-2.53,2.38-2.66-.04-4.25-.07-6.71-.1-1-1.23-1.87-2.75-2.65-4.29-.94-1.88-1.78-3.86-2.59-5.85-1.6-4-3.06-8.09-4.62-12.17-1.58-4.08-3.19-8.16-5.36-12.11-.8-1.42-1.67-2.83-2.73-4.15.73-.66,1.19-1.61,1.18-2.68ZM101.67,170.22c-3.05-7.49-6-14.69-9.6-19.03.92-.65,1.53-1.72,1.53-2.93,0-.44-.09-.86-.23-1.25.01,0,.03-.02.04-.03,1.84-1.37,3.45-2.91,4.96-4.5,5.99-6.43,10.78-13.57,15.93-20.4,2.56-3.41,5.17-6.8,8.01-9.87,1.42-1.53,2.92-2.98,4.51-4.21.26-.2.54-.38.81-.57.15.02.31.05.47.05h.03l8.07-.06c1.33,1.32,2.45,3.05,3.46,4.84,2.02,3.65,3.63,7.64,5.19,11.66,1.56,4.03,3.02,8.13,4.67,12.21.83,2.04,1.7,4.08,2.71,6.09.61,1.18,1.27,2.37,2.04,3.52-.87.64-1.45,1.65-1.47,2.83,0,.78.23,1.49.64,2.09-4.49,3.86-9.34,10.8-14.64,18.43-5.54,7.98-11.61,16.73-17,20.73-.32-.09-.64-.16-.99-.17l-9.14-.09c-3.71-3.87-6.91-11.69-10.03-19.34ZM111.74,280.04l-8.86-.14c-.75-.63-1.47-1.36-2.15-2.14-2.58-3-4.71-6.57-6.75-10.16-4.1-7.2-7.63-14.8-12.58-21.82-1.24-1.71-2.58-3.39-4.19-4.9.44-.6.7-1.32.7-2.12,0-.78-.25-1.49-.67-2.08,5.42-4.24,10.93-12.09,16.63-20.29,5.51-7.92,11.14-16.04,16.28-19.82.34.11.71.19,1.09.2l9.18.09c4.14,4.13,8.15,12.73,11.8,20.57,3.41,7.31,6.69,14.36,10.23,18.58-.81.66-1.35,1.66-1.35,2.79,0,.7.21,1.35.55,1.9-.51.47-1,.95-1.47,1.43-3.05,3.24-5.48,6.8-7.87,10.34-2.37,3.55-4.61,7.15-6.9,10.68-2.29,3.53-4.61,7.02-7.14,10.27-1.27,1.62-2.59,3.18-4.02,4.58-.77.75-1.58,1.45-2.41,2.05-.04,0-.07-.01-.11-.01ZM141.5,326.03c-.16-.02-.33-.05-.5-.05-3.17-.01-4.88-.03-7.81-.08-3.07-3.79-6.1-11.33-8.86-18.23-3.24-8.08-6.55-16.33-10.53-21.11.88-.64,1.47-1.67,1.49-2.85,0-.62-.15-1.2-.42-1.72.61-.51,1.2-1.03,1.76-1.57,1.58-1.56,2.98-3.22,4.31-4.92,2.64-3.41,4.98-6.97,7.28-10.53,2.3-3.57,4.53-7.16,6.85-10.66,2.33-3.49,4.72-6.96,7.49-9.92.67-.7,1.37-1.38,2.1-1.98.02,0,.04,0,.07,0h7.72c.95,1,1.82,2.23,2.6,3.49,1.07,1.74,2.02,3.59,2.91,5.49,3.55,7.62,6.23,15.74,9.68,23.69.87,1.99,1.8,3.97,2.93,5.91.15.26.32.51.48.77-.9.61-1.53,1.6-1.59,2.77-.05,1.02.33,1.96.98,2.64-3.88,3.89-8.27,10.62-13.11,17.97-5.3,8.05-11.11,16.82-15.82,20.9ZM196.82,333.47c-.23.22-.46.43-.68.64-1.58,1.61-2.96,3.33-4.29,5.08-5.23,7.03-9.61,14.49-14.51,21.51-2.45,3.49-5,6.95-7.97,9.79-.43.41-.88.79-1.33,1.15-.08,0-.16-.03-.24-.03l-8.26-.05c-2.37-2.72-3.97-6.45-5.45-10.05-1.56-3.93-2.91-7.99-4.3-12.05-1.39-4.06-2.76-8.15-4.53-12.17-.71-1.57-1.46-3.13-2.43-4.65,1.04-.63,1.74-1.76,1.74-3.06,0-.91-.34-1.74-.9-2.37,4.8-4.42,10.09-12.46,15.59-20.81,4.55-6.92,9.51-14.51,13.34-18.17.09.01.17.03.25.04,2.66.13,4.09.2,6.52.34,2.48,3.8,5.29,11.11,7.69,17.35,3.39,8.82,6.66,17.3,10.32,22.18-.87.63-1.46,1.61-1.51,2.76-.04.98.32,1.88.92,2.55ZM207.53,327.78l-7.71-.31c-3.7-4.52-7.41-14.16-10.55-22.33-2.85-7.42-5.15-13.22-7.37-16.9,1.07-.57,1.83-1.66,1.91-2.95.07-1.15-.42-2.19-1.22-2.9,1.37-1.74,2.52-3.55,3.6-5.38,4.39-7.53,7.91-15.39,11.91-22.96,1-1.89,2.02-3.76,3.12-5.55.66-1.06,1.37-2.13,2.12-3.08l4.7.51c1.08,1.69,2.02,3.54,2.93,5.41,3.68,7.72,6.81,15.81,10.53,23.67,1.05,2.17,2.12,4.35,3.31,6.47.94,1.7,1.86,3.19,2.76,4.41-.76.61-1.28,1.52-1.35,2.57-.08,1.31.55,2.49,1.55,3.18-2.91,3.78-5.88,9.9-9.12,16.62-3.44,7.14-7.47,15.57-11.14,19.52ZM255.72,352.7c-3.2,7.47-6.71,15.64-10.5,19.58l-9.04-.06h-.03c-.18,0-.34.03-.51.05-4.86-4.18-9.98-13.11-14.64-21.26-2.64-4.62-5.14-8.97-7.54-12.51-.11-.16-.2-.32-.31-.48-.95-1.36-1.93-2.71-3.06-3.98.68-.63,1.13-1.51,1.17-2.51.05-1.18-.49-2.24-1.34-2.93,3.64-4.29,7.17-11.67,10.86-19.33,2.97-6.16,6.45-13.38,9.4-16.95,2.44.16,3.87.24,6.53.39.07,0,.14,0,.2,0,.09,0,.17-.02.25-.02,3.32,3.64,7.46,10.49,11.26,16.77,5.2,8.59,10.2,16.84,14.93,21.32-.51.62-.83,1.4-.84,2.26,0,1.24.61,2.34,1.56,2.99-2.88,3.85-5.51,9.97-8.38,16.67ZM273.65,329.48l-7.48-.03h-.02c-.23,0-.45.03-.67.07-4.72-4.25-10.3-13.46-15.03-21.27-4.45-7.35-7.97-13.04-11.02-16.55.63-.61,1.05-1.45,1.1-2.39.08-1.39-.66-2.63-1.78-3.29,2.39-3.52,4.91-9.18,8.05-16.45,3.2-7.41,6.97-16.12,10.51-20.26,2.97.03,4.66.01,7.81.03,3.7,3.82,8.03,11.48,11.99,18.5,4.57,8.12,8.97,15.91,13.31,20.33-.53.61-.87,1.4-.9,2.28-.04,1.26.57,2.39,1.52,3.06-.02.03-.04.06-.07.08-.24.32-.49.66-.73,1.01-.09.13-.19.27-.28.4-.09.14-.19.3-.28.44-.55.86-1.06,1.74-1.53,2.64-.16.3-.32.61-.47.92-.05.09-.09.18-.14.27-1.89,3.76-3.68,8.24-5.52,12.85-2.61,6.55-5.47,13.71-8.36,17.34ZM325.87,354.95c-2.57,6.66-5.39,13.94-8.6,17.6l-8.52-.09h-.04c-.33,0-.65.06-.95.14-5.21-3.95-11.17-12.3-16.62-19.92-5.09-7.13-9.72-13.66-13.96-17.44.45-.6.72-1.33.73-2.14,0-1.3-.69-2.44-1.72-3.08,2.79-3.93,5.29-10.18,8.01-17.02,1.6-4.01,3.28-8.22,5.03-11.83.31-.63.62-1.26.95-1.88.08-.15.16-.32.24-.47.92-1.68,1.96-3.25,3.15-4.63,2.63.09,4.24.15,6.81.26l.84.03s.1,0,.14,0c.32,0,.63-.06.92-.13.31.26.61.52.91.78,3,2.81,5.6,6.19,8.12,9.59,5.03,6.84,9.63,14.05,14.97,20.82,1.35,1.69,2.75,3.35,4.28,4.93.78.79,1.59,1.57,2.46,2.3-.24.47-.4,1-.42,1.56-.04,1.29.61,2.43,1.6,3.1-3.13,4.05-5.69,10.66-8.33,17.51ZM357.51,299c-1.03,1.94-1.9,3.93-2.7,5.92-1.61,3.98-3.01,7.99-4.48,11.95-1.48,3.94-2.98,7.91-4.98,11.46-.56.97-1.18,1.92-1.86,2.74l-7.17-.22c-.39-.02-.77.04-1.13.14-2.49-1.94-4.71-4.55-6.81-7.11-5.26-6.58-9.9-13.76-15.03-20.66-2.59-3.44-5.23-6.87-8.49-9.9-.17-.14-.34-.29-.51-.43.36-.54.59-1.17.62-1.87.05-1.29-.59-2.44-1.58-3.12,3.32-4.12,6.5-10.94,9.8-18,3.24-6.95,6.81-14.57,10.1-18.25l7.63.44c.07,0,.14,0,.21,0,.03,0,.06,0,.09,0,3.74,3.87,8.19,11.33,12.26,18.17,5.03,8.45,9.88,16.58,14.55,21.03-.45.57-.74,1.28-.76,2.06-.05,1.34.65,2.52,1.71,3.18-.54.81-1.01,1.63-1.47,2.45ZM376.82,273.02c-2.66,6.48-5.57,13.55-8.47,17.11-2.72-.08-4.36-.14-7.35-.25-.34-.01-.67.04-.99.12-4.56-4.16-9.76-12.95-14.52-20.94-4.32-7.24-8.26-13.87-11.94-17.91.67-.61,1.11-1.47,1.17-2.45.06-1.13-.41-2.16-1.2-2.87,2.75-2.86,4.86-6.04,6.96-9.2,4.76-7.37,8.95-15.01,13.75-22.14,1.21-1.77,2.45-3.51,3.8-5.11.7-.83,1.45-1.65,2.22-2.37,2.6.1,4.15.15,6.5.22,1.05,1.37,1.96,2.97,2.81,4.59,3.81,7.59,6.68,15.79,10.24,23.72,1.8,3.97,3.65,7.94,6.36,11.63.18.24.38.47.57.7-.72.68-1.17,1.63-1.14,2.7.02,1.06.51,1.99,1.25,2.63-3.75,4.56-6.92,12.25-10.02,19.8ZM397.67,246.17c-.1,0-.2,0-.3.01-3.14.45-4.77.61-7.26.69-.49-.49-.97-1.05-1.4-1.62-2.42-3.24-4.28-7.12-6.06-10.98-3.55-7.78-6.44-15.93-10.44-23.81-.67-1.26-1.37-2.51-2.18-3.73.99-.62,1.67-1.69,1.71-2.95.03-.86-.26-1.65-.74-2.28,1.05-1.02,2-2.1,2.91-3.19,1.44-1.76,2.77-3.58,4.05-5.42,2.55-3.68,4.94-7.43,7.32-11.16,2.38-3.73,4.76-7.44,7.25-11.03,2.5-3.57,5.11-7.1,8.13-10,.41-.39.84-.76,1.28-1.12.16.02.32.05.48.05.03,0,.05,0,.08,0,2.72-.06,4.46-.17,6.95-.48.06.07.13.13.19.2,2.6,3.02,4.48,7.07,6.38,10.95,1.88,3.94,3.68,7.96,5.75,11.91,1.04,1.97,2.15,3.93,3.43,5.81,1.18,1.71,2.51,3.4,4.25,4.84-.88.95-1.23,2.34-.76,3.64.05.15.15.27.22.41-2.01,2.01-3.7,4.25-5.31,6.49-4.96,7.14-8.86,14.78-12.9,22.31-2.01,3.77-4.02,7.53-6.18,11.16-2.03,3.35-4.19,6.71-6.82,9.3Z"/>
    </g>
  </g>
  <g>
    <path class="cls-1" d="M125.08,485.09c-6.05,0-9.86-.14-17.21-.65v-53.5c7.78-.5,11.59-.65,17.35-.65,15.77,0,24.91,2.81,24.91,15.05v.65c0,4.54-1.87,8.78-6.26,11.02,4.75,2.16,6.55,6.7,6.55,10.95v.79c0,13.61-10.37,16.35-25.35,16.35ZM137.25,445.85c0-5.26-3.74-5.9-10.94-5.9-2.02,0-3.38,0-5.47.07v12.89h7.42c7.34,0,9-2.3,9-6.48v-.58ZM137.4,467.88c0-4.32-1.94-6.7-9.07-6.7h-7.49v14.18c1.94.07,3.31.07,5.33.07,7.63,0,11.23-1.08,11.23-6.77v-.79Z"/>
    <path class="cls-1" d="M185.13,484.73c-3.46,10.87-7.42,15.27-17.14,15.27-4.46,0-8.79-.36-11.59-.94v-7.99c3.53.14,5.26.14,7.78.14,3.02,0,4.46-1.15,5.54-4.97l.65-2.23-14.91-40.61h13.46l6.05,21.1c1.01,3.46,1.58,7.13,2.59,10.87.72-3.74,1.44-7.27,2.38-10.94l5.47-21.03h12.75l-13.03,41.33Z"/>
    <path class="cls-1" d="M219.62,485.53c-12.6,0-18.29-6.62-18.29-19.3v-4.61c0-12.96,5.69-19.3,18.29-19.3,6.55,0,11.38,1.01,13.75,1.58v8.57c-5.47-.36-9-.58-11.38-.58-5.47,0-8.21,1.66-8.21,9.72v4.61c0,8.06,2.81,9.79,8.21,9.79,2.38,0,5.91-.22,11.38-.58v8.5c-2.38.58-7.2,1.58-13.75,1.58Z"/>
    <path class="cls-1" d="M264.26,484.45v-2.66c-2.66,1.8-7.42,3.74-12.89,3.74-7.78,0-12.02-3.96-12.02-11.74v-1.66c0-10.94,8.35-12.24,20.02-12.24h3.82v-2.23c0-5.04-1.08-6.05-7.56-6.05-3.67,0-8.64.22-13.25.72v-7.49c2.3-.86,8.93-2.52,15.84-2.52,12.82,0,17.5,4.18,17.5,15.34v26.79h-11.45ZM263.61,466.37h-4.18c-5.69,0-8.14.65-8.14,5.33v1.66c0,3.24,1.94,4.18,4.68,4.18,3.24,0,6.41-1.22,7.63-1.94v-9.22Z"/>
    <path class="cls-1" d="M300.26,485.53c-8.71,0-12.53-3.46-12.53-12.53v-20.67l-7.13-.65v-8.28h7.13v-10.37h12.53v10.37h9.22v8.93h-9.22v20.52c0,3.38.22,4.1,3.38,4.1,1.94,0,4.75-.14,5.76-.29v7.7c-1.08.29-4.97,1.15-9.14,1.15Z"/>
    <path class="cls-1" d="M332.23,485.53c-12.6,0-18.29-6.62-18.29-19.3v-4.61c0-12.96,5.69-19.3,18.29-19.3,6.55,0,11.38,1.01,13.75,1.58v8.57c-5.47-.36-9-.58-11.38-.58-5.47,0-8.21,1.66-8.21,9.72v4.61c0,8.06,2.81,9.79,8.21,9.79,2.38,0,5.9-.22,11.38-.58v8.5c-2.38.58-7.2,1.58-13.75,1.58Z"/>
    <path class="cls-1" d="M380.03,484.45v-25.85c0-5.33-1.37-6.84-5.4-6.84-3.17,0-6.41,1.08-8.28,1.94v30.75h-12.53v-56.09h12.53v16.85c3.17-1.58,7.7-2.88,12.31-2.88,11.38,0,13.9,6.62,13.9,16.13v25.99h-12.53Z"/>
  </g>
</svg>