<?xml version="1.0" encoding="UTF-8"?>
<svg id="Layer_3" data-name="Layer 3" xmlns="http://www.w3.org/2000/svg" viewBox="0 0 500 500">
  <defs>
    <style>
      .cls-1 {
        fill: #1c2f5d;
      }

      .cls-2 {
        fill: #27b4e8;
      }
    </style>
  </defs>
  <g>
    <path class="cls-2" d="M91.76,174.96c3.86,2.84,8.52,4.37,13.31,4.37,4.75,0,9.38-1.51,13.21-4.31l36.65,37.88c-6.91,10.3-4.16,24.26,6.14,31.17,10.3,6.91,24.26,4.16,31.17-6.14,4.05-6.04,4.93-13.68,2.35-20.48l34.54-42.25c10.1,7.19,24.11,4.83,31.3-5.27,6.21-8.72,5.39-20.62-1.95-28.41l36.81-44.4c9.02,8.49,23.22,8.05,31.71-.97,1.43-1.52,2.64-3.23,3.59-5.08l28.78,17.16c-5.89,10.97-1.78,24.64,9.19,30.53,10.97,5.89,24.64,1.78,30.53-9.19,5.89-10.97,1.78-24.64-9.19-30.53-8.66-4.65-19.33-3.16-26.38,3.69l-30.71-18.31c2.03-12.24-6.24-23.81-18.48-25.84-12.24-2.03-23.81,6.24-25.84,18.48-.83,4.98.05,10.1,2.49,14.53l-37.89,45.71c-10.82-6.06-24.5-2.21-30.56,8.61-4.36,7.78-3.7,17.39,1.67,24.51l-33.28,40.71c-7.79-9.47-21.74-10.92-31.32-3.26l-36.45-37.66c7.35-9.99,5.21-24.04-4.78-31.39-9.99-7.35-24.04-5.21-31.39,4.78-7.35,9.99-5.21,24.04,4.78,31.39Z"/>
    <path class="cls-1" d="M226.66,202.28v204.99c7.66.88,15.44,1.39,23.34,1.39,2.29,0,4.56-.1,6.83-.17v-206.21h-30.17Z"/>
    <path class="cls-1" d="M393.98,348.17v-183.61h-30.17v208.92c10.87-7.45,20.97-15.93,30.17-25.31Z"/>
    <path class="cls-1" d="M295.24,126.16v277.34c10.39-2.38,20.47-5.55,30.17-9.47V126.16h-30.17Z"/>
    <path class="cls-1" d="M158.08,270.86v115.63c9.64,4.94,19.71,9.15,30.17,12.51v-128.14h-30.17Z"/>
    <path class="cls-1" d="M89.51,202.28v126.83c8.88,11.65,19.01,22.29,30.17,31.76v-158.58h-30.17Z"/>
    <path class="cls-1" d="M250,413.87c-114.1,0-206.93-92.83-206.93-206.93S135.9,0,250,0s206.93,92.83,206.93,206.93-92.83,206.93-206.93,206.93ZM250,10.41c-108.37,0-196.53,88.16-196.53,196.53s88.16,196.53,196.53,196.53,196.53-88.16,196.53-196.53S358.36,10.41,250,10.41Z"/>
  </g>
  <g>
    <path class="cls-1" d="M83.06,484.45v-53.5h13.54v43.42h20.95v10.08h-34.49Z"/>
    <path class="cls-1" d="M148.43,484.45v-2.66c-2.66,1.8-7.42,3.74-12.89,3.74-7.78,0-12.02-3.96-12.02-11.74v-1.66c0-10.94,8.35-12.24,20.02-12.24h3.82v-2.23c0-5.04-1.08-6.05-7.56-6.05-3.67,0-8.64.22-13.25.72v-7.49c2.3-.86,8.93-2.52,15.84-2.52,12.82,0,17.5,4.18,17.5,15.34v26.79h-11.45ZM147.78,466.38h-4.18c-5.69,0-8.14.65-8.14,5.33v1.66c0,3.24,1.94,4.18,4.68,4.18,3.24,0,6.41-1.22,7.63-1.94v-9.22Z"/>
    <path class="cls-1" d="M196.44,484.45v-25.99c0-4.97-.94-6.7-4.9-6.7-2.3,0-5.47.94-8.78,2.3v30.39h-12.53v-41.04h11.81v3.31c4.18-2.59,8.79-4.39,13.47-4.39,12.38,0,13.46,7.2,13.46,16.13v25.99h-12.53Z"/>
    <path class="cls-1" d="M245.18,484.45v-2.09c-2.81,1.73-6.7,3.17-11.59,3.17-9.79,0-15.55-5.98-15.55-18.87v-5.04c0-14.4,7.13-19.3,18.65-19.3,2.95,0,5.26.29,7.56.65v-14.62h12.53v56.09h-11.59ZM244.39,452.33c-2.23-.36-4.61-.58-6.19-.58-5.11,0-7.63,1.51-7.63,9.86v5.04c0,6.91,1.8,9.36,7.06,9.36,2.38,0,4.68-.58,6.77-1.44v-22.25Z"/>
    <path class="cls-1" d="M267.7,437.79v-9.43h13.03v9.43h-13.03ZM267.92,484.45v-41.04h12.53v41.04h-12.53Z"/>
    <path class="cls-1" d="M317.74,484.45v-25.99c0-4.97-.94-6.7-4.9-6.7-2.3,0-5.47.94-8.78,2.3v30.39h-12.53v-41.04h11.81v3.31c4.18-2.59,8.79-4.39,13.47-4.39,12.38,0,13.46,7.2,13.46,16.13v25.99h-12.53Z"/>
    <path class="cls-1" d="M358.84,500c-7.85,0-15.55-1.3-16.99-1.66v-7.49c4.68.22,11.02.58,15.99.58,7.06,0,7.85-1.8,7.85-5.9v-1.37c-1.37.22-4.32.58-6.55.58-12.6,0-19.66-5.62-19.66-19.08v-4.18c0-13.25,6.55-19.15,21.89-19.15,5.98,0,12.03.5,16.85,1.08v42.12c0,9.15-4.32,14.47-19.37,14.47ZM365.75,452.12c-.79-.14-3.02-.36-5.62-.36-6.48,0-8.21,3.02-8.21,9.72v4.18c0,7.13,2.16,9.65,8.14,9.65,2.16,0,4.82-.22,5.69-.36v-22.83Z"/>
    <path class="cls-1" d="M402.46,485.46c-5.76,0-12.38-.94-14.69-1.58v-7.63c1.8.07,8.42.79,14.04.79,5.04,0,6.7-1.15,6.7-3.67s-1.3-2.95-6.48-4.9l-3.31-1.22c-7.63-2.95-11.59-6.48-11.59-13.25,0-9,6.41-11.67,16.92-11.67,6.05,0,11.95.86,14.55,1.66v7.85c-4.9-.43-9.07-.72-13.39-.72-4.03,0-6.05.14-6.05,2.59,0,2.16,1.3,2.66,5.62,4.32l3.6,1.3c9.15,3.31,12.24,6.62,12.24,13.11,0,8.78-5.76,13.03-18.15,13.03Z"/>
  </g>
</svg>