<?xml version="1.0" encoding="UTF-8"?>
<svg id="Layer_5" data-name="Layer 5" xmlns="http://www.w3.org/2000/svg" viewBox="0 0 500 500">
  <defs>
    <style>
      .cls-1 {
        fill: #1c2f5d;
      }

      .cls-2 {
        fill: #27b4e8;
      }
    </style>
  </defs>
  <g>
    <path class="cls-1" d="M250,413.87c-114.1,0-206.93-92.83-206.93-206.93S135.9,0,250,0s206.93,92.83,206.93,206.93-92.83,206.93-206.93,206.93ZM250,10.41c-108.37,0-196.53,88.16-196.53,196.53s88.16,196.53,196.53,196.53,196.53-88.16,196.53-196.53S358.37,10.41,250,10.41Z"/>
    <g>
      <path class="cls-1" d="M238.15,242.82l3.83-2.19s-.24-.78-4.57-2.16c-4.82-1.53-18.38.09-23.61,1.39-6.04,1.5-8.39,2.23-15.81-.77-.13-.05-.26-.1-.38-.16-.06-.26-.17-.63-.33-1.14-.41-1.26-1.81-1.03-3.08-2.33-1.26-1.3-1.04.1-1.38-1.06-.34-1.16-1.3-1.04-2.98-2.4-1.68-1.36-1.53-.65-1.44-1.24s-1.91-.96-3.75-1.83c-1.74-.82,2.54.08,3.01.18-.13-.06-.56-.31-2-1.23-2.27-1.44-2.65-1.16-3.38-2.03-.73-.88-1-1.34-3.27-2.19-2.27-.84-1.85-1.38-1.85-1.38,0,0-2.72-.65-4.14-2.06-1.42-1.4-.07-1.29-.07-1.29l-2.43-.35s-.79-.46-4.91-1.49c-4.12-1.03-.94-.57-.94-.57,0,0-1.59-.23-3.42-.58-1.83-.35.37-.8.37-.8,0,0-2.45-.19-4.3-.97-1.85-.78,1.25-1.53,1.25-1.53,0,0-2.57.05-3.99-.75-1.42-.81-.27-1.07-.27-1.07,0,0-3.12.31-4.47.2-.25-.02-.39-.09-.44-.2-.17-.34.58-1.05,1.11-1.5-1.72-.07-4.17.03-6.96.86-1.35.4-2.52.9-3.5,1.39-19.16-.79-37.29,10.32-39.05,12.64l-4.8,5.42c-.58.65,10.48,4.96,10.38,6.34-.07,1.03-10.55-5.36-10.37-4.73,1.66,5.63,5.36,17.07,35.5,26.42,1.51.47,3.32,1.15,5.47,1.9,3.42,2,6.93,3.99,10.15,6.03.05-.01,8.43-.12,8.48-.13.08-.02-3.49-1.12-3.41-1.14-1.55-.6-3.09-1.19-4.64-1.79,6.47,1.31,14.61,2,24.77.69.54.35,1.24.71,2.09.97,2.02.61,3.74.27,4.52.06-.41-.32-.82-.63-1.23-.95,2.54.3,4.24.01,5.35-.33.4-.12,1.24-.41,2.49-.66,1.28-.26,1.33-.14,2.36-.34,2.34-.45,4.39-1.49,4.41-1.49l1.89-.66c-1.3-.33-2.76-.81-4.31-1.48-.32-.14-.63-.28-.93-.43,6.09-2.78,11.9-5.46,17.29-4.53,6.2,1.07,15.4,7.43,19.56,8.84,8.98,3.05,9.25,1.22,9.25,1.22l-8.74-12.97,11.64-7.66ZM110.38,230.51c-1.86-.27-3.15-2-2.87-3.86.27-1.86,2-3.15,3.86-2.87,1.86.27,3.15,2,2.87,3.86s-2,3.15-3.86,2.87Z"/>
      <path class="cls-1" d="M111.01,225.71c-.78-.17-1.54.33-1.71,1.1-.17.78.33,1.54,1.1,1.71s1.54-.33,1.71-1.1c.17-.78-.33-1.54-1.1-1.71Z"/>
    </g>
    <g>
      <path class="cls-1" d="M156.71,118.43s.09-.1.14-.14l.15-.23c-.44.03-.82.44-.84.88-.02.44.29.87.71,1.02.43.15.95,0,1.21-.38.26-.38.2-.94-.15-1.24-.34-.3-.93-.26-1.22.09Z"/>
      <path class="cls-1" d="M369.41,142.83c-2.35-2.1-6.19-5.55-9.89-10.5-3.3-4.41-5.48-7.33-6.71-11.84-.43-1.59-.58-2.76-.86-13.33-.17-6.65-.26-9.97-.23-10.34.68-7.32,3.4-12.57,7.47-20.42,2.58-4.98,4.11-6.77,5.15-7.85,2.11-2.2,4.46-3.81,4.22-4.2-.23-.36-2.56.72-2.89.87-7.65,3.54-13.32,12.61-13.32,12.61-4.62,7.41-10.24,15.98-16.75,26.17-6.57.19-13.66.24-21.12.19.66-.37,1.33-.72,2.06-.92,1.67-.45,3.68-.1,4.96-1.28-2.96-.12-5.92-.24-8.89-.36-.76-.03-1.58-.08-2.16-.57-.58-.49-.68-1.58,0-1.92-1.39.69-5.82,2.79-5.65,4.77,0,.06.02.11.03.16-3.74-.06-7.55-.14-11.43-.23-1.71-.79-3.43-1.57-5.14-2.36-2.78-1.55-6.03-2.24-9.2-1.95-.46-1.09-2.09-1.45-2.97-.66-2.12-.56-4.25-1.12-6.37-1.67-1.7.75-3.66.45-5.5.13-1.95-.34-3.89-.67-5.84-1.01.05-.35.09-.71.14-1.06-.65.46-1.29.91-1.94,1.37-3.66-.49-7.32-.98-10.98-1.47-1.12.09-2.25.17-3.37.26-9.77.11-19.54.23-29.32.34-4.53.05-9.32.04-13.22-2.26.09-.42-.09-.89-.45-1.11-.43-.27-1.06-.15-1.36.25-.26-.66-.78-.5-.74-1.21-.62.07-.83-.75-1.44-.68.06-.65-.43-.67-.37-1.31-.68-.03-.81-.55-1.44-.29.34-.69.07-.79.02-1.57-.04-.77-.01-2.21-.79-2.18.69-.64.8-1.86.28-2.84-.44-.83,1.64-2.65.25-3.81,1.04-3.7,1.76-3.28,1.28-5.99-6.78.93-11.11,6.61-14.4,12.61-1.59,2.9-3.2,6.88-4.02,10.07-.39,1.53-2.19,4.14-2.43,6.08-6.62,2.3-13.89,8.45-19.87,11.02-17.78,7.62-38.73,9.83-58.05,8.85-.47,2.37,16.55,1.44,25.68.78,9.26-.67,18.17-2.84,27.13-.39-5.32,1.24-12.45,3.17-17.11,6.01,6.67-.25,14.49.21,20.59,1.22,6.93,1.15,12.78,3.18,18.67,5.09,2.3.75,7.62.99,13.6,1.01,8.42,5.42,18.13,8.59,28.13,9.17l.03-.46c-9.69-.56-19.09-3.57-27.31-8.71.9,0,1.81,0,2.72-.01.6.23,1.22.44,1.83.65.71.24,1.38.47,2.01.72,2.96,1.17,6,2.2,9.06,3.09,6.02,1.74,12.23,2.92,18.44,3.51l.04-.45c-6.18-.59-12.36-1.77-18.36-3.5-3.04-.88-6.08-1.91-9.02-3.07-.64-.25-1.31-.48-2.03-.73-.22-.08-.45-.15-.67-.23,7.96-.1,16-.45,19.13-.46,18.94-.07,33.1-1.07,46.53-3.15,1.41.53,3.26.63,4.6,1.2.94.4,5.79,2.52,5.85,3.64,3.85,3.12,7.16,6.93,11.42,9.46,1.05.62,2.5,1.11,3.38.27.68-.66.58-1.81.1-2.63-.48-.82-1.24-1.42-1.86-2.14-2.57-2.97-2.12-8.05.94-10.52.84-.68,1.82-1.17,2.57-1.94.75-.77,1.23-1.96.77-2.93-.04-.08-.08-.15-.13-.22,5.75-1.46,11.83-3.12,18.49-4.98,1.09.68,2.69,1.02,3.74,1.54,1.79.87,3.5,1.9,5.11,3.08-.79-.47-.87-1.66-.4-2.45.47-.79,1.32-1.26,2.15-1.66,3.13-1.49,6.53-2.43,9.98-2.74-2.62-.7-5.4-.84-8.08-.41.06-.29-.04-.58-.22-.82,6.43-1.7,22.63-3.89,22.63-3.89,1.82,2.18,4.58,5.49,7.92,9.56,6.04,7.37,6.22,7.74,7.43,9.13,9.61,11.05,23.14,16.12,23.49,15.56.14-.22-1.79-1.29-5.73-4.8ZM159.77,119.43c-.35.99-1.35,1.71-2.4,1.79-1.05.08-2.18-.51-2.52-1.51-.48-1.43.61-3.31,2.1-3.5,1.84-.23,3.48,1.32,2.81,3.21ZM161.26,119.31l-.45-.08c.18-1.01-.13-2.11-.82-2.88-.68-.76-1.75-1.2-2.77-1.13l-.03-.46c1.15-.07,2.36.42,3.14,1.28.78.87,1.13,2.12.93,3.26Z"/>
    </g>
    <g>
      <path class="cls-1" d="M380.44,271.21h0s2.63-7.53,4.69-10.71c2.06-3.18,1.52-6.62,1.52-6.62,0,0-.81,3.63-2.04,5.34-1.24,1.71-3.95,2.66-3.95,2.66.31-1.11.69-3.1.27-5.5-.59-3.33-2.37-5.5-3.18-6.38-.03.51-.06.95-.11,1.28-.1.7-.29,1.53-.65,2.03-.73,1-2.49-5.06-2.49-5.06,0,0,.35,1.78-.76,3.31-.44.61-.76,1.18-1.11,1.54h0c-.65-.9-1.27-1.69-1.85-2.38l-.81-1.24c.34-4.78-.96-7.88-1.87-9.51-1.5-2.72-3.93-4.62-8.72-8.31-2.47-1.91-4.61-3.39-6.13-4.4l-.4,1.74-4.04.23,6.05,8.36.29.9-13.47-6.42-3.17.77-4.44-2.35c.06,1.18.12,2.35.19,3.53.85,1.01,2.17,2.58,3.78,4.52,5.3,6.41,6.25,7.81,8.39,9.73,1.62,1.45,4.13,3.39,7.79,5.11.27.32.54.65.81.97-.83,2.12-2,4.9-3.01,6.46-1.79,2.76-1.32,5.76-1.32,5.76,0,0,.7-3.16,1.78-4.64,1.07-1.49,3.43-2.32,3.43-2.32-.27.97-.6,2.69-.23,4.78.51,2.89,2.06,4.78,2.77,5.54.03-.44.05-.82.09-1.12.09-.61.25-1.33.57-1.76.27-.37.7.38,1.11,1.35,0,3.48-.81,7.38-3.33,10.99-3.43,4.89-8.3,6.77-10.34,7.42,0,0-23.81,8.98-34.6,7.5-3.15-.43-6.78-.41-10.87-.35,1.56-.98,2.83-2.02,3.82-2.93-6.93.07-13.87.14-20.8.2,1.8-1.5,4.57-3.6,8.26-5.58,6.44-3.46,11.76-4.94,11.76-4.94,0,0-2.18-.2-11.79,1.44,3.53-2.3,7.04-5.36,7.04-5.36,0,0-7.61,2.73-11.53,4.66-4.36,2.14-10.29,5.32-17.12,9.85-.03,0-.05-.01-.08-.02-13.18-1.56-23.92-1.18-31.61-.45-11.52,1.08-24.52,3.73-34.36,5.72-6.29,1.28-6.28,1.42-9.38,1.9-3.08.47-11.02,1.55-19.49,3.76-1.93.5-3.74,1.03-4.29,2.47-1.01,2.66,3.04,6.3,3.65,6.84,1.83,1.2,6.05,6.2,6.05,6.2l-13.86-4.01.09,3.37s8.87,6.71,13.29,8.51c25.19,10.26,53.32,14.41,53.32,14.41,2.54.37,5.01.74,7.42,1.08,3.56,5.71,14.63,23.24,17.22,24.67,3.1,1.71,8.52,1.96,8.52,1.96-4.53-4.58-5.43-5.83-5.26-6.02.21-.24,1.93,1.46,4.92,2.46,3.81,1.27,7.82.1,7.82.1,0,0-2.21-.78-5.26-2.58-2.41-1.41-4.09-3.06-5.17-4.26-1.7-1.51-3.44-3.14-5.18-4.93-3.35-3.42-6.21-6.86-8.66-10.16,13.44,1.75,24.98,2.66,35.57,1.57,3.82,3.51,7.17,6.34,8.37,6.68,3.4.97,8.74,0,8.74,0-5.45-3.45-6.6-4.47-6.48-4.69.15-.28,2.21.99,5.34,1.29,4,.38,7.65-1.66,7.65-1.66,0,0-2.33-.27-5.71-1.33-2.36-.74-4.2-1.78-5.51-2.66,1.59-.46,3.17-.98,4.74-1.57,2.46-.93,5.28-2.17,10.53-3.89,18.22-5.97,24.64-4.25,35.13-8.37,3.71-1.46,14.26-6.13,22.34-16.86,10.72-14.25,10.91-30.96,9.34-39.63ZM205.4,316.74c-3.27-.75-5.31-4.01-4.56-7.27.75-3.27,4.01-5.31,7.27-4.56,3.27.75,5.31,4.01,4.56,7.27-.75,3.27-4.01,5.31-7.27,4.56Z"/>
      <path class="cls-1" d="M207.93,307.99c-2.04-.47-4.06.8-4.53,2.84s.8,4.06,2.84,4.53c2.04.47,4.06-.8,4.53-2.84s-.8-4.06-2.84-4.53Z"/>
    </g>
    <g>
      <g>
        <polyline class="cls-2" points="245.64 174.71 248.85 165.22 249.69 164.04 251.38 165.22 259.31 155.26 261.68 155.26 264.88 152.56 264.88 153.74 268.26 152.56 266.06 155.09 266.4 157.63 268.26 157.96 268.26 162.35 269.44 162.02 268.26 165.22 269.44 165.22 269.44 167.75 270.29 167.75 269.27 170.12 271.3 170.12 271.3 173.74"/>
        <g>
          <polyline class="cls-2" points="343.44 191.26 348.51 191.26 347.83 192.44 346.14 192.44 345.64 194.13 329.43 199.87 310.86 222.66 306.98 222.66 294.31 214.39 294.31 216.41 291.28 216.58 290.44 219.29 283.78 214.1"/>
          <path class="cls-2" d="M383.39,200.65c-1.13-1-2.31-2.05-3.52-3.17-1.28-1.18-2.47-2.43-3.61-3.64-1.82-1.91-3.54-3.72-5.31-4.94l-.26-.18v-4.55l.09-.15c3.26-5.49,6.59-10.31,11.12-16.14,1.13-1.45,2.01-3.07,2.87-4.64.05-.09.1-.18.15-.27-4.2,1.84-9.3,4.78-15.2,8.77-6.81,4.61-12.15,9.05-15.85,13.18l-.16.18-.24.02c-1.53.14-2.88.12-4.19.1-1.28-.02-2.59-.04-4.04.09h-.15s-.14-.04-.14-.04c-31.61-12.9-56.34-13.95-64.47-14.29-9.52-.4-20.14.06-26.48.34-15.23.67-23.62,1.03-33.44,3.65-8.73,2.33-17.26,6-25.33,10.9l-.19.08c-1.06.23-2.1.56-3.1.98-2,.84-3.84,2.02-5.46,3.52l4.19,4.77-1.32.03c-2.31.06-5.08.55-5.36,1.16.05.26,1.04,1.54,2.14,2.64.43.24,1.14.7,1.99,1.26,2.63,1.72,6.6,4.32,12.09,7.08.08.03,10.27,4.6,18.5,7.19,19.32,6.07,38.37,4.18,46.5,3.37l3.41-.32c9.62-.88,21.6-1.97,36.2-7.02.18-.1,25.91-13.26,28.57-14.67,2.4-1.28,4.66-2.21,6.66-3.04,1.45-.6,2.69-1.11,3.62-1.61l.29-.08h12.34l1.22.81c.97.65,1.8,1.22,3.98,2.54,2.34,1.42,4.3,2.71,6.03,3.84,3.68,2.4,6.33,4.14,9.74,5.42,3.96,1.49,8.18,2.51,12.56,3.02-1.76-2.08-3.95-4.02-6.43-6.22ZM210.2,188.79c-1.86-4.94-6.46-4.46-7.82.86.78-6.13,6.46-6.73,7.82-.86ZM209.78,189.47c0,2.1-1.51,3.8-3.38,3.8s-3.38-1.7-3.38-3.8,1.51-3.8,3.38-3.8,3.38,1.7,3.38,3.8ZM202.76,192.67c-.21-.6-.35-1.24-.44-1.9,1.32,5.64,6.6,5.79,8.1.28-.75,5.33-5.87,6.4-7.66,1.63Z"/>
        </g>
      </g>
      <circle class="cls-2" cx="206.53" cy="189.84" r="1.46"/>
    </g>
  </g>
  <g>
    <path class="cls-1" d="M46.13,480.03v-23.99c0-2.86.06-5.07.26-7.87h-.13c-.98,2.21-2.08,4.29-3.12,6.18l-6.18,11.31h-7.08l-6.04-11.31c-1.04-1.89-2.15-4.1-3.12-6.18h-.13c.13,2.8.19,5.01.19,7.87v23.99h-11.7v-48.3h11.9l9.36,17.16c1.04,1.82,2.08,3.9,2.99,5.92h.13c.97-2.02,2.01-4.16,3.05-5.98l9.43-17.1h11.9v48.3h-11.7Z"/>
    <path class="cls-1" d="M65.76,437.91v-8.51h11.77v8.51h-11.77ZM65.95,480.03v-37.05h11.31v37.05h-11.31Z"/>
    <path class="cls-1" d="M101.25,453.05l6.57-10.08h11.57l-12.48,18.53,12.29,18.53h-12.55l-7.02-10.6-6.89,10.6h-11.57l12.87-19.05-11.96-18.01h12.55l6.63,10.08Z"/>
    <path class="cls-1" d="M131.6,464.56v.52c0,4.88.65,7.54,8.65,7.54,3.77,0,7.67-.26,13.91-.71v7.47c-2.86.72-8.06,1.62-14.43,1.62-13.58,0-19.31-4.75-19.31-18.33v-2.02c0-12.94,6.18-18.66,17.88-18.66,13.91,0,17.68,8.84,17.68,19.5v3.05h-24.38ZM144.86,457.86c0-4.09-.84-7.8-6.63-7.8s-6.57,3.77-6.57,7.8v.52h13.2v-.52Z"/>
    <path class="cls-1" d="M185.03,480.03v-1.88c-2.53,1.56-6.04,2.86-10.46,2.86-8.84,0-14.04-5.39-14.04-17.03v-4.55c0-13,6.44-17.42,16.84-17.42,2.67,0,4.75.26,6.83.58v-13.2h11.31v50.64h-10.47ZM184.32,451.04c-2.01-.33-4.16-.52-5.59-.52-4.62,0-6.89,1.36-6.89,8.91v4.55c0,6.24,1.62,8.45,6.37,8.45,2.15,0,4.23-.52,6.11-1.3v-20.09Z"/>
    <path class="cls-1" d="M218.25,480.03v-28.99l-6.24-.65v-7.41h6.24v-3.05c0-7.67,2.92-11.57,11.18-11.57,3.38,0,6.89.58,8.84,1.1v6.37c-1.69-.06-3.71-.19-5.33-.19-3.12,0-3.38,1.17-3.38,4.42v2.92h24.44v37.05h-11.31v-28.99h-13.13v28.99h-11.31ZM242.49,437.91v-8.51h11.77v8.51h-11.77Z"/>
    <path class="cls-1" d="M273.95,480.94c-5.2,0-11.18-.84-13.26-1.43v-6.89c1.62.06,7.61.71,12.67.71,4.55,0,6.05-1.04,6.05-3.32s-1.17-2.67-5.85-4.42l-2.99-1.1c-6.89-2.67-10.46-5.85-10.46-11.96,0-8.12,5.79-10.53,15.28-10.53,5.46,0,10.79.78,13.13,1.5v7.08c-4.42-.39-8.19-.65-12.09-.65-3.64,0-5.46.13-5.46,2.34,0,1.95,1.17,2.41,5.07,3.9l3.25,1.17c8.25,2.99,11.05,5.98,11.05,11.83,0,7.93-5.2,11.77-16.38,11.77Z"/>
    <path class="cls-1" d="M319.45,480.03v-23.34c0-4.81-1.24-6.17-4.88-6.17-2.86,0-5.79.97-7.48,1.75v27.76h-11.31v-50.64h11.31v15.21c2.86-1.43,6.96-2.6,11.12-2.6,10.27,0,12.55,5.98,12.55,14.56v23.47h-11.31Z"/>
    <path class="cls-1" d="M348.05,464.56v.52c0,4.88.65,7.54,8.65,7.54,3.77,0,7.67-.26,13.91-.71v7.47c-2.86.72-8.06,1.62-14.43,1.62-13.59,0-19.31-4.75-19.31-18.33v-2.02c0-12.94,6.18-18.66,17.88-18.66,13.91,0,17.68,8.84,17.68,19.5v3.05h-24.38ZM361.31,457.86c0-4.09-.84-7.8-6.63-7.8s-6.57,3.77-6.57,7.8v.52h13.2v-.52Z"/>
    <path class="cls-1" d="M389.65,453.18v26.85h-11.31v-37.05h10.53v3.06c3.64-3.32,8.19-4.03,12.22-4.03v9.49c-4.09,0-8.52.71-11.44,1.69Z"/>
    <path class="cls-1" d="M405.38,437.91v-8.51h11.77v8.51h-11.77ZM405.58,480.03v-37.05h11.31v37.05h-11.31Z"/>
    <path class="cls-1" d="M434.5,464.56v.52c0,4.88.65,7.54,8.65,7.54,3.77,0,7.67-.26,13.91-.71v7.47c-2.86.72-8.06,1.62-14.43,1.62-13.59,0-19.31-4.75-19.31-18.33v-2.02c0-12.94,6.18-18.66,17.88-18.66,13.91,0,17.68,8.84,17.68,19.5v3.05h-24.38ZM447.76,457.86c0-4.09-.84-7.8-6.63-7.8s-6.57,3.77-6.57,7.8v.52h13.2v-.52Z"/>
    <path class="cls-1" d="M476.94,480.94c-5.2,0-11.18-.84-13.26-1.43v-6.89c1.62.06,7.6.71,12.67.71,4.55,0,6.05-1.04,6.05-3.32s-1.17-2.67-5.85-4.42l-2.99-1.1c-6.89-2.67-10.46-5.85-10.46-11.96,0-8.12,5.79-10.53,15.28-10.53,5.46,0,10.79.78,13.13,1.5v7.08c-4.42-.39-8.19-.65-12.09-.65-3.64,0-5.46.13-5.46,2.34,0,1.95,1.17,2.41,5.07,3.9l3.25,1.17c8.25,2.99,11.05,5.98,11.05,11.83,0,7.93-5.2,11.77-16.38,11.77Z"/>
  </g>
</svg>