<?xml version="1.0" encoding="UTF-8"?>
<svg id="Layer_2" data-name="Layer 2" xmlns="http://www.w3.org/2000/svg" viewBox="0 0 500 500">
  <defs>
    <style>
      .cls-1 {
        fill: #1c2f5d;
      }

      .cls-2 {
        fill: #27b4e8;
      }
    </style>
  </defs>
  <g>
    <path class="cls-2" d="M274.72,147.09c-2.74-2.23-5.51-5.57-8.24-7.87-.23-.22-.37-.43-.45-.75-.19-1.22-.22-2.79.54-3.83,2.15-3.61,4.83-7.2,7.67-11,.44-.78,1.32-1.74,1.19-2.38-.08-.04-.24,0-.45.09-5.33,2.46-14.05,8.28-18.7,12.77-1.06.87-1.61,2.12-3.04,2.25-1.81.05-3.48.11-5.22,0-1.15-.3-1.86-.72-3.1-1.15-24.25-8.97-35.13-7.92-48.23-9.13-.3-.11-.62-.16-.8-.31-.33-.37.12-1.05-.04-1.44-.12-.38-.25-.98-.43-1.44-.14-.3-.33-.43-.38-.69-.1-.32.25-.99.28-1.45,0-.43-.38-.31-.5-.84-.12-.52.04-1.59-.14-2.04-.21-.55-.88-.5-1.17-1.15-.09-.22-.15-.51-.15-.75,0-.47.23-.89.58-1.28.35-.4.65-.76.43-.76-.25-.03-1.26.46-1.62.34-.36-.06-.39-.32-.8-.09-.3.17-.75.6-1.12.88-.62.69-1.89.39-2.41.76-1.31,1.49-4.19,5.29-5.14,6.38-.14.13-.31.16-.51.07-.59-.36-1.32-.32-1.53.47-.55.97-.81,3.5-1.78,4.13-3.23.49-6.48.38-9.58.85-8.95,1.04-17.33,4.11-25.26,8.76-2.01.91-4.28,1.44-5.96,2.95-.92.69-.22,1.12.73,2.25.66.78,1.34,1.41,1.13,1.56-1.08.28-3.77.26-4.08.88-.09.28.04.43.26.73,2.79,2.84,5.22,3.75,9.26,6.15,1.65.9,2.75,1.34,4.58,2.1,15.62,7.52,33.42,7.32,44.31,5.81,3.35-.21,7.65-.9,11.78-1.33.81.04,2.61,1.93,3.3,2.18.54.17.49-1.4,1.3-1.56.41-.12.95-.07,1.31-.29.53-.37.21-1.32.61-1.08,1.6,1.02,7.1,4.64,8.26,5.38.6.3,1.35.14,2.09.18.56-.03.74.04.97-.14,2.92-3.57,11.82-14.49,12.68-15.55.4-.35.74-.32,1.43-.61,2.5-.9,6.98-2.46,9.56-3.39.34-.08.45-.54.67-.84.5-.54,1.33-.68,1.81-1.15.99-.29,3.52-.09,4.72-.15,1.3.14,2.07,1.14,3.22,1.73,3.71,2.16,7.37,5.05,11.14,6.7,2.65,1.08,5.82,1.98,8.74,2.28.21,0,.33-.06.33-.17-.83-1.43-2.73-2.74-3.92-3.92l-.15-.13ZM154.7,138.91c-1.13-3.23-4.21-3.18-5.26.11-.04.1-.11.31-.14.42-.02.03.08-.52.14-.74.95-3.71,4.52-3.42,5.27.21h-.01ZM154.41,139.44c0,2.74-3.62,3.59-4.52.84-1.1-3.8,4.22-5.07,4.52-.99v.14ZM149.5,141.48c-.07-.15-.27-1.06-.25-1.15.75,3.38,4.16,4.2,5.46.62.04-.1.11-.3.14-.39.02-.02-.08.5-.15.71-.8,3-4.08,3.4-5.14.37l-.05-.15Z"/>
    <g>
      <path class="cls-2" d="M160.62,212.51h-17.6c-2.43,0-4.4,2.31-4.4,5.17v22.13c7.69,7.56,16.59,13.89,26.4,18.66v-40.79c0-2.86-1.97-5.17-4.4-5.17Z"/>
      <path class="cls-2" d="M204.62,171.15h-17.6c-2.43,0-4.4,2.32-4.4,5.17v88.72c8.29,2.23,17.01,3.44,26.01,3.44.13,0,.26,0,.39,0v-92.15c0-2.86-1.97-5.17-4.4-5.17Z"/>
      <path class="cls-2" d="M248.62,191.83h-17.6c-2.43,0-4.4,2.32-4.4,5.17v69.83c9.31-1.7,18.18-4.67,26.4-8.76v-61.07c0-2.86-1.97-5.17-4.4-5.17Z"/>
      <path class="cls-2" d="M297.02,215.09v-49.11c0-2.86-1.97-5.17-4.4-5.17h-17.6c-2.43,0-4.4,2.32-4.4,5.17v81.9c10.86-8.61,19.89-20.43,26.4-32.79Z"/>
    </g>
    <g>
      <path class="cls-1" d="M373.45,303.15l-46.41-46.38-6.59,6.59-13.8-13.8c-5.5,6.8-11.71,13-18.52,18.48l13.8,13.8-6.59,6.62,46.41,46.38c8.77,8.74,22.96,8.72,31.69-.05,8.72-8.75,8.72-22.9,0-31.64h0Z"/>
      <path class="cls-1" d="M210.92,60.95c-61.5,0-111.35,49.86-111.36,111.36-.01,61.51,49.84,111.39,111.36,111.4,61.51.01,111.39-49.84,111.4-111.36v-.03c0-61.52-49.88-111.38-111.39-111.37ZM210.92,267.48h0c-52.54,0-95.13-42.6-95.13-95.14s42.6-95.13,95.14-95.13c52.54,0,95.13,42.6,95.13,95.14-.06,52.52-42.62,95.07-95.14,95.13Z"/>
    </g>
    <path class="cls-1" d="M250,413.87c-114.11,0-206.93-92.83-206.93-206.93S135.89,0,250,0s206.93,92.83,206.93,206.93-92.83,206.93-206.93,206.93ZM250,10.41c-108.37,0-196.53,88.16-196.53,196.53s88.16,196.53,196.53,196.53,196.53-88.16,196.53-196.53S358.37,10.41,250,10.41Z"/>
  </g>
  <g>
    <path class="cls-1" d="M96.03,485.67c-13.83,0-23.26-6.7-23.26-25.2v-5.47c0-18.58,9.5-25.2,23.26-25.2s23.33,6.62,23.33,25.2v5.47c0,18.51-9.43,25.2-23.33,25.2ZM106.11,455c0-11.16-3.6-14.76-10.08-14.76s-10.01,3.6-10.01,14.76v5.4c0,11.38,3.74,14.83,10.01,14.83s10.08-3.46,10.08-14.83v-5.4Z"/>
    <path class="cls-1" d="M155.13,484.45h-17.86l-12.1-41.04h12.89l5.69,22.32c.94,3.82,1.73,7.78,2.52,11.09.72-3.31,1.51-7.27,2.45-11.09l5.62-22.32h12.89l-12.1,41.04Z"/>
    <path class="cls-1" d="M183.28,467.31v.58c0,5.4.72,8.35,9.58,8.35,4.18,0,8.5-.29,15.41-.79v8.28c-3.17.79-8.93,1.8-15.99,1.8-15.05,0-21.39-5.26-21.39-20.31v-2.23c0-14.33,6.84-20.67,19.8-20.67,15.41,0,19.59,9.79,19.59,21.6v3.38h-27ZM197.96,459.9c0-4.54-.94-8.64-7.34-8.64s-7.27,4.18-7.27,8.64v.58h14.62v-.58Z"/>
    <path class="cls-1" d="M231.79,454.71v29.74h-12.53v-41.04h11.67v3.38c4.03-3.67,9.07-4.46,13.54-4.46v10.51c-4.54,0-9.43.79-12.67,1.87Z"/>
    <path class="cls-1" d="M278.94,484.45h-17.86l-12.1-41.04h12.89l5.69,22.32c.94,3.82,1.73,7.78,2.52,11.09.72-3.31,1.51-7.27,2.45-11.09l5.62-22.32h12.89l-12.1,41.04Z"/>
    <path class="cls-1" d="M298.3,437.79v-9.43h13.03v9.43h-13.03ZM298.51,484.45v-41.04h12.53v41.04h-12.53Z"/>
    <path class="cls-1" d="M332.99,467.31v.58c0,5.4.72,8.35,9.58,8.35,4.18,0,8.5-.29,15.41-.79v8.28c-3.17.79-8.93,1.8-15.99,1.8-15.05,0-21.39-5.26-21.39-20.31v-2.23c0-14.33,6.84-20.67,19.8-20.67,15.41,0,19.59,9.79,19.59,21.6v3.38h-27ZM347.68,459.9c0-4.54-.94-8.64-7.34-8.64s-7.27,4.18-7.27,8.64v.58h14.62v-.58Z"/>
    <path class="cls-1" d="M420.11,484.45h-15.48l-5.47-17.57c-.94-3.1-1.58-5.69-1.94-8.21h-.29c-.36,2.52-1.01,5.11-2.02,8.21l-5.47,17.57h-15.41l-8.64-41.04h12.67l3.74,20.31c.65,3.67,1.15,6.98,1.3,9.79h.29c.72-2.95,1.51-6.48,2.52-9.79l4.54-14.33h13.25l4.54,14.33c1.08,3.31,1.8,6.84,2.59,9.79h.29c.14-2.81.5-6.12,1.22-9.86l3.75-20.23h12.67l-8.64,41.04Z"/>
  </g>
</svg>