<?xml version="1.0" encoding="UTF-8"?>
<svg id="Layer_2" data-name="Layer 2" xmlns="http://www.w3.org/2000/svg" viewBox="0 0 119.31 119.31">
  <defs>
    <style>
      .cls-1 {
        fill: #27b4e8;
      }

      .cls-1, .cls-2 {
        stroke-width: 0px;
      }

      .cls-2 {
        fill: #1c2f5d;
      }
    </style>
  </defs>
  <g id="Layer_1-2" data-name="Layer 1">
    <g>
      <path class="cls-2" d="M59.66,119.31C26.76,119.31,0,92.55,0,59.66S26.76,0,59.66,0s59.66,26.76,59.66,59.66-26.76,59.66-59.66,59.66ZM59.66,3C28.42,3,3,28.42,3,59.66s25.42,56.66,56.66,56.66,56.66-25.42,56.66-56.66S90.9,3,59.66,3Z"/>
      <path class="cls-2" d="M59.79,65.65c-10.06,0-18.21,8.15-18.21,18.21s8.15,18.21,18.21,18.21,18.21-8.15,18.21-18.21-8.15-18.21-18.21-18.21ZM71.58,90.74l-4.91,4.91-6.87-6.87-6.87,6.87-4.91-4.91,6.87-6.87-6.87-6.87,4.91-4.91,6.87,6.87,6.87-6.87,4.91,4.91-6.87,6.87,6.87,6.87Z"/>
      <g>
        <path class="cls-2" d="M34.24,26.38c-10.06,0-18.21,8.15-18.21,18.21s8.15,18.21,18.21,18.21,18.21-8.15,18.21-18.21-8.15-18.21-18.21-18.21ZM31.78,55.03l-11.54-11.54,4.41-4.41,7.12,7.12,12.04-12.04,4.41,4.41-16.45,16.46Z"/>
        <path class="cls-1" d="M85.35,26.38c-10.06,0-18.21,8.15-18.21,18.21s8.15,18.21,18.21,18.21,18.21-8.15,18.21-18.21-8.15-18.21-18.21-18.21ZM87.64,57.04h-5.83v-4.82h5.83v4.82ZM93.2,42.04c-.4.85-.94,1.63-1.61,2.34-.67.71-1.41,1.35-2.22,1.94-.45.33-.8.66-1.04.99-.24.34-.41.72-.5,1.15-.09.43-.13.95-.13,1.54h-5.9c0-.82.06-1.52.19-2.09.12-.57.32-1.08.6-1.53.28-.45.65-.89,1.14-1.33.48-.44,1.09-.93,1.82-1.47.45-.33.85-.7,1.2-1.14s.63-.9.83-1.42c.21-.51.31-1.04.31-1.59,0-.83-.23-1.49-.7-1.97-.47-.48-1.12-.72-1.95-.72-.69,0-1.28.19-1.77.57-.49.38-.75.97-.76,1.77h-5.78l-.03-.1c-.02-1.48.31-2.73,1.01-3.75.7-1.02,1.67-1.79,2.93-2.31,1.26-.52,2.71-.78,4.36-.78,2.68,0,4.79.65,6.31,1.94,1.52,1.29,2.28,3.02,2.28,5.19,0,.99-.2,1.91-.61,2.76h0Z"/>
      </g>
    </g>
  </g>
</svg>