<?xml version="1.0" encoding="UTF-8"?>
<svg id="Layer_4" data-name="Layer 4" xmlns="http://www.w3.org/2000/svg" viewBox="0 0 500 500">
  <defs>
    <style>
      .cls-1 {
        fill: #1c2f5d;
      }

      .cls-2 {
        fill: #27b4e8;
      }
    </style>
  </defs>
  <g>
    <path class="cls-1" d="M250,413.87c-114.1,0-206.93-92.83-206.93-206.93S135.89,0,250,0s206.94,92.83,206.94,206.94-92.83,206.93-206.94,206.93ZM250,10.41c-108.37,0-196.53,88.16-196.53,196.53s88.16,196.53,196.53,196.53,196.53-88.16,196.53-196.53S358.37,10.41,250,10.41Z"/>
    <g>
      <g>
        <path class="cls-1" d="M164.35,92.51c-34.89,0-63.18,28.29-63.18,63.18s28.29,63.18,63.18,63.18,63.18-28.29,63.18-63.18-28.29-63.18-63.18-63.18ZM155.82,191.89l-40.02-40.02,15.31-15.31,24.7,24.7,41.76-41.76,15.31,15.31-57.08,57.08Z"/>
        <path class="cls-2" d="M335.65,92.51c-34.89,0-63.18,28.29-63.18,63.18s28.29,63.18,63.18,63.18,63.18-28.29,63.18-63.18-28.29-63.18-63.18-63.18ZM343.58,198.86h-20.23v-16.72h20.23v16.72ZM362.87,146.84c-1.4,2.96-3.26,5.67-5.58,8.12-2.32,2.46-4.88,4.7-7.69,6.72-1.56,1.13-2.76,2.28-3.59,3.45-.84,1.17-1.41,2.5-1.72,4-.31,1.5-.47,3.28-.47,5.35h-20.46c0-2.84.21-5.26.64-7.25.43-1.99,1.12-3.76,2.07-5.32.96-1.56,2.27-3.1,3.95-4.62,1.67-1.52,3.78-3.21,6.31-5.09,1.56-1.13,2.94-2.44,4.15-3.94,1.21-1.5,2.17-3.14,2.89-4.91.72-1.77,1.08-3.62,1.08-5.52,0-2.88-.81-5.16-2.43-6.84-1.62-1.68-3.87-2.51-6.75-2.51-2.38,0-4.42.66-6.14,1.99-1.72,1.32-2.59,3.37-2.63,6.14h-20.05l-.12-.35c-.08-5.14,1.09-9.48,3.51-13.01,2.42-3.53,5.8-6.2,10.17-8.01,4.36-1.81,9.41-2.72,15.14-2.72,9.31,0,16.61,2.24,21.89,6.72,5.28,4.48,7.92,10.48,7.92,18,0,3.43-.7,6.62-2.1,9.59h0Z"/>
      </g>
      <path class="cls-1" d="M250,230.73c-34.89,0-63.18,28.29-63.18,63.18s28.29,63.18,63.18,63.18,63.18-28.29,63.18-63.18-28.29-63.18-63.18-63.18ZM290.89,317.76l-17.04,17.04-23.85-23.85-23.85,23.85-17.04-17.04,23.85-23.85-23.85-23.85,17.04-17.04,23.85,23.85,23.85-23.85,17.04,17.04-23.85,23.85,23.85,23.85Z"/>
    </g>
  </g>
  <g>
    <path class="cls-1" d="M44.84,485.67c-7.13,0-14.62-.86-18.07-1.73v-8.78c4.61.36,9.58.86,16.56.86,6.05,0,8.57-1.8,8.57-5.83,0-3.02-1.3-4.25-6.34-6.41l-7.78-3.31c-7.63-3.24-12.38-7.06-12.38-15.91,0-10.58,7.34-14.76,20.88-14.76,7.13,0,13.18,1.08,16.34,1.8v8.64c-4.97-.43-9.65-.86-15.62-.86-5.47,0-8.35,1.08-8.35,4.75,0,2.74,1.15,3.82,6.05,5.83l7.56,3.1c8.93,3.67,13.1,7.92,13.1,16.35,0,11.09-7.56,16.27-20.52,16.27Z"/>
    <path class="cls-1" d="M89.05,485.53c-8.71,0-12.53-3.46-12.53-12.53v-20.67l-7.13-.65v-8.28h7.13v-10.37h12.53v10.37h9.22v8.93h-9.22v20.52c0,3.38.22,4.1,3.38,4.1,1.94,0,4.75-.14,5.76-.29v7.71c-1.08.29-4.97,1.15-9.14,1.15Z"/>
    <path class="cls-1" d="M122.38,485.53c-12.46,0-19.66-5.83-19.66-19.3v-4.54c0-13.54,7.2-19.37,19.66-19.37s19.8,5.83,19.8,19.37v4.54c0,13.47-7.2,19.3-19.8,19.3ZM129.66,461.7c0-7.27-2.16-9.79-7.27-9.79s-7.2,2.52-7.2,9.79v4.54c0,7.27,2.16,9.79,7.2,9.79s7.27-2.52,7.27-9.79v-4.54Z"/>
    <path class="cls-1" d="M167.24,485.53c-12.6,0-18.29-6.62-18.29-19.3v-4.61c0-12.96,5.69-19.3,18.29-19.3,6.55,0,11.38,1.01,13.75,1.58v8.57c-5.47-.36-9-.58-11.38-.58-5.47,0-8.21,1.66-8.21,9.72v4.61c0,8.06,2.81,9.79,8.21,9.79,2.38,0,5.9-.22,11.38-.58v8.5c-2.38.58-7.2,1.58-13.75,1.58Z"/>
    <path class="cls-1" d="M214.04,484.45l-12.67-19.01v19.01h-12.53v-56.09h12.53v33.19l12.89-18.15h13.39l-14.26,19.73,14.83,21.31h-14.19Z"/>
    <path class="cls-1" d="M261.77,485.46c-5.76,0-12.38-.94-14.69-1.58v-7.63c1.8.07,8.42.79,14.04.79,5.04,0,6.7-1.15,6.7-3.67s-1.3-2.95-6.48-4.9l-3.31-1.22c-7.63-2.95-11.59-6.48-11.59-13.25,0-9,6.41-11.67,16.92-11.67,6.05,0,11.95.86,14.55,1.66v7.85c-4.9-.43-9.07-.72-13.39-.72-4.03,0-6.05.14-6.05,2.59,0,2.16,1.3,2.66,5.62,4.32l3.6,1.3c9.15,3.31,12.24,6.62,12.24,13.11,0,8.78-5.76,13.03-18.15,13.03Z"/>
    <path class="cls-1" d="M303.68,485.53c-8.71,0-12.53-3.46-12.53-12.53v-20.67l-7.13-.65v-8.28h7.13v-10.37h12.53v10.37h9.22v8.93h-9.22v20.52c0,3.38.22,4.1,3.38,4.1,1.94,0,4.75-.14,5.76-.29v7.71c-1.08.29-4.97,1.15-9.14,1.15Z"/>
    <path class="cls-1" d="M342.99,484.45v-2.66c-2.66,1.8-7.42,3.74-12.89,3.74-7.78,0-12.02-3.96-12.02-11.74v-1.66c0-10.94,8.35-12.24,20.02-12.24h3.82v-2.23c0-5.04-1.08-6.05-7.56-6.05-3.67,0-8.64.22-13.25.72v-7.49c2.3-.86,8.93-2.52,15.84-2.52,12.82,0,17.5,4.18,17.5,15.34v26.79h-11.45ZM342.34,466.38h-4.18c-5.69,0-8.14.65-8.14,5.33v1.66c0,3.24,1.94,4.18,4.68,4.18,3.24,0,6.41-1.22,7.63-1.94v-9.22Z"/>
    <path class="cls-1" d="M378.99,485.53c-8.71,0-12.53-3.46-12.53-12.53v-20.67l-7.13-.65v-8.28h7.13v-10.37h12.53v10.37h9.22v8.93h-9.22v20.52c0,3.38.22,4.1,3.38,4.1,1.94,0,4.75-.14,5.76-.29v7.71c-1.08.29-4.97,1.15-9.14,1.15Z"/>
    <path class="cls-1" d="M422.12,484.45v-3.31c-4.32,2.52-9,4.39-14.4,4.39-11.23,0-12.53-7.85-12.53-16.13v-25.99h12.53v25.99c0,4.97.86,6.7,4.9,6.7,2.38,0,5.4-.94,8.79-2.3v-30.39h12.53v41.04h-11.81Z"/>
    <path class="cls-1" d="M457.18,485.46c-5.76,0-12.38-.94-14.69-1.58v-7.63c1.8.07,8.42.79,14.04.79,5.04,0,6.7-1.15,6.7-3.67s-1.3-2.95-6.48-4.9l-3.31-1.22c-7.63-2.95-11.59-6.48-11.59-13.25,0-9,6.41-11.67,16.92-11.67,6.05,0,11.95.86,14.55,1.66v7.85c-4.9-.43-9.07-.72-13.39-.72-4.03,0-6.05.14-6.05,2.59,0,2.16,1.3,2.66,5.62,4.32l3.6,1.3c9.15,3.31,12.24,6.62,12.24,13.11,0,8.78-5.76,13.03-18.15,13.03Z"/>
  </g>
</svg>