<?xml version="1.0" encoding="UTF-8"?>
<svg id="Layer_7" data-name="Layer 7" xmlns="http://www.w3.org/2000/svg" viewBox="0 0 500 500">
  <defs>
    <style>
      .cls-1 {
        fill: #1c2f5d;
      }

      .cls-2 {
        fill: #27b4e8;
        fill-rule: evenodd;
      }
    </style>
  </defs>
  <g>
    <g>
      <path class="cls-2" d="M301.55,400.69c-3.64-1.49-5.08-5.92-9.28-6.58-4.35-1.16-8.95-2.39-12.96-4.66-3.88.12-7.75.98-11.64.73-3.25.98-6.9,2.58-10.16,1.05-3.64-1.84-7.63-2.76-11.4-4.17-5-3.7-9.44,1.52-14.7,1.05-4.42.98-8.98-.07-13.5-.32-5.46.12-10.93.87-16.18.57-5.14-1.66-8.12,3.42-9.44,7.29,1.64,1.97.35,3.15-.68,4.86,35.19,10.99,73.35,12.13,109.13,3.3,3.53.81,2.76-2.69.81-3.11Z"/>
      <path class="cls-2" d="M184.83,398.28c.9.32,1.82.61,2.72.93,1.36.68,2.03.84,2.22.73.57-.33-3.12-3.08-4.94-1.66Z"/>
      <path class="cls-2" d="M177.08,395.34c1.86.72,3.76,1.54,5.69,2.22-1.47-1.96-3.22-2.83-5.69-2.22Z"/>
      <path class="cls-2" d="M389.05,57.76l-48.99,53.43s-.04.02-.05.04l49.03-53.47c-5.56-5.09-11.35-9.89-17.41-14.3-6.26-4.86.05,1.1,1.32,4.55,3.21,3.81,1.1,1.96-2.19,1.64.06-2.15.41-4.73-2.53-6.61-5.22-3.44-9.22-8.41-14.71-11.55-1.44,1.6,5.69,8.83,8.72,11.05,8.48,7.19-8.56-4.48-6.31,1.36,3.89,4.74-.99.57-3.81,3.99-1.7-2.86-6.79,1.17-5.18,5.23-3.25,2.69-2.42-3.09-2.94-3.82-6.74-5.15-1.04,2.15-1.17,5.65-6.43-2.99.44,6.34-4.42,3.93-5.26-4.86,3.75,7.26-2.9,2.32-2.5-4.09-4.96-5.95-7.82-9.14.85-.42,12.56,7.06,10.66-.73-3.58-3.99-9.87-5.15-13.51-7.91-5.33,1.71.98-3.09-3.69-2.52-1.13-1.54-1.89-2.77-2.36,1.1.19-3.3-.86-1.04-1.52.87,1.05-5.73-2.84,1.17-4.29-1.91-.25,2.39-2.19.13-3.4,2.89-3.63,2.26-1.84,4.11-5.69,7.12-.7.71-1.51,1.43-2.39,2.17h0s0,0,0,0c-.07-.21-.29-.41-.27.05,0,.04,0,.08.01.12.01.01.02.02.04.02,0,0,0,0,0,0,0,0,0,0,0,0-1.93,1.6-4.22,3.28-6.52,4.93,3.75-1.76.58,2.22-.72-.22-4.73.9-4.73,4.41-8.57,3.56,1.9.9-1.79.67-1.07,2.19,7.19,1.79-3.09-1.16-.31,2.72,4.72-.68.86,1.51-1.4,2.26,1.65,1.04,2.68.47.57,3.11,2.65,5.47,13-4.03,10.65,4.68,3.81,1.2-.92,6.51,2.31,7.13,3.32-2.84,8.22-.93,7.56-6.4-1.76-4.79,5.22-.61,4.55-5.78-3.03-2.02-3.8-7.73.31-9.81,4.23-.93,3.38-4.96,6.17-7.6,8.69,1.05-1.58,7.19-1.07,10.8-1.65,3.36,4.16,5.32,1.58,6.19,2.11,3.42,7.86-3.24,10.69.37,7.58,4.54-11.35-.37-8.48,6.51,2.51,7.17-5.25-1.97-5.55,4.13.21,2.05-.12,2.92-.66,3.55h0s0,0,0,0c-.02-.2-.55-.61-.37.06.13.05.22.06.28.05h0s0,0,0,0c-.66.72-1.57,1.18-2.23,2.84-4.2-1.6-9.86,1.34-14.68-1.6-3.5,2.08-6.72-1.17-6.12-3.91,4.32,1.14-.88-.98,1.96-2.52-.47-2.02,3.28-7.55-1.24-4.35-3.78,1.4-.4-.5.09,1.77-3.58-.61-3.77,3.61-3.03,7.12-.97,7.49-9.6-1.85-12.06,5.64-.28-.11-.54-.2-.81-.26.05.12.06.26.05.45-.88-.09-1-.39-.86-.58-5.02-.44-8.72,6.73-13.31,2.18,1.37,7.24-8.74-1.6-8.02,3.62,3.7,2.75,7.82,9.34,2.72,14.23-6.37.68-13.94-8.61-19.21-3.24.92,6.45-6.11,8.41-5.74,14.11,3.7.92,6.66,7.05,11.08,5.52,6.72,3.5,12.49-2.58,15.93-6.87,5.34.19,7.7-5.64,12.49-5.64,4.65,5.02,12.26-4.79,14.57,3.62.25,7.85,15.04,8.78,10.99,17.12,2.61,3.01,4.47-3.86,3.18-5.82,8.01,4.46-.05-4.36-3.62-5.41-1.77-3.75-8.18-6.31-5.16-10.8,4.74-3.7,1.59,4.98,4.93,1.3,1.64,5.27,7.14,7.75,11.75,11.11.78,3.5,2,9.56,6.47,11.71,6.23,2.53-4.82-1.1-.67,3.56,3.34.21,6.06-.11,4.17-1.71,5.53,2.39-2.84-4.17,1.58-1.33,4.49,3.3.73-2.42-2.36-1.62,1.74-.13-1.9-7.36,1.29-4,.6-1.96,7.92-3.56,7.69.05,3.04-1.03,9.68-1.14,3.62-4.7,2.72-4.17,3.57-13.02,10.12-12.53l.46-.5c-1.01,1.64-.51,2.68,2.56,2.23,3.41.62-4.28,2.39-.29,2.33.5,3.99,6.14,1.16,7.44-.19-2.1.8-4.82-.54-5.97-2.7,3.32.42,6.05-1.85,9.61-2.64,3.28-1.29,1.39.93-.17,1.05-1.76.61,1.14,3.81-2.19,3.86-.17.68-.48.92-.67.98.21.02.66.11,1.47.38,2.78,2.22,5.45,4.79,8.78,6.02,3.32,2.49.05,6.37-3.23,5.02-2.83,1.03-6.58-.48-8.89-1.54-2.91-1.4-6.3-1.45-9.44.7-6.73,0-3.02,1.77-8.25,1.77-2.72.79-6.9,2.22-3.15,4.86-.4,2.95-1.52,1.34.92,4.48-.97,2.13,3.1,1.1,4.36,2.89,1.7,3.8,4.79-1.96,6.94.48,2.92,4.07,8.83-2.22,10.48-.12-.88,2.26.13,3.87.73,6.26-2.29,2.22-.96,5.14-3.21,7.06-.55,4.4-7.64,1.82-9.02,2.12-2.37,1.07-7.19-.31-10.73-.41-2.53-1.66-7.31-1.66-9.56-3.87-2.42.92-2.56-1.1-3.95-1.66-2.43-1.65-9.26-1.18-7.5,2.28-1.71,5.52-8.48.06-12.17-.73-2.84-3.87-6.98-5.78-10.99-6.76-1.38-1.59-3.87-2.16-4.22-4.35,1.7-1.06,2.68-1.73,2.9-3.87-2.9-.75,1.78-2.46,1.27-3.76-1.93.32-3.45-2.58-5.34-1.39-4.79-.83-7.14-1.19-11.61-2.28-3.64-.14-7.5-2.11-10.6-1.24-3.82.31-6.96.37-10.1,1.18-1.53-2.22-4.36-.71-6.72-2.46-.38-4.34-3.78-.05-4.99,1.1-1.87,3.2-7.44-.12-9.7,4-2.83.73-1.43,4.29-2.96,5.84-3.15,4.09-9.93,2.99-12.9,5.39-2.25.75-4.53,2.72-5.74,4.28-2.02.88-3.47,2.48-5.34,4.07-4.36,1.18-.73,5.47-3.03,7.49.14,2.78-.67,5.84-2.12,7.85-.6,3.09-5.8,3.61-3.32,7.38-1.1,2.83.98,4.95,1.58,7.05,1.86,1.97,2.46,4.29,2.98,6.87.47,1.05,1.54,3.51.77,4.19.57.31.77,1.34,1.1,2.42.12-.01.09,0,0,.01.33,1.04.79,2.09,1.89,2.43,2.04,2.37,3.49,4.95,6.17,7.39,2.97,5.97,9.2,1.85,13.87,4.23,3.38,2.89,7.76,1.91,11.45,2.22,1.45.25,4.01,1.23,4.61,0-1.74-2.33,2.43,1.85,2.37.45.06,1.14,3.86-.45,6.06-.14,1.86-.06.35,1.04,3.24,1.18,6,.79,1.58,7.96,7.59,7.23,1.38,1.24,3.94-1.27,4.3.62.94-.55,5.81.98,4.74,3.15,1.18,1.8-.27,2.94-.68,4.95-1.23,3.2-1.7,3.56-2.5,4.85.37,2.13-3.56,1.78-1.63,2.9,2.81,1.82.85,1.82,1.69,3.36,2.85,1.54,4.2,4.35,6.06,6.45,2.2,1.45,1.53,3.04,2.2,5.46,1.12,1.46,1.85,4.35,2.41,5.94-2.36,1.71-1.08,4.29-.31,6.14.25,2.32-1.08,3.81-2.89,4.61-2,2.1-5.95,4.79-5.84,8.04-1.04,1.1-.67,4.85,2.13,5.78-.29,2.37,1.86,4.34,2.42,6.37,3.44,1.78-.13,4.42,1.64,7.06-.2,2.37-.6,4.86,1.33,6.7,3.15.79,3.09,4.65,4.89,6.86,2.72,3.01-2.1,1.91-1.32,4.04.24,2.58,2.04,1.59,3.88,2.83,5.61-.05,11.26.25,17.06.73-1.8-2.79.91-.02,1.7.17.11.02.18,0,.2-.11,6.31-.31,13.38-3.78,18.84-7.24,2.23-1.23,5.61-3.2,5.02-6.3,2.05-2.58,7.92-.57,9.81-3.93.73-2.22.67-3.76.48-5.78-2.53-3.93,5.58-4.13,5.33-6.57,4.67-.51,9.64-1.49,13.45-4.62,2.53-3.88,3.64-6.99,3.75-11.17,1.99-1.76-1.74-2.63-1.21-4.8-.53-1.71,1.46-3.56,1.03-5.32-2.89-1.97.38-4.74,1.83-6.57-.19-3.09,3.86-4.32,5.74-6.08,3.82-3.61,7.88-8.97,13.32-11.17,1.58-2.03,4.55-3.12,5.84-5.29,4.73-3.05,5.74-9.55,9.3-13.68.92-2.99,3.23-6.26,2.06-9.02-3.14,2.2-8.29,1.96-11.14,4.36-3.09-.73-7.13,2.32-8.54-1.73-.06-2.19.97-4.53-2.72-6.37-2.62-1.71-4.26-4.37-6.48-4.85-1.74-2.17-.72-5.16-1.82-6.7-1.46-1.71-5.51-3.8-4.43-6.63.92-2.39-.53-3.87-.83-5.78-3.69-.84-3.23-5.15-3.69-5.88-.86-3.25-4.37-5.58-5.59-9.75-2.06-2.84-2.17-6.32.06-2.09,2.24,3.68,3.83-2.46,6.06,2.02.37,3.2,4.3,4.55,4.72,7.49.74,2.13,3.53,3.27,3.88,4.85.26,3.93-.72,8.11,3.41,10.07,3.14,1.6,3.58,6.46,6.66,8.54-.05,3.14-.8,6.07,1.04,8.21-1.49,3.44,4.88,3.76,5.92,1.23,2.9.26,4.66-1.71,7.58-2.43,3.14-2.2,6.59-3.25,9.56-6.08,0-2.7,4.61-3.56,6.67-4.96,1.32-2.52,4.35-3.76,6.46-6.23-.97-2.7,1.84-4.15,2.51-7.18,1.24-2.28.52-4.76-2.31-6.05-2.92.12-5.71-2.52-6.06-5.61-1.69,2.66-3.75,7.32-7.44,5.61-3.03,2.49-2.88-2.36-3.34-4.07-.61,1.49-3.17,4.48-2.62-.47-1.63-2.46-4.26-4.19-4.77-6.71-3.23-2.33,1.14-3.07-.98-4.6,3.41.37,5.95.41,7.33,3.99,1.64,2.71,5.46,7.23,9.51,5.66,1.27-1.53,4.3-3.56,5.13-.39,2.56,4.17,4.87.45,8.14,1.91,2.61-.73,6.11-1.77,8.47-3.37,2.19-2.46,1.77,1.3,2.86,1.46,1.27,0,2,1.43,2.89,1.79.92-1.23,1.89,4.03,4.19,1.24,1.87-4.07-.13,2.95-2.05,2.95,1.64,2.06,3.49,4.39,4.48,2.06,1.39-4.09.97-6.25,2.46-1.65.09,1.91-.21,4.9.45,6.56.72,2.58,1.2,5.73,2.06,8.36,1.33,1.77,1.18,5.52,2.16,7.73-.29.78.81.12.86,1.6,1.56,2.32,1.14,5.68,2.83,7.24,1.59-2.99,3.91-6.51,3.35-9.64,1.03-3.37.05-8.78.57-13.02,2.71-2.69,1.74-5.88,4.21-8.51.19-3.68,1.7-6.1,2.68-9.21-7.57-42-30.29-81.14-61.67-109.73Z"/>
      <path class="cls-2" d="M370.88,276.16c-2.12.83-1.25,3.76-3.87,4.11-.77-.29-.86,1.71-1.95,2.17-2.11-.2-1.54,3.05-4.53,2.32-3.17.37-9.23,2.63-7.64,6.01-.37,1.96-.25,3.86-3.15,4.9-1.46,1.37-3.75,3.55-2.96,5.46.95.87-.42,3.5,2.3,3.87,1.99,1.04,3.81-.67,5.74-1.04h0c2.63-2.83,5.34-6.02,7.77-8.83,1.18-3.14,4.52-5.05,5.74-7.88,1.96-3.43,1.29-3.07,4.17-6-.53-1.4.44-3.87-1.64-5.11Z"/>
      <path class="cls-2" d="M76.9,222.89c-1.89-2.63-1.32-10.54-6.37-11.09-1.79,1.98-2.72.41-3.38-1.3.09.09.19.21.31.31.88,2.22,3.2.87,3.02-1.18.42-4.85-3.81-3.4-3.99-.95-.41-1.05-.79-1.37-1.4.73,1.08-3.2-2.81-2.89-4.5-3.91-2.45-1.56,3.29,1.96,5.39-.08,0,.05.02.13.09.25.51,0,.17-.34,0-.34h0c.27-.31.48-.74.59-1.32,3.08,2.89,1.82-3.91,2.3-7.23.55-5.88,0-13.26-4.61-17.39.07-3.56-3.45-4.09-.9-7.33,1.74-1.97-3.84-8.36-1.17-6.46,2.56-6.33-3.75-10.26-2.05-16.81,1.21-5.95-1.57-1.18-2.84,2.22-13.91,46.7-9.87,98.74,11.63,142.42,1.7,2.69,1.31.5,1.04-1.82.04.02.11.06.19.09.07-.14-.09-.22-.21-.25-.17-1.45-.28-2.94.21-3.24,1.58,7.05,1.85-4.24.24-6.32-2.72-7.18,7.51-1.79,9.51-2.63.97-4.8,4.59-9.6,3.44-15.23-3.03-8.04,7.29-7.9,10.01-13.19,2.1-7.85-4.82-12.51-7.33-19.16-2.98-2.79-5.95-8.45-9.21-8.77Z"/>
      <path class="cls-2" d="M71.15,292.41c-.08-.73-1.53-.88,0,0h0Z"/>
      <path class="cls-2" d="M71.19,292c.32-.61-1.21-.73,0,0h0Z"/>
      <path class="cls-2" d="M369.75,286.59c-1.36,1.17.85-.11,0,0h0Z"/>
      <path class="cls-2" d="M348.19,262.73c.6.25.91.26,1.03.17.37-.29-.95-1.54-1.03-.17Z"/>
      <path class="cls-2" d="M254.67,226.34c.77.26,1.21.26,1.45.14.68-.34-.64-1.72-1.45-.14Z"/>
      <path class="cls-2" d="M443.48,211.36c.15.32,1.07-.44,1.19-1.03,2.72-3.25,0-6.6-.83-8.67-.46,2.99-1.71,6.57-.37,9.69Z"/>
      <path class="cls-2" d="M66.23,206.88c.06.05.11.07.14.06.21-.05-.42-1.13-.14-.06Z"/>
      <path class="cls-2" d="M192.52,198.22c.19-.02.42-.05.54-.07,0-.01,0-.02,0-.01-.07.01-.25.05-.54.08Z"/>
      <path class="cls-2" d="M405.23,171.78c-.18.37.92-.2,0,0h0Z"/>
      <path class="cls-2" d="M62.79,166.43c.12.4.19.53.22.52.13-.05-.04-1.37-.22-.52Z"/>
      <path class="cls-2" d="M63.99,161.97c1.99-3.09-1.63-1.97,0,0h0Z"/>
      <path class="cls-2" d="M67.99,156.23c.31-.17-.24-1.85-.18-.04.08.06.14.06.18.04Z"/>
      <path class="cls-2" d="M68.54,151.29c.97-1.29-.42-2.22,0,0h0Z"/>
      <path class="cls-2" d="M57.51,150.25c.61-2.28.5-1.96,0,0h0Z"/>
      <path class="cls-2" d="M341.69,149.68h0c1.96-2.15,3.76-3.08-.34-1.65-.31-.2-3.84.37-2.26,1.46.79.67,1.84.55,2.61.19Z"/>
      <path class="cls-2" d="M319.42,148.09c.97-.42,2.42.25,3.43-.37-1.74-1.49-4.41-.73-6.78-1.79-3.27.07,2.08,1.6,3.35,2.16Z"/>
      <path class="cls-2" d="M69.06,147.79c.5.31.45-2.64,0,0h0Z"/>
      <path class="cls-2" d="M60.05,142.32c-.29.61-.53,1.3-.8,1.96-.74,1.8-.94,2.49-.86,2.53.25.13,3.07-5.54,1.66-4.49Z"/>
      <path class="cls-2" d="M70.18,145.25c1.33-.05-1.17-1.51,0,0h0Z"/>
      <path class="cls-2" d="M325.59,143.07c1.27.06-.41-.81,0,0h0Z"/>
      <path class="cls-2" d="M312.02,142.88c1.29.37-.5-1.8,0,0h0Z"/>
      <path class="cls-2" d="M322.85,142.68c.87.13-.85-.42,0,0h0Z"/>
      <path class="cls-2" d="M323.29,142.56c1.26.37.13-.55,0,0h0Z"/>
      <path class="cls-2" d="M323.29,140.49c0-.31-.08-.45-.19-.5h-.15c-.27.11-.47.61.34.5Z"/>
      <path class="cls-2" d="M288.92,135.08c-5.97-2.46-1.12,2.69,1.6,3.56,2.24.68,3.69-5.78-1.6-3.56Z"/>
      <path class="cls-2" d="M322.2,138.39c.85.25-.32-1.6,0,0h0Z"/>
      <path class="cls-2" d="M308.39,137.38c-.06-.12-1.92-.78-.73-.14.57.15.74.18.73.14Z"/>
      <path class="cls-2" d="M323.58,136.37c.67-1.91-2.23-.57,0,0h0Z"/>
      <path class="cls-2" d="M70.71,133.74c.25-.74-.99-2.99-.84-.01.51.34.75.26.84.01Z"/>
      <path class="cls-2" d="M306.38,132.69c1.03.48-.26-1.18,0,0h0Z"/>
      <path class="cls-2" d="M69.81,129.55c1.03-1.78.31-3.97,1.03-5.87-.31-4.39-.72-2.42-2.15.66.81-5.82-1.13,0-.46,2.65,1.2-2.29.55,1.53,1.58,2.56Z"/>
      <path class="cls-2" d="M276.34,129.5c2.11.37,2.92-2.77,3.22-4.29-2.35-5.41-6.35,2.03-3.22,4.29Z"/>
      <path class="cls-2" d="M261.57,125.14c4.1-1.05-2.18-4.24,0,0h0Z"/>
      <path class="cls-2" d="M266.96,124.9c.5-1.91-3.03-.31,0,0h0Z"/>
      <path class="cls-2" d="M256.36,124.34c2.63-.66-1.27-1.23,0,0h0Z"/>
      <path class="cls-2" d="M279.12,121.71c3.89-5.78-5.26-3.03-1.57.48.48.92,1.4.25,1.57-.48Z"/>
      <path class="cls-2" d="M71.15,117.29c2.16-4.04-.74-3.27,0,0h0Z"/>
      <path class="cls-2" d="M335.95,115.62c1.39-.87-1.39-.19,0,0h0Z"/>
      <path class="cls-2" d="M71.98,114.16c1.07-1.49.55-2.04,0,0h0Z"/>
      <path class="cls-2" d="M266.96,82.89c.92-.72-2-3.41-1.82-6.35-4.2-2.83,3.15-4.23,1.45-6.86-5.34-.2-.37-1.74-.47-3.65-4.42-1.1-8.61,6.83-6.41,7.58-4.62,3.67,2.46,2.63,1.13,4.34,3.81,5.21-6.67.81-3.95,5.16-5.92,1.64.08,2.94,2.1,3.56-2.51.25-5.34-.26-7.95,1.71,1.27,1.78,10-.44,13.38,2.46,5.09.31-1.29-2.78,3.08-2.46h0c4.67-3.01-2.55-2.13-.54-5.48Z"/>
      <path class="cls-2" d="M272.3,90.31c.27.01.54.06.81.13-.15-.44-.64-.35-.81-.13Z"/>
      <path class="cls-2" d="M260.42,89.97c1.14.06-.79-.67,0,0h0Z"/>
      <path class="cls-2" d="M279.35,86.83c.45-.09-.51-.92-1-.24.53.21.85.27,1,.24Z"/>
      <path class="cls-2" d="M292.46,86.1l.79-.31c3.53-1.66-5.33-.68-.79.31Z"/>
      <path class="cls-2" d="M96.44,86.04c-.02-.12-.02-.24-.02-.37,0,.14.01.27.02.37Z"/>
      <path class="cls-2" d="M96.41,85.68c-.01-.38.01-.88.08-1.49-.11.51-.12,1.01-.08,1.49Z"/>
      <path class="cls-2" d="M299.76,85.49c.14-.31-1.36-2.11-.83-.38.54.42.78.48.83.38Z"/>
      <path class="cls-2" d="M289.73,85.25c.84.48,1.14-2.46,0,0h0Z"/>
      <path class="cls-2" d="M292.4,84.5c.54.52.73-.37,1.14-.37,2.92-5.32-5.45-1.39-1.14.37Z"/>
      <path class="cls-2" d="M164.9,41.3c.48-1.14,1.26-2.04,2.2-2.78l-.02-.02c.25-.45.35-.37.33-.22,3.9-2.92,10.14-3.7,10.14-9.3-5.14-.32-11.75,2.83-16.64,5.78-6.12,4.11-13.35,3.61-19.34,8.41,1.1-4.29,8.55-5.84,11.94-9.14,6.11-6.14,13.87-10.62,21.81-13.99,6.63-2.72,11.78.24,17.35-2.19.35-.25.79-.48,1.34-.7-.45.27-.88.5-1.34.7-1.27.91-.8,1.76,1.76.54-2.72,2.95,7.76.84,12.12-.09,6.17-2.74-2.17-1.45-4.53-1.03-6.79.51,1.03-1.78,3.34-1.78,6.78-1.23-4.01.18,1.74-1.23,6.78-1.53,13.51-3.36,20.54-2.26,8.11.05-.72-2.08-4.32-1.05-7.03-.05-13.56,2.33-20.64,2.03,3.99-.94,7.44-2.98,11.61-4.15-.01,0-.04-.01-.05-.02.32-.22.53-.34.67-.39-.18.09-.42.23-.63.41.08.05.15.06.24.06.21,0,.4-.12.41-.27.06-.04.09-.07.13-.1-.03.03-.07.07-.13.1,2-.82,2.8-1.04,3.48-1.16-44.46,7.02-86.39,29.9-116.41,63.64-1.14,2.08-10.53,8.95-5.45,8.89-.18,1.43-.26,2.82-.08,4.23.17-2.42.97-6.06,3.53-7.23,1.69-1.24,9.46-9.76,5.9-5.21-4.32,3.81.72.92,2.36-.26.71-.11,1.41-.27,2.1-.46.15-.45.93-.85,1.11-.33-.37.12-.73.24-1.11.33-.09.31.09.64.98.72.18-.51.2-.85.13-1.05,4.01-1.26,7.82-3.16,12.71-1.9,5.46,2.26-6.17.98-4.1,4.6,8.42,3.08,5.34-5.9,11.14-9.34,4.53,0,6.28-5.16.42-4.76-5.21,1.08-1.34-.45,1.69-1.18,6.06-2.63,6.11,6.51,10.6,5.05,3.16,1.83,13.64-2.26,7.63-4.68-6.11-2.13,4.11,1.49,3.95-2.38.98-6.76,9.15-8.97,13.19-13.58,6.43-4.29-2,.62-3.81-1.23Z"/>
      <path class="cls-2" d="M246.11,83.35c6.06.78,6.81-4.07,10.56-7.12-1.71-1.24-2.66-3.82-5.23-.55-1.86-1.71-6.9,2.26-2.88,2.58-1.59,1.49-6.73,4.34-2.45,5.09Z"/>
      <path class="cls-2" d="M306.79,81.14c4.56-4.54-1.91-3.14,0,0h0Z"/>
      <path class="cls-2" d="M138.68,68.85c-7.51.87,3.69,5.64-1.34,7.19,3.5-.99,1.59,1.12,1.2,2.83,1.78.98,2.24-1.49,2.86-1.71-2.37-.2,4.88-4.55,1.44-6.51.61-2.05-1.7-2.46,1.53-3.7,7.24-3.2-3.74-.93-5.69,1.9Z"/>
      <path class="cls-2" d="M313.96,78.67c1.04-.12-.5-.93,0,0h0Z"/>
      <path class="cls-2" d="M314.33,78.14c6.53-1.54-3.47-3.15,0,0h0Z"/>
      <path class="cls-2" d="M287.12,77.82c1.9.32.12-1.49,0,0h0Z"/>
      <path class="cls-2" d="M135.76,76.09c1.95-.61.26-1.39,0,0h0Z"/>
      <path class="cls-2" d="M315.12,75.38c.32-.18-.17-1.71-.61-.44.32.4.51.5.61.44Z"/>
      <path class="cls-2" d="M102.94,75.05s.09.04.14.05c.68.04.57-1.99-.14-.05Z"/>
      <path class="cls-2" d="M257.56,74.7c1.03.61.35-2.03,0,0h0Z"/>
      <path class="cls-2" d="M125.83,74.26c.9-.19-.55-.75,0,0h0Z"/>
      <path class="cls-2" d="M127.4,74.07c.84.32,1.45.28,1.84.11,1.17-.53.39-2.36-1.84-.11Z"/>
      <path class="cls-2" d="M256.78,73.97c.5.25-.07-.83,0,0h0Z"/>
      <path class="cls-2" d="M126.87,73.6c.32.47,1.08-.62,1.5-.75,5.9-1.46.25-2.81-1.5.75Z"/>
      <path class="cls-2" d="M257.75,73.04c1.4-.12-.05-1.1,0,0h0Z"/>
      <path class="cls-2" d="M113.84,71.8c.09.2.18.29.25.31.27.08.19-1.13-.25-.31Z"/>
      <path class="cls-2" d="M257.63,71.94c2.72.06-.8-2.41,0,0h0Z"/>
      <path class="cls-2" d="M310.2,71.39c1.77.11-2.24-2.42,0,0h0Z"/>
      <path class="cls-2" d="M127.4,70.88c2.56-.11.97-7.3,0,0h0Z"/>
      <path class="cls-2" d="M258.78,70.34c1.14-.19.47-5.46,0,0h0Z"/>
      <path class="cls-2" d="M256.78,68.38c1.08-.14.41-1.29,0,0h0Z"/>
      <path class="cls-2" d="M132.57,68.12c.52.08.72.08.75.05.07-.11-1.45-.54-.75-.05Z"/>
      <path class="cls-2" d="M282.87,67.57c.81.51.08-.93,0,0h0Z"/>
      <path class="cls-2" d="M283.79,67.51c.86.06-.37-.87,0,0h0Z"/>
      <path class="cls-2" d="M257.56,67.39c1.79.73-.05-1.17,0,0h0Z"/>
      <path class="cls-2" d="M259.43,67.12c1.16-.51,3.69-3.7-.4-.71-.22.75.01.88.4.71Z"/>
      <path class="cls-2" d="M283.01,66.89c.72.57-.25-.62,0,0h0Z"/>
      <path class="cls-2" d="M226.07,66.16c1.23-.67,4.83.84,7.3-.31,7.13-3.2,1.37-6.76-3.6-6.51-4.11,2.44-.47-3.76-5.59-1.3,1.84,2.58-3.14.32-1.08,4.1-3.5-.59,1.04,4.01,2.97,4.01Z"/>
      <path class="cls-2" d="M135.96,64.68c4.3-2.63.61-6.45,0,0h0Z"/>
      <path class="cls-2" d="M271.73,63.95c1.64-.31.19-2.95,0,0h0Z"/>
      <path class="cls-2" d="M178.94,61.37c.17.22.31.29.42.27.47-.09.37-1.9-.42-.27Z"/>
      <path class="cls-2" d="M266.9,22.34c-3.76.62-.55-.14-3.32-.25,3.32.06,4.55-.98.48-1.04.12-.57.06.17-2.91-.25-5.86-.98-11.51.25-17.52-1.41-.77,3.38-8.57-1.17-8.77,1.83.61,1.24,2.37.46,1.64,2.42-5.68,3.43-12.17,5.64-18.58,7.18-.15.47-1.1,4.85-4.98,4.9,2.42-4.49-3.41-1.34-5.33-1.34-5.11,4.42,5.99-1.19,3.32,1.29-4.19,3.62-8.11,3.67-12.23,3.62,4.77,3.75-3.81-1.1-5.34,2.83-5.19,4.41-10.16,6.81-13.56,13.11,2.05,1.41,1.19,3.21.31,6.26,2.3-1.04,4.47-2.18,6.72-3.31h0c5.86-1.53,11.52-7.29,17.57-5.62,7.2,2.32,12.78-4.54,18.9-.81,3.38.31,17.2.57,8.64-3.73-.85-.55-1.07-.91-.93-1.14-.31-.19-.33-.29-.18-.35h.9c1.52-.33,4.73-.11,2.96-1.4,1.39-2.32,1.69,3.88,1.91,4.66,5.71-.98-.65-9.46,6.63-8.02,2.3,3.12,3.14.73,4.54-.13-.28-1.21.45-.74.71-.29.33-.05.7.01,1.11.22.73-2.99,3.51-1.1,4.85-3.75,3.89-2.64,9.08-6.2,14.42-8.17.31-.41,8.64-1.65,3.14-2.49-6.06.73,3.04-.61-.92-1.17-4.1-2.33,5.39,1.34,6.86-3.15-5.39-.22-6.86-.31-10.05.2-8.02,1.59,3.81-1.05-.98-.68Z"/>
      <path class="cls-2" d="M290.09,59.1c.92-.05-.53-.67,0,0h0Z"/>
      <path class="cls-2" d="M291.8,57.82c2.05.35.66-1.18,0,0h0Z"/>
      <path class="cls-2" d="M228.08,56.89c.08.01.15.01.21.01.75-.11-2.92-1.62-.59-.07.15.04.27.05.38.06Z"/>
      <path class="cls-2" d="M231.01,46.86c.31.19.9.46,1.9.83,3.07-.17.4-.98-1.18-1.18-.37.08-.62.19-.72.35Z"/>
      <path class="cls-2" d="M302.09,47.02c1.2.48-.24-1.3,0,0h0Z"/>
      <path class="cls-2" d="M243.02,42.73c-4.73-1.73-.83.9-2.66,4.04,1.33-.73,3.16-2.32,2.66-4.04Z"/>
      <path class="cls-2" d="M303.1,46.71c1.95-.81.19-.73,0,0h0Z"/>
      <path class="cls-2" d="M304.7,46.71c3.99-1.04-.98-2.99,0,0h0Z"/>
      <path class="cls-2" d="M344.91,46.04c3.28,1.24-4.19-5.22,0,0h0Z"/>
      <path class="cls-2" d="M304.01,45.06c.92.98.79-1.54,0,0h0Z"/>
      <path class="cls-2" d="M306.99,44.23l-.06.14c.33.37.57.34.72.14.44-.61.11-2.76-.66-.28Z"/>
      <path class="cls-2" d="M308.49,41.97c.04.54.17.72.31.71.45-.04,1.06-1.79-.31-.71Z"/>
      <path class="cls-2" d="M354.44,42.6c-3.04-3.93-4.46-.62,0,0h0Z"/>
      <path class="cls-2" d="M248.47,41.32c-.25.04-.48.14-.71.29.85.33.9.02.71-.29Z"/>
      <path class="cls-2" d="M309.78,41.71c.24-.24-.33-1.72-.53-.35.29.37.46.42.53.35Z"/>
      <path class="cls-2" d="M251.5,41.24c.11.19.19.24.25.22.18-.06.13-.72-.25-.22Z"/>
      <path class="cls-2" d="M347.81,41.18c.97-.34,1.32-.67,1.28-1.03,0,.03.05.1.17.23.74.31-.15-.36-.17-.24-.17-1.25-5.13-2.8-5.69-6.13-3.75-1.49-.79-2.11-2.63-4.85.27-2.22-1.63-7.49-2.96-3.88-1.03,4.17,2.91,7.85,4.06,12.29,2.5.11,3.54,2.88,5.94,3.61Z"/>
      <path class="cls-2" d="M311.31,41.06c.71-.75-.62-.75,0,0h0Z"/>
      <path class="cls-2" d="M250.56,40.93c.08.02.18.02.25.01,1.17-.09.58-2.09-.25-.01Z"/>
      <path class="cls-2" d="M314.39,40.93c1.58-.48-1.39-1.4,0,0h0Z"/>
      <path class="cls-2" d="M366.6,40.82c1.14-.29-1.04-1.9-.92-1.73-4.16-3.07-1.7-.17.92,1.73Z"/>
      <path class="cls-2" d="M313.36,40.67c.92.51-.14-.78,0,0h0Z"/>
      <path class="cls-2" d="M253.03,40.57c3.58.06-.51-2.77,0,0h0Z"/>
      <path class="cls-2" d="M144.5,40.3c.19.06,3.21-2.53,1.06-1.21-.86.86-1.12,1.19-1.06,1.21Z"/>
      <path class="cls-2" d="M312.69,39.9c1.64.67.78-2.22,0,0h0Z"/>
      <path class="cls-2" d="M317.06,39.59c.97.93,0-1.49,0,0h0Z"/>
      <path class="cls-2" d="M315.06,39.03c0,1.17.65.13,0,0h0Z"/>
      <path class="cls-2" d="M167.41,38.27c-.11.08-.21.17-.31.25.18.07.28-.12.31-.25Z"/>
      <path class="cls-2" d="M175.79,37.99c.18.26.32.37.42.39.46.12.21-1.43-.42-.39Z"/>
      <path class="cls-2" d="M255.39,38.19c2.31-2.1.72-.68,0,0h0Z"/>
      <path class="cls-2" d="M171.49,37.37c.08.21.18.29.25.31.34.02.46-1.4-.25-.31Z"/>
      <path class="cls-2" d="M180.94,36.82c.41.07.73.09.97.09,1.65-.06-.7-1.65-.97-.09Z"/>
      <path class="cls-2" d="M185.14,34.48c1.39-1.66,13-8.32,7.38-3.1-7.38,4.28,8.95.61,6.04.21,1.05-2.32,1.79-3.67,5.39-5.62,4.2-.68,10.5-2.7,11.34-5.12.37-.22,12.17-3.67,3.7-3.17-.12-1.59,1.5-1.49,4.96-1.78,7.2.19-.86-2.64-3.47-.99-7.97-.2,7.7-.79,6.91-1.29-5.45-2.22-15.32.61-16.95,3.99.84-.22.53,3.7-5.02,4.11-1.29,1.59-7.07,3.2-11.39,3.88-4.11,3.86-8.23-2.22-11.55,1.03,4.82,2.95-7.53,4.19-4.88,10.01,1.52-.87,2.88-2.1,4.2-3.25,4.47-4.66-2.04,4.96,3.35,1.1Z"/>
      <path class="cls-2" d="M155.32,35.83c2.41-.14,1.51-1.25.29-.28-.01.08-.06.14-.14.13-.05.05-.11.11-.15.15h0Z"/>
      <path class="cls-2" d="M155.27,35.52c.08.11.14.14.2.15.05-.05.09-.08.14-.13.05-.18-.07-.45-.34-.02Z"/>
      <path class="cls-2" d="M157.56,34.7c.29,0,1.07-1.4-.09-.27-.02.2.02.27.09.27Z"/>
      <path class="cls-2" d="M176.16,33.39c.07.12.14.17.21.19.46.11.64-1.67-.21-.19Z"/>
      <path class="cls-2" d="M216.45,33.49c.45,0-.65-.62-.29-.05.13.04.22.05.29.05Z"/>
      <path class="cls-2" d="M215.49,32.97c.25.05.45.07.59.06,1.01-.04-.45-1.08-.59-.06Z"/>
      <path class="cls-2" d="M179,28.18c1.4-.2.44-.86,0,0h0Z"/>
      <path class="cls-2" d="M179.37,27.54c.35-.08.59-1.57-.25-.22.07.19.17.25.25.22Z"/>
      <path class="cls-2" d="M175.79,27.26c.18.02.33.04.48.04,2.24.05,1.34-1.53-.48-.04Z"/>
      <path class="cls-2" d="M228.68,26.83c.24.19.41.25.53.25.33-.01.09-.61-.53-.25Z"/>
      <path class="cls-2" d="M180.89,26.8c.28-.24.45-.5-.37-.05-.33.51.07.28.37.05Z"/>
      <path class="cls-2" d="M272.89,26.63c.92-.37,1.21-.57,0,0h0Z"/>
      <path class="cls-2" d="M307.04,18.96c1.53.8-.46,1-1.14.7-2.24,1.4,1.76.22.38,1.96-1.84-.19,0,1.46.72,2.88.31-.73,2.41-2.15,2.05-3.86,2.11-1.43-.65-2.15-.55-3.38,0-1.34-1.6-4.04-1.56-.32.42,2.11-.14.26-.25-.66-.11-1.1-1.39.92-.57-.99-1.69-.37-.77,1.72-1.07,3.57,1.29.11,1.23-1.3,1.99.11Z"/>
      <path class="cls-2" d="M179.24,23.9c.91.27,1.36.29,1.51.2.48-.28-1.63-1.58-1.51-.2Z"/>
      <path class="cls-2" d="M182.63,23.58c1.64-.31,3.09-1.24,4.55-1.97h0c8.18-3.12-2.36-1.65-4.6.24,3.88-.79,2.61.25.05,1.73Z"/>
      <path class="cls-2" d="M311.6,23.39c.18.11,2.53-.73.72-.98-1.38-2.65-3.21.91-.72.98Z"/>
      <path class="cls-2" d="M201.73,23.13c.14.12.28.17.42.15.98,0,1.73-2.23-.42-.15Z"/>
      <path class="cls-2" d="M200.62,22.89c1.46-.53.22-1.89-2.48.07.78.13,1.39.13,1.86.07-.13.09-.29.22-.47.4.6.86,1.29-.25,1.08-.54-.17.06-.37.11-.61.14.35-.25.54-.25.61-.14Z"/>
      <path class="cls-2" d="M265.79,22.2c.5-.01,3.61-.46,1.66-.35-1.58.27-1.9.35-1.66.35Z"/>
      <path class="cls-2" d="M310.58,21.22c.47.26.06-.47.18-.53-.67-2.16-1.96.42-.18.53Z"/>
      <path class="cls-2" d="M206.46,21.06c.52.09.74.11.79.07.15-.09-1.25-.53-.79-.07Z"/>
      <path class="cls-2" d="M262.65,15.95c-.6-.73-8.41-1.46-11.93-1.6-6.66-.66-1.44,1.66,2.11,1.92-4.89-.26-6.21-1.1-10.89-.26-.97.08,3.64-.98-1.32-1.45-.55-.06-1.01-.13-1.38-.2-1.13.11-.98-.01-.51-.14-2.9-.94,3.58-2.76,5.81-2.5-1.74-.37-10.1-.79-12.72,1.91-3.14,4.23,9.03.31,4.55,1.65,1.26.37,3.38,1.54-.29,1.6,2.43.87,10.54,1.49,14.75,1.1,5.03,1.67,10.74,2.26,16.18,2.71h1.89c5.51,0-1.99-1.12,2.31-.61-1.96-.93-2.78-1.8-5.81-2.1,4.34.24,1.19-.61-.99-.72,3.93.13-6.71-2.11-3.98-.19-.57,2.03-12.06-.8-3.81-.19-3.64-1.18,2.94-.98,6.04-.93Z"/>
      <path class="cls-2" d="M203.29,20.19c.09.02.19.02.27.02,1.19,0-.05-1.62-.27-.02Z"/>
      <path class="cls-2" d="M206.14,19.71c1.14-.25.78-.2,0,0h0Z"/>
      <path class="cls-2" d="M207.06,19.71c.94-.14,1.2-.2,0,0h0Z"/>
      <path class="cls-2" d="M191.61,19.65c.13.04.24.04.34.02.73-.09.78-1-.34-.02Z"/>
      <path class="cls-2" d="M313.96,19.57c.59,1.18-.14-.98,0,0h0Z"/>
      <path class="cls-2" d="M240.79,19.35c.13.14.26.17.37.15.31-.06.37-.58-.37-.15Z"/>
      <path class="cls-2" d="M207.64,19.2c.9.19,1.31.19,1.43.11.38-.27-1.86-1.3-1.43-.11Z"/>
      <path class="cls-2" d="M315.22,19.15c.85-.25-2.12-.73,0,0h0Z"/>
      <path class="cls-2" d="M250.56,18.67c1.03-.75-4.2.53,0,0h0Z"/>
      <path class="cls-2" d="M208.01,18.53s.11.06.15.07c.35.01.51-.74-.15-.07Z"/>
      <path class="cls-2" d="M304.8,18.59c-.06-2.39-.64-.98,0,0h0Z"/>
      <path class="cls-2" d="M310.14,16.63c-1.86.55.06.98,1.17,1.64,1.69.93,1.85-2,1.44-2.63-1.07-.61-1.51-.67-1.51-.31-.38-.85-.24.93-1.16-.42-.97-1.54-.78-.93-1.14.26-.51-1.34-.54,2.08,1.2,1.46Z"/>
      <path class="cls-2" d="M223.9,17.55h.84l.86-.17c7.82-1.07-5.88-2.78-1.7.17Z"/>
      <path class="cls-2" d="M233.94,17.49c.18.01.32.01.45.01,1.84,0-2.2-.35-.45-.01Z"/>
      <path class="cls-2" d="M200.4,16.93c-.27.12-.33.17-.28.17.14.01,1.24-.34.28-.17Z"/>
      <path class="cls-2" d="M209.48,15.54c2,0,1.86-.73,0,0h0Z"/>
      <path class="cls-2" d="M211.9,15.34c.11.06.2.09.27.11.51.07.04-.78-.27-.11Z"/>
      <path class="cls-2" d="M244,14.49c.45.02.78.02,1.01.02,2.2,0-5.08-.71-1.01-.02Z"/>
      <path class="cls-2" d="M238.73,14.22c.15.05.32.09.51.14.24-.04.53-.06.9-.12.33-.34-.79-.18-1.4-.02Z"/>
      <path class="cls-2" d="M258.67,12.02c3.69.61,3.38.37,0,0h0Z"/>
      <path class="cls-2" d="M248.24,12.22c2.42-.98-4.35-.57,0,0h0Z"/>
      <path class="cls-2" d="M209.6,12.08c.61-.11,1.29-.22,1.89-.37,6.79-.37.31-2.64-1.89.37Z"/>
      <path class="cls-2" d="M250.97,11.86c-1.44-.51,1.82.22,1.27.05,7.14-.25-7.38-1.12-1.27-.05Z"/>
      <path class="cls-2" d="M236.87,11.35c7.99-.67-8.12-.86,0,0h0Z"/>
      <path class="cls-2" d="M254.25,10.99c5.2.37,4.47-1.08-.44-.57-1.13,0-1.9.06-2.35.13-.02.05-.12.08-.28.07-.85.24.62.58,3.07.37Z"/>
      <path class="cls-2" d="M239.52,10.79c.6.17.81.19.83.17.02-.09-1.83-.74-.83-.17Z"/>
      <path class="cls-2" d="M209.29,10.74c.92-.12,1.64-.25,0,0h0Z"/>
      <path class="cls-2" d="M251.18,10.62c.07-.02.17-.05.28-.07.06-.14-.5-.44-1.05-.13.34.13.59.18.77.2Z"/>
      <path class="cls-2" d="M243.89,10.57h0c.97-.15,1.86.05,2.83-.08-1.14-.21.34-.21-2.92-.48-.25.04-.46.02-.53-.05.18.02.35.04.53.05.81-.11,1.84-.67-2.52-.5-6.32.29-.66,1.37,2.62,1.06Z"/>
      <path class="cls-2" d="M230.21,10.23h0s0,0,0,0c2.63-.29,4.47-.66.95-.84-.42-.61-6-1.24-8.11,1.23l1.57.06c.58,0,3.07-.18,5.19-.4-.04.02-.09.06-.14.09.2.33.52.02.54-.14Z"/>
      <path class="cls-2" d="M213.3,10.24c.58.05.75-.57-.27-.07.09.05.19.07.27.07Z"/>
      <path class="cls-2" d="M257.19,9.7c1.27.33,1.74.4,1.79.35.14-.15-3.64-1.4-1.79-.35Z"/>
      <path class="cls-2" d="M248.39,9.93c.42-.14-1.04-1.3-1.17-.33.67.31,1.03.37,1.17.33Z"/>
      <path class="cls-2" d="M213.85,9.91c.2-.07-.4-.61-.51-.15.28.14.44.18.51.15Z"/>
      <path class="cls-2" d="M252.78,9.9c-2.31-.55-2.48.06,0,0h0Z"/>
      <path class="cls-2" d="M216.07,9.7c1.11-.11,2.2-.31,3.22-.51,5.81-1.29,11.87-1.51,17.51-2.75-5.9-.66,6.72.25,2.11-1.39-7.5.58-15.24.52-22.28,3.73-4.61.92,4.32-.12-.55.92Z"/>
      <path class="cls-2" d="M257.56,9.35c.9.21,1.27.26,1.34.22.25-.11-2.19-.92-1.34-.22Z"/>
      <path class="cls-2" d="M245.03,9.39c5.94,0-10.79-.57,0,0h0Z"/>
      <path class="cls-2" d="M255.39,9.28c.05-2.46-7.95-.55,0,0h0Z"/>
      <path class="cls-2" d="M240.3,8.78c.75.24,1.2.32,1.43.33.68.02-.61-.65-1.43-.33Z"/>
      <path class="cls-2" d="M256.97,8.62c1.16.29,1.64.38,1.72.35.27-.07-2.96-1.1-1.72-.35Z"/>
      <path class="cls-2" d="M245.33,8.66h.37c3.22.17-3.5-.55,2.19-.25,8.82.41-6.61-.68.41-.93,6.53.06-3.44-1.97-1.53-.47-2.95-1.3-6.58,2.06-1.44,1.65Z"/>
      <path class="cls-2" d="M256.36,8.11c1.82.8,2.68-.57.72-1.18-4.83-2.44-4.35.13-.72,1.18Z"/>
      <path class="cls-2" d="M253.89,7.89s-1.6-.46-.75-.15c.54.13.74.17.75.15Z"/>
      <path class="cls-2" d="M230.74,7.85c.4.01.79.02,1.14.01,5.36-.01,4.65-1.03-1.14-.01Z"/>
      <path class="cls-2" d="M251.44,6.77c2.37,0-4.82-1.05,0,0h0Z"/>
      <path class="cls-2" d="M244.91,5.72c10,.32-4.26-3.75-3.94.22,1.33.21,2.65-.06,3.94-.22Z"/>
    </g>
    <path class="cls-1" d="M250,413.87c-114.1,0-206.93-92.83-206.93-206.93S135.9,0,250,0s206.94,92.83,206.94,206.94-92.83,206.93-206.94,206.93ZM250,10.41c-108.36,0-196.53,88.16-196.53,196.53s88.16,196.53,196.53,196.53,196.53-88.16,196.53-196.53S358.37,10.41,250,10.41Z"/>
  </g>
  <g>
    <path class="cls-1" d="M204.68,483.01h-20.45l-14.69-53.5h13.75l9.29,35.86c.72,3.02,1.37,6.84,1.87,9.72h.14c.58-2.95,1.22-6.7,1.94-9.72l9.29-35.86h13.61l-14.76,53.5Z"/>
    <path class="cls-1" d="M267.75,483.01v-26.57c0-3.17.07-5.62.29-8.71h-.14c-1.08,2.45-2.3,4.75-3.46,6.84l-6.84,12.53h-7.85l-6.7-12.53c-1.15-2.09-2.38-4.54-3.46-6.84h-.14c.14,3.1.22,5.54.22,8.71v26.57h-12.96v-53.5h13.18l10.37,19.01c1.15,2.02,2.3,4.32,3.31,6.55h.14c1.08-2.23,2.23-4.61,3.38-6.62l10.44-18.94h13.18v53.5h-12.96Z"/>
    <path class="cls-1" d="M308.72,484.23c-7.13,0-14.62-.86-18.07-1.73v-8.79c4.61.36,9.58.86,16.56.86,6.05,0,8.57-1.8,8.57-5.83,0-3.02-1.3-4.25-6.34-6.41l-7.78-3.31c-7.63-3.24-12.38-7.06-12.38-15.91,0-10.58,7.34-14.76,20.88-14.76,7.13,0,13.18,1.08,16.34,1.8v8.64c-4.97-.43-9.65-.86-15.62-.86-5.47,0-8.35,1.08-8.35,4.75,0,2.74,1.15,3.82,6.05,5.83l7.56,3.1c8.93,3.67,13.1,7.92,13.1,16.35,0,11.09-7.56,16.27-20.52,16.27Z"/>
  </g>
</svg>