<?xml version="1.0" encoding="UTF-8"?>
<svg id="Layer_2" data-name="Layer 2" xmlns="http://www.w3.org/2000/svg" viewBox="0 0 119.31 119.31">
  <defs>
    <style>
      .cls-1 {
        fill: #27b4e8;
      }

      .cls-1, .cls-2 {
        stroke-width: 0px;
      }

      .cls-2 {
        fill: #1c2f5d;
      }
    </style>
  </defs>
  <g id="Layer_1-2" data-name="Layer 1">
    <g>
      <path class="cls-1" d="M14.04,50.44c1.11.82,2.46,1.26,3.84,1.26,1.37,0,2.7-.43,3.81-1.24l10.57,10.92c-1.99,2.97-1.2,6.99,1.77,8.99,2.97,1.99,6.99,1.2,8.99-1.77,1.17-1.74,1.42-3.94.68-5.9l9.96-12.18c2.91,2.07,6.95,1.39,9.02-1.52,1.79-2.51,1.55-5.94-.56-8.19l10.61-12.8c2.6,2.45,6.69,2.32,9.14-.28.41-.44.76-.93,1.04-1.46l8.3,4.95c-1.7,3.16-.51,7.1,2.65,8.8,3.16,1.7,7.1.51,8.8-2.65,1.7-3.16.51-7.1-2.65-8.8-2.5-1.34-5.57-.91-7.6,1.06l-8.85-5.28c.59-3.53-1.8-6.86-5.33-7.45-3.53-.59-6.86,1.8-7.45,5.33-.24,1.44.01,2.91.72,4.19l-10.92,13.18c-3.12-1.75-7.06-.64-8.81,2.48-1.26,2.24-1.07,5.01.48,7.07l-9.59,11.74c-2.25-2.73-6.27-3.15-9.03-.94l-10.51-10.86c2.12-2.88,1.5-6.93-1.38-9.05-2.88-2.12-6.93-1.5-9.05,1.38-2.12,2.88-1.5,6.93,1.38,9.05Z"/>
      <path class="cls-2" d="M52.93,58.32v59.1c2.21.25,4.45.4,6.73.4.66,0,1.31-.03,1.97-.05v-59.45h-8.7Z"/>
      <path class="cls-2" d="M101.17,100.38v-52.93h-8.7v60.23c3.14-2.15,6.05-4.59,8.7-7.3Z"/>
      <path class="cls-2" d="M72.7,36.37v79.96c2.99-.69,5.9-1.6,8.7-2.73V36.37h-8.7Z"/>
      <path class="cls-2" d="M33.16,78.09v33.33c2.78,1.43,5.68,2.64,8.7,3.61v-36.94h-8.7Z"/>
      <path class="cls-2" d="M13.39,58.32v36.56c2.56,3.36,5.48,6.43,8.7,9.15v-45.72h-8.7Z"/>
      <path class="cls-2" d="M59.66,119.31C26.76,119.31,0,92.55,0,59.66S26.76,0,59.66,0s59.66,26.76,59.66,59.66-26.76,59.66-59.66,59.66ZM59.66,3C28.42,3,3,28.42,3,59.66s25.42,56.66,56.66,56.66,56.66-25.42,56.66-56.66S90.9,3,59.66,3Z"/>
    </g>
  </g>
</svg>