<?xml version="1.0" encoding="UTF-8"?>
<svg id="Layer_2" data-name="Layer 2" xmlns="http://www.w3.org/2000/svg" viewBox="0 0 119.31 119.31">
  <defs>
    <style>
      .cls-1 {
        fill: #27b4e8;
      }

      .cls-1, .cls-2 {
        stroke-width: 0px;
      }

      .cls-2 {
        fill: #1c2f5d;
      }
    </style>
  </defs>
  <g id="Layer_1-2" data-name="Layer 1">
    <path class="cls-2" d="M59.66,119.31C26.76,119.31,0,92.55,0,59.66S26.76,0,59.66,0s59.66,26.76,59.66,59.66-26.76,59.66-59.66,59.66ZM59.66,3C28.42,3,3,28.42,3,59.66s25.42,56.66,56.66,56.66,56.66-25.42,56.66-56.66S90.9,3,59.66,3Z"/>
    <g>
      <path class="cls-2" d="M56.24,70l1.11-.63s-.07-.23-1.32-.62c-1.39-.44-5.3.03-6.81.4-1.74.43-2.42.64-4.56-.22-.04-.01-.07-.03-.11-.05-.02-.08-.05-.18-.1-.33-.12-.36-.52-.3-.89-.67-.36-.37-.3.03-.4-.3-.1-.33-.37-.3-.86-.69-.48-.39-.44-.19-.42-.36s-.55-.28-1.08-.53c-.5-.24.73.02.87.05-.04-.02-.16-.09-.58-.35-.65-.42-.76-.33-.97-.59-.21-.25-.29-.39-.94-.63s-.53-.4-.53-.4c0,0-.79-.19-1.19-.59-.41-.4-.02-.37-.02-.37l-.7-.1s-.23-.13-1.42-.43c-1.19-.3-.27-.16-.27-.16,0,0-.46-.07-.99-.17-.53-.1.11-.23.11-.23,0,0-.71-.05-1.24-.28-.53-.23.36-.44.36-.44,0,0-.74.01-1.15-.22-.41-.23-.08-.31-.08-.31,0,0-.9.09-1.29.06-.07,0-.11-.03-.13-.06-.05-.1.17-.3.32-.43-.5-.02-1.2,0-2.01.25-.39.12-.73.26-1.01.4-5.52-.23-10.75,2.97-11.26,3.64l-1.38,1.56c-.17.19,3.02,1.43,2.99,1.83-.02.3-3.04-1.54-2.99-1.36.48,1.62,1.54,4.92,10.23,7.62.43.13.96.33,1.58.55.99.58,2,1.15,2.93,1.74.02,0,2.43-.03,2.44-.04.02,0-1.01-.32-.98-.33-.45-.17-.89-.34-1.34-.52,1.87.38,4.21.58,7.14.2.16.1.36.21.6.28.58.18,1.08.08,1.3.02-.12-.09-.24-.18-.35-.27.73.09,1.22,0,1.54-.1.11-.04.36-.12.72-.19.37-.07.38-.04.68-.1.68-.13,1.27-.43,1.27-.43l.55-.19c-.38-.1-.8-.23-1.24-.43-.09-.04-.18-.08-.27-.12,1.76-.8,3.43-1.57,4.98-1.31,1.79.31,4.44,2.14,5.64,2.55,2.59.88,2.67.35,2.67.35l-2.52-3.74,3.36-2.21ZM19.41,66.45c-.54-.08-.91-.58-.83-1.11s.58-.91,1.11-.83.91.58.83,1.11-.58.91-1.11.83Z"/>
      <path class="cls-2" d="M19.59,65.07c-.22-.05-.44.09-.49.32s.09.44.32.49.44-.09.49-.32-.09-.44-.32-.49Z"/>
    </g>
    <g>
      <path class="cls-2" d="M32.76,34.14s.03-.03.04-.04l.04-.07c-.13,0-.24.13-.24.25,0,.13.08.25.2.29.12.04.27,0,.35-.11.07-.11.06-.27-.04-.36-.1-.09-.27-.08-.35.03Z"/>
      <path class="cls-2" d="M94.08,41.18c-.68-.61-1.79-1.6-2.85-3.03-.95-1.27-1.58-2.11-1.93-3.41-.12-.46-.17-.8-.25-3.84-.05-1.92-.07-2.88-.07-2.98.19-2.11.98-3.62,2.15-5.89.74-1.43,1.18-1.95,1.48-2.26.61-.63,1.29-1.1,1.22-1.21-.07-.1-.74.21-.83.25-2.21,1.02-3.84,3.64-3.84,3.64-1.33,2.14-2.95,4.61-4.83,7.54-1.89.05-3.94.07-6.09.06.19-.11.38-.21.59-.26.48-.13,1.06-.03,1.43-.37-.85-.03-1.71-.07-2.56-.1-.22,0-.45-.02-.62-.16-.17-.14-.19-.46,0-.55-.4.2-1.68.81-1.63,1.37,0,.02,0,.03,0,.05-1.08-.02-2.18-.04-3.29-.07-.49-.23-.99-.45-1.48-.68-.8-.45-1.74-.64-2.65-.56-.13-.31-.6-.42-.86-.19-.61-.16-1.22-.32-1.84-.48-.49.22-1.06.13-1.58.04-.56-.1-1.12-.19-1.68-.29.01-.1.03-.2.04-.31-.19.13-.37.26-.56.4-1.06-.14-2.11-.28-3.17-.42-.32.02-.65.05-.97.07-2.82.03-5.63.07-8.45.1-1.31.02-2.69.01-3.81-.65.03-.12-.03-.26-.13-.32-.12-.08-.3-.04-.39.07-.08-.19-.23-.14-.21-.35-.18.02-.24-.21-.42-.2.02-.19-.13-.19-.11-.38-.2,0-.23-.16-.42-.08.1-.2.02-.23,0-.45-.01-.22,0-.64-.23-.63.2-.18.23-.54.08-.82-.13-.24.47-.76.07-1.1.3-1.07.51-.94.37-1.73-1.95.27-3.2,1.91-4.15,3.64-.46.83-.92,1.98-1.16,2.9-.11.44-.63,1.19-.7,1.75-1.91.66-4,2.44-5.73,3.18-5.13,2.2-11.17,2.83-16.74,2.55-.14.68,4.77.41,7.4.23,2.67-.19,5.24-.82,7.82-.11-1.53.36-3.59.91-4.93,1.73,1.92-.07,4.18.06,5.94.35,2,.33,3.68.92,5.38,1.47.66.21,2.2.29,3.92.29,2.43,1.56,5.23,2.48,8.11,2.64v-.13c-2.79-.16-5.5-1.03-7.87-2.51.26,0,.52,0,.79,0,.17.07.35.13.53.19.2.07.4.14.58.21.85.34,1.73.64,2.61.89,1.74.5,3.53.84,5.32,1.01v-.13c-1.77-.17-3.55-.51-5.28-1.01-.88-.25-1.75-.55-2.6-.89-.18-.07-.38-.14-.58-.21-.06-.02-.13-.04-.19-.07,2.3-.03,4.61-.13,5.51-.13,5.46-.02,9.54-.31,13.41-.91.41.15.94.18,1.33.35.27.12,1.67.73,1.69,1.05,1.11.9,2.07,2,3.29,2.73.3.18.72.32.97.08.2-.19.17-.52.03-.76-.14-.24-.36-.41-.53-.62-.74-.86-.61-2.32.27-3.03.24-.19.52-.34.74-.56.22-.22.36-.56.22-.84-.01-.02-.02-.04-.04-.06,1.66-.42,3.41-.9,5.33-1.44.31.2.77.29,1.08.44.52.25,1.01.55,1.47.89-.23-.14-.25-.48-.11-.71.14-.23.38-.36.62-.48.9-.43,1.88-.7,2.88-.79-.76-.2-1.56-.24-2.33-.12.02-.08-.01-.17-.06-.24,1.85-.49,6.52-1.12,6.52-1.12.53.63,1.32,1.58,2.28,2.76,1.74,2.12,1.79,2.23,2.14,2.63,2.77,3.19,6.67,4.65,6.77,4.49.04-.06-.52-.37-1.65-1.38ZM33.64,34.43c-.1.29-.39.49-.69.52-.3.02-.63-.15-.73-.43-.14-.41.18-.95.61-1.01.53-.07,1,.38.81.93ZM34.07,34.4l-.13-.02c.05-.29-.04-.61-.24-.83-.2-.22-.5-.35-.8-.33v-.13c.32-.02.67.12.9.37.22.25.33.61.27.94Z"/>
    </g>
    <g>
      <path class="cls-2" d="M97.26,78.19h0s.76-2.17,1.35-3.09c.59-.92.44-1.91.44-1.91,0,0-.23,1.05-.59,1.54-.36.49-1.14.77-1.14.77.09-.32.2-.89.08-1.59-.17-.96-.68-1.59-.92-1.84,0,.15-.02.27-.03.37-.03.2-.08.44-.19.59-.21.29-.72-1.46-.72-1.46,0,0,.1.51-.22.95-.13.18-.22.34-.32.44h0c-.19-.26-.37-.49-.53-.69l-.23-.36c.1-1.38-.28-2.27-.54-2.74-.43-.78-1.13-1.33-2.51-2.4-.71-.55-1.33-.98-1.77-1.27l-.11.5-1.16.07,1.74,2.41.08.26-3.88-1.85-.91.22-1.28-.68c.02.34.04.68.05,1.02.24.29.63.74,1.09,1.3,1.53,1.85,1.8,2.25,2.42,2.81.47.42,1.19.98,2.25,1.47.08.09.16.19.23.28-.24.61-.58,1.41-.87,1.86-.52.8-.38,1.66-.38,1.66,0,0,.2-.91.51-1.34.31-.43.99-.67.99-.67-.08.28-.17.78-.07,1.38.15.83.59,1.38.8,1.6,0-.13.02-.24.03-.32.02-.18.07-.38.16-.51.08-.11.2.11.32.39,0,1-.23,2.13-.96,3.17-.99,1.41-2.39,1.95-2.98,2.14,0,0-6.87,2.59-9.97,2.16-.91-.12-1.96-.12-3.13-.1.45-.28.82-.58,1.1-.84-2,.02-4,.04-6,.06.52-.43,1.32-1.04,2.38-1.61,1.86-1,3.39-1.42,3.39-1.42,0,0-.63-.06-3.4.42,1.02-.66,2.03-1.54,2.03-1.54,0,0-2.19.79-3.32,1.34-1.26.62-2.97,1.53-4.94,2.84,0,0-.02,0-.02,0-3.8-.45-6.9-.34-9.11-.13-3.32.31-7.07,1.07-9.91,1.65-1.81.37-1.81.41-2.7.55-.89.14-3.18.45-5.62,1.08-.56.15-1.08.3-1.24.71-.29.77.88,1.82,1.05,1.97.53.34,1.74,1.79,1.74,1.79l-3.99-1.16.03.97s2.56,1.93,3.83,2.45c7.26,2.96,15.37,4.15,15.37,4.15.73.11,1.44.21,2.14.31,1.03,1.65,4.22,6.7,4.96,7.11.89.49,2.46.56,2.46.56-1.31-1.32-1.56-1.68-1.52-1.74.06-.07.56.42,1.42.71,1.1.37,2.26.03,2.26.03,0,0-.64-.23-1.52-.74-.69-.41-1.18-.88-1.49-1.23-.49-.43-.99-.91-1.49-1.42-.97-.99-1.79-1.98-2.5-2.93,3.88.5,7.2.77,10.25.45,1.1,1.01,2.07,1.83,2.41,1.93.98.28,2.52,0,2.52,0-1.57-.99-1.9-1.29-1.87-1.35.04-.08.64.29,1.54.37,1.15.11,2.2-.48,2.2-.48,0,0-.67-.08-1.64-.38-.68-.21-1.21-.51-1.59-.77.46-.13.91-.28,1.37-.45.71-.27,1.52-.63,3.03-1.12,5.25-1.72,7.1-1.23,10.13-2.41,1.07-.42,4.11-1.77,6.44-4.86,3.09-4.11,3.14-8.93,2.69-11.42ZM46.8,91.31c-.94-.22-1.53-1.16-1.31-2.1s1.16-1.53,2.1-1.31,1.53,1.16,1.31,2.1-1.16,1.53-2.1,1.31Z"/>
      <path class="cls-2" d="M47.53,88.79c-.59-.13-1.17.23-1.31.82s.23,1.17.82,1.31,1.17-.23,1.31-.82-.23-1.17-.82-1.31Z"/>
    </g>
    <g>
      <g>
        <polyline class="cls-1" points="58.4 50.37 59.32 47.63 59.57 47.29 60.05 47.63 62.34 44.76 63.02 44.76 63.95 43.98 63.95 44.32 64.92 43.98 64.29 44.71 64.39 45.44 64.92 45.54 64.92 46.8 65.26 46.71 64.92 47.63 65.26 47.63 65.26 48.36 65.51 48.36 65.21 49.04 65.8 49.04 65.8 50.09"/>
        <g>
          <polyline class="cls-1" points="86.6 55.14 88.06 55.14 87.86 55.48 87.37 55.48 87.23 55.97 82.56 57.62 77.2 64.19 76.08 64.19 72.43 61.81 72.43 62.39 71.56 62.44 71.31 63.22 69.4 61.72"/>
          <path class="cls-1" d="M98.11,57.85c-.32-.29-.66-.59-1.02-.91-.37-.34-.71-.7-1.04-1.05-.53-.55-1.02-1.07-1.53-1.43l-.08-.05v-1.31l.03-.04c.94-1.58,1.9-2.97,3.21-4.65.32-.42.58-.88.83-1.34.01-.03.03-.05.04-.08-1.21.53-2.68,1.38-4.38,2.53-1.96,1.33-3.5,2.61-4.57,3.8l-.05.05h-.07c-.44.05-.83.04-1.21.04-.37,0-.75-.01-1.17.03h-.04s-.04-.01-.04-.01c-9.11-3.72-16.24-4.02-18.59-4.12-2.75-.12-5.81.02-7.63.1-4.39.19-6.81.3-9.64,1.05-2.52.67-4.97,1.73-7.3,3.14l-.05.02c-.31.07-.61.16-.89.28-.58.24-1.11.58-1.57,1.01l1.21,1.37h-.38c-.67.03-1.46.17-1.55.34.02.07.3.44.62.76.12.07.33.2.57.36.76.5,1.9,1.25,3.49,2.04.02,0,2.96,1.33,5.33,2.07,5.57,1.75,11.06,1.21,13.4.97l.98-.09c2.77-.25,6.23-.57,10.44-2.02.05-.03,7.47-3.82,8.24-4.23.69-.37,1.34-.64,1.92-.88.42-.17.78-.32,1.04-.46l.08-.02h3.56l.35.23c.28.19.52.35,1.15.73.67.41,1.24.78,1.74,1.11,1.06.69,1.82,1.19,2.81,1.56,1.14.43,2.36.72,3.62.87-.51-.6-1.14-1.16-1.85-1.79ZM48.18,54.43c-.54-1.42-1.86-1.29-2.25.25.22-1.77,1.86-1.94,2.25-.25ZM48.06,54.62c0,.6-.44,1.1-.97,1.1s-.97-.49-.97-1.1.44-1.1.97-1.1.97.49.97,1.1ZM46.04,55.55c-.06-.17-.1-.36-.13-.55.38,1.63,1.9,1.67,2.34.08-.22,1.54-1.69,1.84-2.21.47Z"/>
        </g>
      </g>
      <circle class="cls-1" cx="47.12" cy="54.73" r=".42"/>
    </g>
  </g>
</svg>