<?xml version="1.0" encoding="UTF-8"?>
<svg id="Layer_2" data-name="Layer 2" xmlns="http://www.w3.org/2000/svg" viewBox="0 0 119.31 119.31">
  <defs>
    <style>
      .cls-1 {
        fill: #27b4e8;
      }

      .cls-1, .cls-2 {
        stroke-width: 0px;
      }

      .cls-2 {
        fill: #1c2f5d;
      }
    </style>
  </defs>
  <g id="Layer_1-2" data-name="Layer 1">
    <g>
      <g>
        <path class="cls-1" d="M36.52,60.09h-4.51c-.62,0-1.13.59-1.13,1.32v5.67c1.97,1.94,4.25,3.56,6.77,4.78v-10.46c0-.73-.51-1.32-1.13-1.32Z"/>
        <path class="cls-1" d="M47.79,49.49h-4.51c-.62,0-1.13.59-1.13,1.33v22.74c2.13.57,4.36.88,6.67.88.03,0,.07,0,.1,0v-23.62c0-.73-.51-1.33-1.13-1.33Z"/>
        <path class="cls-1" d="M59.07,54.79h-4.51c-.62,0-1.13.59-1.13,1.33v17.9c2.39-.43,4.66-1.2,6.77-2.25v-15.65c0-.73-.5-1.33-1.13-1.33Z"/>
        <path class="cls-1" d="M71.47,60.75v-12.59c0-.73-.51-1.33-1.13-1.33h-4.51c-.62,0-1.13.59-1.13,1.33v20.74c2.78-2.21,5.1-4.98,6.77-8.15Z"/>
      </g>
      <g>
        <g>
          <polyline class="cls-1" points="40.81 39.09 41.37 37.42 41.52 37.22 41.82 37.42 43.21 35.68 43.62 35.68 44.19 35.2 44.19 35.41 44.78 35.2 44.39 35.65 44.45 36.09 44.78 36.15 44.78 36.92 44.99 36.86 44.78 37.42 44.99 37.42 44.99 37.87 45.13 37.87 44.96 38.28 45.31 38.28 45.31 38.92"/>
          <g>
            <polyline class="cls-1" points="57.97 41.99 58.86 41.99 58.74 42.2 58.44 42.2 58.35 42.49 55.51 43.5 52.25 47.5 51.57 47.5 49.35 46.05 49.35 46.4 48.82 46.43 48.67 46.91 47.5 46"/>
            <path class="cls-1" d="M64.98,43.64c-.2-.18-.4-.36-.62-.56-.22-.21-.43-.43-.63-.64-.32-.34-.62-.65-.93-.87l-.05-.03v-.8l.02-.03c.57-.96,1.16-1.81,1.95-2.83.2-.25.35-.54.5-.81,0-.02.02-.03.03-.05-.74.32-1.63.84-2.67,1.54-1.2.81-2.13,1.59-2.78,2.31l-.03.03h-.04c-.27.03-.51.03-.74.02-.22,0-.45,0-.71.02h-.03s-.02,0-.02,0c-5.55-2.26-9.88-2.45-11.31-2.51-1.67-.07-3.53.01-4.65.06-2.67.12-4.14.18-5.87.64-1.53.41-3.03,1.05-4.44,1.91h-.03c-.19.05-.37.11-.54.18-.35.15-.67.35-.96.62l.74.84h-.23c-.4.02-.89.1-.94.21,0,.05.18.27.38.46.08.04.2.12.35.22.46.3,1.16.76,2.12,1.24.01,0,1.8.81,3.25,1.26,3.39,1.07,6.73.73,8.16.59l.6-.06c1.69-.15,3.79-.35,6.35-1.23.03-.02,4.55-2.33,5.01-2.57.42-.22.82-.39,1.17-.53.25-.1.47-.19.63-.28h.05s2.16-.01,2.16-.01l.21.14c.17.11.32.21.7.45.41.25.76.48,1.06.67.64.42,1.11.73,1.71.95.69.26,1.43.44,2.2.53-.31-.36-.69-.71-1.13-1.09ZM34.59,41.56c-.33-.87-1.13-.78-1.37.15.14-1.08,1.13-1.18,1.37-.15ZM34.52,41.68c0,.37-.27.67-.59.67s-.59-.3-.59-.67.27-.67.59-.67.59.3.59.67ZM33.29,42.24c-.04-.11-.06-.22-.08-.33.23.99,1.16,1.02,1.42.05-.13.94-1.03,1.12-1.34.29Z"/>
          </g>
        </g>
        <g>
          <path class="cls-2" d="M93.36,85.97l-12.71-12.71-1.8,1.8-3.78-3.78c-1.51,1.86-3.21,3.56-5.07,5.06l3.78,3.78-1.8,1.81,12.71,12.71c2.4,2.39,6.29,2.39,8.68-.01,2.39-2.4,2.39-6.27,0-8.67h0Z"/>
          <path class="cls-2" d="M48.84,20.87c-16.15,0-29.25,13.1-29.25,29.25,0,16.16,13.09,29.26,29.25,29.26,16.16,0,29.26-13.09,29.26-29.25h0c0-16.17-13.1-29.27-29.26-29.26ZM48.84,74.1h0c-13.24,0-23.97-10.73-23.97-23.98s10.73-23.97,23.98-23.97c13.24,0,23.97,10.73,23.97,23.98-.02,13.23-10.74,23.96-23.97,23.97Z"/>
        </g>
        <path class="cls-2" d="M59.66,119.31C26.76,119.31,0,92.55,0,59.66S26.76,0,59.66,0s59.66,26.76,59.66,59.66-26.76,59.66-59.66,59.66ZM59.66,3C28.42,3,3,28.42,3,59.66s25.42,56.66,56.66,56.66,56.66-25.42,56.66-56.66S90.9,3,59.66,3Z"/>
      </g>
    </g>
  </g>
</svg>