<?xml version="1.0" encoding="UTF-8"?>
<svg id="Layer_2" data-name="Layer 2" xmlns="http://www.w3.org/2000/svg" viewBox="0 0 119.31 119.31">
  <defs>
    <style>
      .cls-1 {
        fill: #1c2f5d;
      }

      .cls-1, .cls-2 {
        stroke-width: 0px;
      }

      .cls-2 {
        fill: #27b4e8;
        fill-rule: evenodd;
      }
    </style>
  </defs>
  <g id="Layer_1-2" data-name="Layer 1">
    <g>
      <g>
        <path class="cls-2" d="M74.52,115.52c-1.05-.43-1.46-1.71-2.67-1.9-1.25-.33-2.58-.69-3.74-1.34-1.12.03-2.23.28-3.35.21-.94.28-1.99.74-2.93.3-1.05-.53-2.2-.8-3.29-1.2-1.44-1.07-2.72.44-4.24.3-1.27.28-2.59-.02-3.89-.09-1.57.03-3.15.25-4.66.16-1.48-.48-2.34.99-2.72,2.1.47.57.1.91-.2,1.4,10.15,3.17,21.14,3.5,31.46.95,1.02.23.8-.77.23-.9Z"/>
        <path class="cls-2" d="M40.87,114.82c.26.09.52.18.79.27.39.2.58.24.64.21.16-.1-.9-.89-1.42-.48Z"/>
        <path class="cls-2" d="M38.63,113.97c.54.21,1.08.45,1.64.64-.42-.56-.93-.82-1.64-.64Z"/>
        <path class="cls-2" d="M99.74,16.65l-14.12,15.4s-.01,0-.01.01l14.14-15.41c-1.6-1.47-3.27-2.85-5.02-4.12-1.8-1.4.01.32.38,1.31.92,1.1.32.56-.63.47.02-.62.12-1.36-.73-1.91-1.51-.99-2.66-2.42-4.24-3.33-.41.46,1.64,2.55,2.52,3.18,2.44,2.07-2.47-1.29-1.82.39,1.12,1.37-.29.16-1.1,1.15-.49-.83-1.96.34-1.49,1.51-.94.77-.7-.89-.85-1.1-1.94-1.49-.3.62-.34,1.63-1.85-.86.13,1.83-1.27,1.13-1.52-1.4,1.08,2.09-.84.67-.72-1.18-1.43-1.72-2.25-2.63.24-.12,3.62,2.04,3.07-.21-1.03-1.15-2.84-1.49-3.9-2.28-1.54.49.28-.89-1.06-.73-.33-.45-.54-.8-.68.32.05-.95-.25-.3-.44.25.3-1.65-.82.34-1.24-.55-.07.69-.63.04-.98.83-1.05.65-.53,1.19-1.64,2.05-.2.2-.44.41-.69.63h0s0,0,0,0c-.02-.06-.08-.12-.08.01,0,.01,0,.02,0,.03,0,0,0,0,.01,0,0,0,0,0,0,0,0,0,0,0,0,0-.56.46-1.22.94-1.88,1.42,1.08-.51.17.64-.21-.06-1.36.26-1.36,1.27-2.47,1.03.55.26-.52.19-.31.63,2.07.52-.89-.33-.09.79,1.36-.2.25.44-.4.65.48.3.77.14.16.9.76,1.58,3.75-1.16,3.07,1.35,1.1.35-.27,1.88.67,2.06.96-.82,2.37-.27,2.18-1.85-.51-1.38,1.51-.18,1.31-1.67-.87-.58-1.09-2.23.09-2.83,1.22-.27.98-1.43,1.78-2.19,2.51.3-.46,2.07-.31,3.11-.48.97,1.2,1.53.46,1.78.61.99,2.27-.93,3.08.11,2.19,1.31-3.27-.11-2.44,1.88.72,2.07-1.51-.57-1.6,1.19.06.59-.03.84-.19,1.02h0s0,0,0,0c0-.06-.16-.18-.11.02.04.01.06.02.08.01h0s0,0,0,0c-.19.21-.45.34-.64.82-1.21-.46-2.84.39-4.23-.46-1.01.6-1.94-.34-1.76-1.13,1.24.33-.25-.28.56-.73-.14-.58.94-2.18-.36-1.25-1.09.4-.12-.14.03.51-1.03-.18-1.09,1.04-.87,2.05-.28,2.16-2.77-.53-3.48,1.62-.08-.03-.16-.06-.23-.07.01.03.02.07.01.13-.25-.03-.29-.11-.25-.17-1.45-.13-2.52,1.94-3.84.63.39,2.09-2.52-.46-2.31,1.04,1.07.79,2.25,2.69.79,4.1-1.84.2-4.02-2.48-5.54-.93.27,1.86-1.76,2.42-1.66,4.07,1.07.27,1.92,2.03,3.19,1.59,1.94,1.01,3.6-.74,4.59-1.98,1.54.05,2.22-1.62,3.6-1.62,1.34,1.45,3.53-1.38,4.2,1.04.07,2.26,4.34,2.53,3.17,4.94.75.87,1.29-1.11.92-1.68,2.31,1.28-.01-1.26-1.04-1.56-.51-1.08-2.36-1.82-1.49-3.11,1.37-1.07.46,1.43,1.42.37.47,1.52,2.06,2.23,3.39,3.2.22,1.01.58,2.76,1.87,3.38,1.79.73-1.39-.32-.19,1.03.96.06,1.75-.03,1.2-.49,1.59.69-.82-1.2.46-.38,1.3.95.21-.7-.68-.47.5-.04-.55-2.12.37-1.15.17-.56,2.28-1.03,2.22.01.88-.3,2.79-.33,1.04-1.36.79-1.2,1.03-3.75,2.92-3.61l.13-.14c-.29.47-.15.77.74.64.98.18-1.23.69-.08.67.14,1.15,1.77.33,2.14-.05-.61.23-1.39-.16-1.72-.78.96.12,1.74-.53,2.77-.76.94-.37.4.27-.05.3-.51.18.33,1.1-.63,1.11-.05.2-.14.27-.19.28.06,0,.19.03.42.11.8.64,1.57,1.38,2.53,1.74.96.72.01,1.84-.93,1.45-.82.3-1.9-.14-2.56-.45-.84-.4-1.82-.42-2.72.2-1.94,0-.87.51-2.38.51-.79.23-1.99.64-.91,1.4-.12.85-.44.39.27,1.29-.28.62.89.32,1.26.83.49,1.09,1.38-.56,2,.14.84,1.17,2.55-.64,3.02-.03-.25.65.04,1.11.21,1.8-.66.64-.28,1.48-.92,2.04-.16,1.27-2.2.52-2.6.61-.68.31-2.07-.09-3.09-.12-.73-.48-2.11-.48-2.76-1.11-.7.27-.74-.32-1.14-.48-.7-.48-2.67-.34-2.16.66-.49,1.59-2.44.02-3.51-.21-.82-1.11-2.01-1.67-3.17-1.95-.4-.46-1.11-.62-1.22-1.25.49-.31.77-.5.84-1.11-.84-.22.51-.71.37-1.08-.56.09-1-.74-1.54-.4-1.38-.24-2.06-.34-3.35-.66-1.05-.04-2.16-.61-3.06-.36-1.1.09-2.01.11-2.91.34-.44-.64-1.26-.2-1.94-.71-.11-1.25-1.09-.01-1.44.32-.54.92-2.14-.03-2.8,1.15-.82.21-.41,1.24-.85,1.68-.91,1.18-2.86.86-3.72,1.55-.65.22-1.31.79-1.66,1.23-.58.25-1,.71-1.54,1.17-1.26.34-.21,1.58-.87,2.16.04.8-.19,1.68-.61,2.26-.17.89-1.67,1.04-.96,2.13-.32.82.28,1.43.46,2.03.54.57.71,1.24.86,1.98.14.3.45,1.01.22,1.21.16.09.22.39.32.7.03,0,.03,0,0,0,.1.3.23.6.54.7.59.68,1.01,1.43,1.78,2.13.86,1.72,2.65.53,4,1.22.98.83,2.24.55,3.3.64.42.07,1.16.35,1.33,0-.5-.67.7.53.68.13.02.33,1.11-.13,1.75-.04.54-.02.1.3.93.34,1.73.23.46,2.29,2.19,2.08.4.36,1.14-.37,1.24.18.27-.16,1.68.28,1.37.91.34.52-.08.85-.2,1.43-.35.92-.49,1.03-.72,1.4.11.62-1.03.51-.47.84.81.52.24.52.49.97.82.45,1.21,1.25,1.75,1.86.64.42.44.88.64,1.57.32.42.53,1.25.69,1.71-.68.49-.31,1.24-.09,1.77.07.67-.31,1.1-.83,1.33-.58.61-1.72,1.38-1.68,2.32-.3.32-.19,1.4.62,1.67-.08.68.54,1.25.7,1.84.99.51-.04,1.27.47,2.04-.06.68-.17,1.4.38,1.93.91.23.89,1.34,1.41,1.98.79.87-.61.55-.38,1.17.07.74.59.46,1.12.82,1.62-.01,3.25.07,4.92.21-.52-.81.26,0,.49.05.03,0,.05,0,.06-.03,1.82-.09,3.86-1.09,5.43-2.09.64-.35,1.62-.92,1.45-1.82.59-.74,2.28-.16,2.83-1.13.21-.64.19-1.08.14-1.67-.73-1.13,1.61-1.19,1.54-1.89,1.35-.15,2.78-.43,3.88-1.33.73-1.12,1.05-2.02,1.08-3.22.57-.51-.5-.76-.35-1.38-.15-.49.42-1.03.3-1.53-.83-.57.11-1.37.53-1.89-.05-.89,1.11-1.24,1.66-1.75,1.1-1.04,2.27-2.59,3.84-3.22.46-.58,1.31-.9,1.68-1.53,1.36-.88,1.66-2.75,2.68-3.94.27-.86.93-1.8.59-2.6-.9.64-2.39.56-3.21,1.26-.89-.21-2.06.67-2.46-.5-.02-.63.28-1.31-.79-1.84-.75-.49-1.23-1.26-1.87-1.4-.5-.63-.21-1.49-.52-1.93-.42-.49-1.59-1.09-1.28-1.91.27-.69-.15-1.11-.24-1.67-1.06-.24-.93-1.49-1.06-1.7-.25-.94-1.26-1.61-1.61-2.81-.59-.82-.63-1.82.02-.6.65,1.06,1.1-.71,1.75.58.11.92,1.24,1.31,1.36,2.16.21.62,1.02.94,1.12,1.4.07,1.13-.21,2.34.98,2.9.9.46,1.03,1.86,1.92,2.46-.01.9-.23,1.75.3,2.37-.43.99,1.41,1.08,1.71.35.84.07,1.34-.49,2.19-.7.9-.64,1.9-.94,2.76-1.75,0-.78,1.33-1.03,1.92-1.43.38-.73,1.25-1.08,1.86-1.79-.28-.78.53-1.2.72-2.07.36-.66.15-1.37-.67-1.74-.84.03-1.65-.73-1.75-1.62-.49.77-1.08,2.11-2.14,1.62-.87.72-.83-.68-.96-1.17-.18.43-.91,1.29-.75-.14-.47-.71-1.23-1.21-1.38-1.93-.93-.67.33-.88-.28-1.33.98.11,1.72.12,2.11,1.15.47.78,1.57,2.08,2.74,1.63.37-.44,1.24-1.03,1.48-.11.74,1.2,1.4.13,2.35.55.75-.21,1.76-.51,2.44-.97.63-.71.51.37.83.42.37,0,.58.41.83.52.27-.35.54,1.16,1.21.36.54-1.17-.04.85-.59.85.47.59,1.01,1.26,1.29.59.4-1.18.28-1.8.71-.48.03.55-.06,1.41.13,1.89.21.74.35,1.65.59,2.41.38.51.34,1.59.62,2.23-.08.22.23.03.25.46.45.67.33,1.64.82,2.09.46-.86,1.13-1.88.97-2.78.3-.97.01-2.53.16-3.75.78-.77.5-1.7,1.21-2.45.05-1.06.49-1.76.77-2.65-2.18-12.11-8.73-23.39-17.78-31.63Z"/>
        <path class="cls-2" d="M94.51,79.61c-.61.24-.36,1.08-1.11,1.19-.22-.08-.25.49-.56.63-.61-.06-.45.88-1.31.67-.91.11-2.66.76-2.2,1.73-.11.56-.07,1.11-.91,1.41-.42.39-1.08,1.02-.85,1.57.28.25-.12,1.01.66,1.11.57.3,1.1-.19,1.66-.3h0c.76-.82,1.54-1.74,2.24-2.55.34-.9,1.3-1.45,1.66-2.27.56-.99.37-.88,1.2-1.73-.15-.4.13-1.11-.47-1.47Z"/>
        <path class="cls-2" d="M9.75,64.26c-.54-.76-.38-3.04-1.84-3.2-.52.57-.79.12-.98-.37.03.03.05.06.09.09.25.64.92.25.87-.34.12-1.4-1.1-.98-1.15-.28-.12-.3-.23-.39-.4.21.31-.92-.81-.83-1.3-1.13-.71-.45.95.56,1.55-.02,0,.01,0,.04.03.07.15,0,.05-.1,0-.1h0c.08-.09.14-.21.17-.38.89.83.52-1.13.66-2.08.16-1.7,0-3.82-1.33-5.01.02-1.03-1-1.18-.26-2.11.5-.57-1.11-2.41-.34-1.86.74-1.83-1.08-2.96-.59-4.85.35-1.72-.45-.34-.82.64C.12,56.99,1.28,71.99,7.48,84.59c.49.77.38.14.3-.52.01,0,.03.02.05.03.02-.04-.03-.06-.06-.07-.05-.42-.08-.85.06-.93.46,2.03.53-1.22.07-1.82-.79-2.07,2.17-.52,2.74-.76.28-1.38,1.32-2.77.99-4.39-.87-2.32,2.1-2.28,2.89-3.8.61-2.26-1.39-3.61-2.11-5.52-.86-.81-1.72-2.44-2.65-2.53Z"/>
        <path class="cls-2" d="M8.1,84.3c-.02-.21-.44-.25,0,0h0Z"/>
        <path class="cls-2" d="M8.11,84.18c.09-.18-.35-.21,0,0h0Z"/>
        <path class="cls-2" d="M94.18,82.62c-.39.34.24-.03,0,0h0Z"/>
        <path class="cls-2" d="M87.96,75.74c.17.07.26.07.3.05.11-.08-.28-.45-.3-.05Z"/>
        <path class="cls-2" d="M61,65.25c.22.07.35.07.42.04.2-.1-.18-.5-.42-.04Z"/>
        <path class="cls-2" d="M115.43,60.93c.04.09.31-.13.34-.3.79-.94,0-1.9-.24-2.5-.13.86-.49,1.89-.11,2.79Z"/>
        <path class="cls-2" d="M6.68,59.64s.03.02.04.02c.06-.01-.12-.33-.04-.02Z"/>
        <path class="cls-2" d="M43.09,57.15c.05,0,.12-.01.16-.02,0,0,0,0,0,0-.02,0-.07.01-.16.02Z"/>
        <path class="cls-2" d="M104.41,49.52c-.05.11.27-.06,0,0h0Z"/>
        <path class="cls-2" d="M5.69,47.98c.03.12.05.15.06.15.04-.01-.01-.39-.06-.15Z"/>
        <path class="cls-2" d="M6.03,46.69c.57-.89-.47-.57,0,0h0Z"/>
        <path class="cls-2" d="M7.18,45.04c.09-.05-.07-.53-.05-.01.02.02.04.02.05.01Z"/>
        <path class="cls-2" d="M7.34,43.61c.28-.37-.12-.64,0,0h0Z"/>
        <path class="cls-2" d="M4.16,43.32c.18-.66.14-.56,0,0h0Z"/>
        <path class="cls-2" d="M86.09,43.15h0c.56-.62,1.08-.89-.1-.48-.09-.06-1.11.11-.65.42.23.19.53.16.75.05Z"/>
        <path class="cls-2" d="M79.67,42.69c.28-.12.7.07.99-.11-.5-.43-1.27-.21-1.95-.52-.94.02.6.46.97.62Z"/>
        <path class="cls-2" d="M7.49,42.61c.14.09.13-.76,0,0h0Z"/>
        <path class="cls-2" d="M4.9,41.03c-.08.18-.15.37-.23.56-.21.52-.27.72-.25.73.07.04.88-1.6.48-1.29Z"/>
        <path class="cls-2" d="M7.82,41.87c.38-.01-.34-.44,0,0h0Z"/>
        <path class="cls-2" d="M81.45,41.25c.37.02-.12-.23,0,0h0Z"/>
        <path class="cls-2" d="M77.54,41.19c.37.11-.14-.52,0,0h0Z"/>
        <path class="cls-2" d="M80.66,41.13c.25.04-.24-.12,0,0h0Z"/>
        <path class="cls-2" d="M80.78,41.1c.36.11.04-.16,0,0h0Z"/>
        <path class="cls-2" d="M80.78,40.5c0-.09-.02-.13-.05-.14h-.04c-.08.03-.14.18.1.14Z"/>
        <path class="cls-2" d="M70.88,38.94c-1.72-.71-.32.77.46,1.03.65.2,1.06-1.67-.46-1.03Z"/>
        <path class="cls-2" d="M80.47,39.9c.24.07-.09-.46,0,0h0Z"/>
        <path class="cls-2" d="M76.49,39.6s-.55-.22-.21-.04c.16.04.21.05.21.04Z"/>
        <path class="cls-2" d="M80.87,39.31c.19-.55-.64-.16,0,0h0Z"/>
        <path class="cls-2" d="M7.97,38.56c.07-.21-.29-.86-.24,0,.15.1.22.07.24,0Z"/>
        <path class="cls-2" d="M75.91,38.25c.3.14-.07-.34,0,0h0Z"/>
        <path class="cls-2" d="M7.71,37.35c.3-.51.09-1.15.3-1.69-.09-1.26-.21-.7-.62.19.23-1.68-.33,0-.13.76.35-.66.16.44.46.74Z"/>
        <path class="cls-2" d="M67.25,37.33c.61.11.84-.8.93-1.24-.68-1.56-1.83.58-.93,1.24Z"/>
        <path class="cls-2" d="M62.99,36.08c1.18-.3-.63-1.22,0,0h0Z"/>
        <path class="cls-2" d="M64.54,36.01c.14-.55-.87-.09,0,0h0Z"/>
        <path class="cls-2" d="M61.49,35.84c.76-.19-.37-.35,0,0h0Z"/>
        <path class="cls-2" d="M68.05,35.09c1.12-1.67-1.52-.87-.45.14.14.27.4.07.45-.14Z"/>
        <path class="cls-2" d="M8.1,33.81c.62-1.17-.21-.94,0,0h0Z"/>
        <path class="cls-2" d="M84.44,33.33c.4-.25-.4-.05,0,0h0Z"/>
        <path class="cls-2" d="M8.34,32.91c.31-.43.16-.59,0,0h0Z"/>
        <path class="cls-2" d="M64.54,23.9c.27-.21-.58-.98-.52-1.83-1.21-.82.91-1.22.42-1.98-1.54-.06-.11-.5-.14-1.05-1.27-.32-2.48,1.97-1.85,2.19-1.33,1.06.71.76.33,1.25,1.1,1.5-1.92.23-1.14,1.49-1.71.47.02.85.61,1.03-.72.07-1.54-.07-2.29.49.37.51,2.88-.13,3.86.71,1.47.09-.37-.8.89-.71h0c1.35-.87-.73-.62-.16-1.58Z"/>
        <path class="cls-2" d="M66.08,26.04c.08,0,.16.02.23.04-.04-.13-.18-.1-.23-.04Z"/>
        <path class="cls-2" d="M62.66,25.94c.33.02-.23-.19,0,0h0Z"/>
        <path class="cls-2" d="M68.12,25.03c.13-.03-.15-.27-.29-.07.15.06.24.08.29.07Z"/>
        <path class="cls-2" d="M71.9,24.82l.23-.09c1.02-.48-1.54-.2-.23.09Z"/>
        <path class="cls-2" d="M15.39,24.8s0-.07,0-.11c0,.04,0,.08,0,.11Z"/>
        <path class="cls-2" d="M15.38,24.7c0-.11,0-.25.02-.43-.03.15-.03.29-.02.43Z"/>
        <path class="cls-2" d="M74,24.65c.04-.09-.39-.61-.24-.11.16.12.22.14.24.11Z"/>
        <path class="cls-2" d="M71.11,24.58c.24.14.33-.71,0,0h0Z"/>
        <path class="cls-2" d="M71.88,24.36c.16.15.21-.11.33-.11.84-1.53-1.57-.4-.33.11Z"/>
        <path class="cls-2" d="M35.12,11.91c.14-.33.36-.59.64-.8h0c.07-.14.1-.11.1-.07,1.13-.84,2.92-1.07,2.92-2.68-1.48-.09-3.39.82-4.8,1.67-1.76,1.19-3.85,1.04-5.57,2.42.32-1.24,2.46-1.68,3.44-2.63,1.76-1.77,4-3.06,6.29-4.03,1.91-.79,3.4.07,5-.63.1-.07.23-.14.39-.2-.13.08-.25.14-.39.2-.37.26-.23.51.51.16-.79.85,2.24.24,3.49-.03,1.78-.79-.63-.42-1.31-.3-1.96.15.3-.51.96-.51,1.95-.35-1.16.05.5-.35,1.95-.44,3.9-.97,5.92-.65,2.34.01-.21-.6-1.24-.3-2.03-.01-3.91.67-5.95.58,1.15-.27,2.14-.86,3.35-1.2,0,0-.01,0-.01,0,.09-.06.15-.1.19-.11-.05.03-.12.07-.18.12.02.01.04.02.07.02.06,0,.12-.03.12-.08.02-.01.03-.02.04-.03,0,0-.02.02-.04.03.58-.24.81-.3,1-.34-12.82,2.02-24.91,8.62-33.56,18.35-.33.6-3.04,2.58-1.57,2.56-.05.41-.07.81-.02,1.22.05-.7.28-1.75,1.02-2.08.49-.36,2.73-2.81,1.7-1.5-1.24,1.1.21.27.68-.07.2-.03.41-.08.61-.13.04-.13.27-.24.32-.1-.11.03-.21.07-.32.1-.03.09.03.18.28.21.05-.15.06-.24.04-.3,1.16-.36,2.25-.91,3.66-.55,1.57.65-1.78.28-1.18,1.33,2.43.89,1.54-1.7,3.21-2.69,1.31,0,1.81-1.49.12-1.37-1.5.31-.39-.13.49-.34,1.75-.76,1.76,1.88,3.06,1.45.91.53,3.93-.65,2.2-1.35-1.76-.62,1.19.43,1.14-.69.28-1.95,2.64-2.59,3.8-3.92,1.85-1.24-.58.18-1.1-.35Z"/>
        <path class="cls-2" d="M58.54,24.03c1.75.22,1.96-1.17,3.05-2.05-.49-.36-.77-1.1-1.51-.16-.54-.49-1.99.65-.83.74-.46.43-1.94,1.25-.71,1.47Z"/>
        <path class="cls-2" d="M76.03,23.39c1.32-1.31-.55-.9,0,0h0Z"/>
        <path class="cls-2" d="M27.56,19.85c-2.17.25,1.06,1.62-.39,2.07,1.01-.29.46.32.35.82.51.28.65-.43.83-.49-.68-.06,1.41-1.31.41-1.88.18-.59-.49-.71.44-1.07,2.09-.92-1.08-.27-1.64.55Z"/>
        <path class="cls-2" d="M78.1,22.68c.3-.03-.14-.27,0,0h0Z"/>
        <path class="cls-2" d="M78.2,22.53c1.88-.45-1-.91,0,0h0Z"/>
        <path class="cls-2" d="M70.36,22.44c.55.09.03-.43,0,0h0Z"/>
        <path class="cls-2" d="M26.72,21.94c.56-.18.07-.4,0,0h0Z"/>
        <path class="cls-2" d="M78.43,21.73c.09-.05-.05-.49-.18-.13.09.12.15.14.18.13Z"/>
        <path class="cls-2" d="M17.26,21.64s.03.01.04.01c.2.01.16-.57-.04-.01Z"/>
        <path class="cls-2" d="M61.84,21.54c.3.18.1-.58,0,0h0Z"/>
        <path class="cls-2" d="M23.86,21.41c.26-.05-.16-.22,0,0h0Z"/>
        <path class="cls-2" d="M24.31,21.35c.24.09.42.08.53.03.34-.15.11-.68-.53-.03Z"/>
        <path class="cls-2" d="M61.61,21.32c.14.07-.02-.24,0,0h0Z"/>
        <path class="cls-2" d="M24.16,21.22c.09.14.31-.18.43-.22,1.7-.42.07-.81-.43.22Z"/>
        <path class="cls-2" d="M61.89,21.06c.4-.03-.01-.32,0,0h0Z"/>
        <path class="cls-2" d="M20.4,20.7c.03.06.05.08.07.09.08.02.05-.33-.07-.09Z"/>
        <path class="cls-2" d="M61.86,20.74c.79.02-.23-.69,0,0h0Z"/>
        <path class="cls-2" d="M77.01,20.58c.51.03-.65-.7,0,0h0Z"/>
        <path class="cls-2" d="M24.31,20.43c.74-.03.28-2.1,0,0h0Z"/>
        <path class="cls-2" d="M62.19,20.28c.33-.05.14-1.57,0,0h0Z"/>
        <path class="cls-2" d="M61.61,19.71c.31-.04.12-.37,0,0h0Z"/>
        <path class="cls-2" d="M25.8,19.64c.15.02.21.02.22.01.02-.03-.42-.16-.22-.01Z"/>
        <path class="cls-2" d="M69.13,19.48c.23.15.02-.27,0,0h0Z"/>
        <path class="cls-2" d="M69.4,19.46c.25.02-.11-.25,0,0h0Z"/>
        <path class="cls-2" d="M61.84,19.43c.52.21-.01-.34,0,0h0Z"/>
        <path class="cls-2" d="M62.38,19.35c.33-.15,1.06-1.07-.12-.2-.06.22,0,.25.12.2Z"/>
        <path class="cls-2" d="M69.17,19.29c.21.16-.07-.18,0,0h0Z"/>
        <path class="cls-2" d="M52.76,19.07c.35-.19,1.39.24,2.1-.09,2.06-.92.39-1.95-1.04-1.88-1.19.7-.14-1.08-1.61-.37.53.74-.9.09-.31,1.18-1.01-.17.3,1.16.86,1.16Z"/>
        <path class="cls-2" d="M26.78,18.65c1.24-.76.18-1.86,0,0h0Z"/>
        <path class="cls-2" d="M65.92,18.44c.47-.09.05-.85,0,0h0Z"/>
        <path class="cls-2" d="M39.17,17.69c.05.06.09.08.12.08.14-.03.11-.55-.12-.08Z"/>
        <path class="cls-2" d="M64.53,6.44c-1.08.18-.16-.04-.96-.07.96.02,1.31-.28.14-.3.03-.16.02.05-.84-.07-1.69-.28-3.32.07-5.05-.41-.22.98-2.47-.34-2.53.53.18.36.68.13.47.7-1.64.99-3.51,1.62-5.36,2.07-.04.14-.32,1.4-1.43,1.41.7-1.29-.98-.39-1.54-.39-1.47,1.27,1.73-.34.96.37-1.21,1.04-2.34,1.06-3.52,1.04,1.38,1.08-1.1-.32-1.54.82-1.5,1.27-2.93,1.96-3.91,3.78.59.41.34.92.09,1.8.66-.3,1.29-.63,1.94-.96h0c1.69-.44,3.32-2.1,5.06-1.62,2.08.67,3.68-1.31,5.45-.23.98.09,4.96.16,2.49-1.07-.24-.16-.31-.26-.27-.33-.09-.05-.1-.08-.05-.1h.26c.44-.1,1.36-.03.85-.4.4-.67.49,1.12.55,1.34,1.65-.28-.19-2.73,1.91-2.31.66.9.9.21,1.31-.04-.08-.35.13-.21.2-.08.1-.01.2,0,.32.06.21-.86,1.01-.32,1.4-1.08,1.12-.76,2.62-1.79,4.16-2.36.09-.12,2.49-.48.9-.72-1.75.21.88-.18-.27-.34-1.18-.67,1.55.39,1.98-.91-1.55-.06-1.98-.09-2.9.06-2.31.46,1.1-.3-.28-.2Z"/>
        <path class="cls-2" d="M71.21,17.04c.27-.01-.15-.19,0,0h0Z"/>
        <path class="cls-2" d="M71.71,16.67c.59.1.19-.34,0,0h0Z"/>
        <path class="cls-2" d="M53.34,16.4s.04,0,.06,0c.22-.03-.84-.47-.17-.02.04.01.08.01.11.02Z"/>
        <path class="cls-2" d="M54.18,13.51c.09.05.26.13.55.24.88-.05.12-.28-.34-.34-.11.02-.18.05-.21.1Z"/>
        <path class="cls-2" d="M74.67,13.55c.35.14-.07-.37,0,0h0Z"/>
        <path class="cls-2" d="M57.64,12.32c-1.36-.5-.24.26-.77,1.17.38-.21.91-.67.77-1.17Z"/>
        <path class="cls-2" d="M74.97,13.47c.56-.23.05-.21,0,0h0Z"/>
        <path class="cls-2" d="M75.42,13.47c1.15-.3-.28-.86,0,0h0Z"/>
        <path class="cls-2" d="M87.02,13.27c.94.36-1.21-1.51,0,0h0Z"/>
        <path class="cls-2" d="M75.23,12.99c.27.28.23-.45,0,0h0Z"/>
        <path class="cls-2" d="M76.09,12.75l-.02.04c.1.11.16.1.21.04.13-.18.03-.8-.19-.08Z"/>
        <path class="cls-2" d="M76.52,12.1c.01.16.05.21.09.2.13-.01.31-.52-.09-.2Z"/>
        <path class="cls-2" d="M89.76,12.28c-.88-1.13-1.28-.18,0,0h0Z"/>
        <path class="cls-2" d="M59.22,11.91c-.07.01-.14.04-.2.08.24.1.26,0,.2-.08Z"/>
        <path class="cls-2" d="M76.89,12.02c.07-.07-.1-.5-.15-.1.08.11.13.12.15.1Z"/>
        <path class="cls-2" d="M60.09,11.89c.03.05.05.07.07.06.05-.02.04-.21-.07-.06Z"/>
        <path class="cls-2" d="M87.85,11.87c.28-.1.38-.19.37-.3,0,0,.01.03.05.07.21.09-.04-.1-.05-.07-.05-.36-1.48-.81-1.64-1.77-1.08-.43-.23-.61-.76-1.4.08-.64-.47-2.16-.85-1.12-.3,1.2.84,2.26,1.17,3.54.72.03,1.02.83,1.71,1.04Z"/>
        <path class="cls-2" d="M77.33,11.84c.2-.22-.18-.22,0,0h0Z"/>
        <path class="cls-2" d="M59.82,11.8s.05,0,.07,0c.34-.03.17-.6-.07,0Z"/>
        <path class="cls-2" d="M78.22,11.8c.46-.14-.4-.4,0,0h0Z"/>
        <path class="cls-2" d="M93.27,11.77c.33-.08-.3-.55-.27-.5-1.2-.88-.49-.05.27.5Z"/>
        <path class="cls-2" d="M77.92,11.73c.27.15-.04-.22,0,0h0Z"/>
        <path class="cls-2" d="M60.53,11.7c1.03.02-.15-.8,0,0h0Z"/>
        <path class="cls-2" d="M29.24,11.62c.05.02.92-.73.31-.35-.25.25-.32.34-.31.35Z"/>
        <path class="cls-2" d="M77.73,11.5c.47.19.22-.64,0,0h0Z"/>
        <path class="cls-2" d="M78.99,11.41c.28.27,0-.43,0,0h0Z"/>
        <path class="cls-2" d="M78.41,11.25c0,.34.19.04,0,0h0Z"/>
        <path class="cls-2" d="M35.85,11.03s-.06.05-.09.07c.05.02.08-.03.09-.07Z"/>
        <path class="cls-2" d="M38.26,10.95c.05.07.09.11.12.11.13.03.06-.41-.12-.11Z"/>
        <path class="cls-2" d="M61.21,11.01c.67-.6.21-.2,0,0h0Z"/>
        <path class="cls-2" d="M37.02,10.77c.02.06.05.08.07.09.1,0,.13-.4-.07-.09Z"/>
        <path class="cls-2" d="M39.75,10.61c.12.02.21.03.28.03.48-.02-.2-.48-.28-.03Z"/>
        <path class="cls-2" d="M40.96,9.94c.4-.48,3.75-2.4,2.13-.89-2.13,1.23,2.58.18,1.74.06.3-.67.52-1.06,1.55-1.62,1.21-.2,3.03-.78,3.27-1.48.11-.06,3.51-1.06,1.07-.91-.03-.46.43-.43,1.43-.51,2.08.05-.25-.76-1-.29-2.3-.06,2.22-.23,1.99-.37-1.57-.64-4.42.18-4.89,1.15.24-.06.15,1.07-1.45,1.19-.37.46-2.04.92-3.28,1.12-1.19,1.11-2.37-.64-3.33.3,1.39.85-2.17,1.21-1.41,2.89.44-.25.83-.61,1.21-.94,1.29-1.34-.59,1.43.97.32Z"/>
        <path class="cls-2" d="M32.36,10.33c.69-.04.44-.36.08-.08,0,.02-.02.04-.04.04-.01.01-.03.03-.04.04h0Z"/>
        <path class="cls-2" d="M32.35,10.24s.04.04.06.04c.01-.01.03-.02.04-.04.01-.05-.02-.13-.1,0Z"/>
        <path class="cls-2" d="M33.01,10c.08,0,.31-.4-.03-.08,0,.06,0,.08.03.08Z"/>
        <path class="cls-2" d="M38.37,9.63s.04.05.06.05c.13.03.18-.48-.06-.05Z"/>
        <path class="cls-2" d="M49.98,9.66c.13,0-.19-.18-.08-.01.04.01.06.01.08.01Z"/>
        <path class="cls-2" d="M49.71,9.51c.07.01.13.02.17.02.29-.01-.13-.31-.17-.02Z"/>
        <path class="cls-2" d="M39.19,8.12c.4-.06.13-.25,0,0h0Z"/>
        <path class="cls-2" d="M39.29,7.94c.1-.02.17-.45-.07-.06.02.05.05.07.07.06Z"/>
        <path class="cls-2" d="M38.26,7.86c.05,0,.1.01.14.01.65.01.39-.44-.14-.01Z"/>
        <path class="cls-2" d="M53.51,7.74c.07.05.12.07.15.07.1,0,.03-.18-.15-.07Z"/>
        <path class="cls-2" d="M39.73,7.73c.08-.07.13-.14-.11-.01-.1.15.02.08.11.01Z"/>
        <path class="cls-2" d="M66.25,7.68c.27-.11.35-.16,0,0h0Z"/>
        <path class="cls-2" d="M76.1,5.46c.44.23-.13.29-.33.2-.65.4.51.06.11.56-.53-.05,0,.42.21.83.09-.21.69-.62.59-1.11.61-.41-.19-.62-.16-.98,0-.39-.46-1.17-.45-.09.12.61-.04.07-.07-.19-.03-.32-.4.27-.16-.29-.49-.11-.22.5-.31,1.03.37.03.35-.37.57.03Z"/>
        <path class="cls-2" d="M39.26,6.89c.26.08.39.08.44.06.14-.08-.47-.46-.44-.06Z"/>
        <path class="cls-2" d="M40.24,6.8c.47-.09.89-.36,1.31-.57h0c2.36-.9-.68-.48-1.33.07,1.12-.23.75.07.01.5Z"/>
        <path class="cls-2" d="M77.42,6.74c.05.03.73-.21.21-.28-.4-.76-.92.26-.21.28Z"/>
        <path class="cls-2" d="M45.74,6.67s.08.05.12.04c.28,0,.5-.64-.12-.04Z"/>
        <path class="cls-2" d="M45.42,6.6c.42-.15.06-.54-.71.02.22.04.4.04.54.02-.04.03-.08.06-.14.12.17.25.37-.07.31-.16-.05.02-.11.03-.18.04.1-.07.16-.07.18-.04Z"/>
        <path class="cls-2" d="M64.21,6.4c.14,0,1.04-.13.48-.1-.46.08-.55.1-.48.1Z"/>
        <path class="cls-2" d="M77.12,6.12c.14.07.02-.14.05-.15-.19-.62-.56.12-.05.15Z"/>
        <path class="cls-2" d="M47.1,6.07c.15.03.21.03.23.02.04-.03-.36-.15-.23-.02Z"/>
        <path class="cls-2" d="M63.3,4.6c-.17-.21-2.42-.42-3.44-.46-1.92-.19-.41.48.61.55-1.41-.07-1.79-.32-3.14-.07-.28.02,1.05-.28-.38-.42-.16-.02-.29-.04-.4-.06-.33.03-.28,0-.15-.04-.84-.27,1.03-.8,1.68-.72-.5-.11-2.91-.23-3.67.55-.9,1.22,2.6.09,1.31.48.36.11.98.45-.08.46.7.25,3.04.43,4.25.32,1.45.48,3.1.65,4.66.78h.54c1.59,0-.57-.32.67-.18-.56-.27-.8-.52-1.68-.61,1.25.07.34-.17-.28-.21,1.13.04-1.93-.61-1.15-.05-.16.58-3.48-.23-1.1-.05-1.05-.34.85-.28,1.74-.27Z"/>
        <path class="cls-2" d="M46.19,5.82s.05,0,.08,0c.34,0-.01-.47-.08,0Z"/>
        <path class="cls-2" d="M47.01,5.68c.33-.07.22-.06,0,0h0Z"/>
        <path class="cls-2" d="M47.28,5.68c.27-.04.35-.06,0,0h0Z"/>
        <path class="cls-2" d="M42.82,5.67s.07.01.1,0c.21-.03.22-.29-.1,0Z"/>
        <path class="cls-2" d="M78.1,5.64c.17.34-.04-.28,0,0h0Z"/>
        <path class="cls-2" d="M57,5.58s.07.05.11.04c.09-.02.11-.17-.11-.04Z"/>
        <path class="cls-2" d="M47.44,5.54c.26.05.38.05.41.03.11-.08-.54-.37-.41-.03Z"/>
        <path class="cls-2" d="M78.46,5.52c.24-.07-.61-.21,0,0h0Z"/>
        <path class="cls-2" d="M59.82,5.38c.3-.22-1.21.15,0,0h0Z"/>
        <path class="cls-2" d="M47.55,5.34s.03.02.04.02c.1,0,.15-.21-.04-.02Z"/>
        <path class="cls-2" d="M75.46,5.36c-.02-.69-.18-.28,0,0h0Z"/>
        <path class="cls-2" d="M77,4.8c-.54.16.02.28.34.47.49.27.53-.58.41-.76-.31-.18-.44-.19-.44-.09-.11-.24-.07.27-.33-.12-.28-.45-.22-.27-.33.07-.15-.39-.16.6.35.42Z"/>
        <path class="cls-2" d="M52.13,5.06h.24l.25-.05c2.25-.31-1.7-.8-.49.05Z"/>
        <path class="cls-2" d="M55.03,5.04c.05,0,.09,0,.13,0,.53,0-.64-.1-.13,0Z"/>
        <path class="cls-2" d="M45.36,4.88c-.08.03-.1.05-.08.05.04,0,.36-.1.08-.05Z"/>
        <path class="cls-2" d="M47.97,4.48c.58,0,.54-.21,0,0h0Z"/>
        <path class="cls-2" d="M48.67,4.42s.06.03.08.03c.15.02.01-.22-.08-.03Z"/>
        <path class="cls-2" d="M57.93,4.18c.13,0,.22,0,.29,0,.64,0-1.46-.2-.29,0Z"/>
        <path class="cls-2" d="M56.41,4.1s.09.03.15.04c.07-.01.15-.02.26-.03.1-.1-.23-.05-.4,0Z"/>
        <path class="cls-2" d="M62.16,3.47c1.06.18.98.11,0,0h0Z"/>
        <path class="cls-2" d="M59.15,3.52c.7-.28-1.25-.16,0,0h0Z"/>
        <path class="cls-2" d="M48.01,3.48c.18-.03.37-.06.54-.11,1.96-.11.09-.76-.54.11Z"/>
        <path class="cls-2" d="M59.94,3.42c-.41-.15.52.06.37.01,2.06-.07-2.13-.32-.37-.01Z"/>
        <path class="cls-2" d="M55.87,3.27c2.3-.19-2.34-.25,0,0h0Z"/>
        <path class="cls-2" d="M60.88,3.17c1.5.11,1.29-.31-.13-.16-.33,0-.55.02-.68.04,0,.01-.03.02-.08.02-.24.07.18.17.88.11Z"/>
        <path class="cls-2" d="M56.64,3.11c.17.05.23.05.24.05,0-.03-.53-.21-.24-.05Z"/>
        <path class="cls-2" d="M47.92,3.1c.27-.03.47-.07,0,0h0Z"/>
        <path class="cls-2" d="M60,3.06s.05-.01.08-.02c.02-.04-.14-.13-.3-.04.1.04.17.05.22.06Z"/>
        <path class="cls-2" d="M57.9,3.05h0c.28-.04.54.01.82-.02-.33-.06.1-.06-.84-.14-.07.01-.13,0-.15-.01.05,0,.1.01.15.01.23-.03.53-.19-.73-.14-1.82.08-.19.39.75.31Z"/>
        <path class="cls-2" d="M53.95,2.95h0s0,0,0,0c.76-.08,1.29-.19.28-.24-.12-.18-1.73-.36-2.34.35l.45.02c.17,0,.88-.05,1.5-.12-.01,0-.03.02-.04.03.06.1.15,0,.16-.04Z"/>
        <path class="cls-2" d="M49.08,2.95c.17.01.22-.16-.08-.02.03.01.05.02.08.02Z"/>
        <path class="cls-2" d="M61.73,2.8c.37.1.5.12.52.1.04-.04-1.05-.4-.52-.1Z"/>
        <path class="cls-2" d="M59.19,2.86c.12-.04-.3-.37-.34-.1.19.09.3.11.34.1Z"/>
        <path class="cls-2" d="M49.24,2.86c.06-.02-.12-.18-.15-.04.08.04.13.05.15.04Z"/>
        <path class="cls-2" d="M60.46,2.85c-.67-.16-.71.02,0,0h0Z"/>
        <path class="cls-2" d="M49.87,2.8c.32-.03.64-.09.93-.15,1.68-.37,3.42-.44,5.05-.79-1.7-.19,1.94.07.61-.4-2.16.17-4.39.15-6.42,1.07-1.33.27,1.24-.03-.16.27Z"/>
        <path class="cls-2" d="M61.84,2.69c.26.06.37.07.39.06.07-.03-.63-.27-.39-.06Z"/>
        <path class="cls-2" d="M58.22,2.71c1.71,0-3.11-.16,0,0h0Z"/>
        <path class="cls-2" d="M61.21,2.67c.01-.71-2.29-.16,0,0h0Z"/>
        <path class="cls-2" d="M56.86,2.53c.22.07.35.09.41.1.2,0-.18-.19-.41-.1Z"/>
        <path class="cls-2" d="M61.67,2.48c.33.08.47.11.5.1.08-.02-.85-.32-.5-.1Z"/>
        <path class="cls-2" d="M58.31,2.5h.11c.93.05-1.01-.16.63-.07,2.54.12-1.91-.2.12-.27,1.88.02-.99-.57-.44-.14-.85-.37-1.9.59-.41.48Z"/>
        <path class="cls-2" d="M61.49,2.34c.52.23.77-.16.21-.34-1.39-.7-1.25.04-.21.34Z"/>
        <path class="cls-2" d="M60.78,2.27s-.46-.13-.22-.04c.16.04.21.05.22.04Z"/>
        <path class="cls-2" d="M54.1,2.26c.12,0,.23,0,.33,0,1.55,0,1.34-.3-.33,0Z"/>
        <path class="cls-2" d="M60.07,1.95c.68,0-1.39-.3,0,0h0Z"/>
        <path class="cls-2" d="M58.19,1.65c2.88.09-1.23-1.08-1.14.06.38.06.76-.02,1.14-.06Z"/>
      </g>
      <path class="cls-1" d="M59.66,119.31C26.76,119.31,0,92.55,0,59.66S26.76,0,59.66,0s59.66,26.76,59.66,59.66-26.76,59.66-59.66,59.66ZM59.66,3C28.42,3,3,28.42,3,59.66s25.42,56.66,56.66,56.66,56.66-25.42,56.66-56.66S90.9,3,59.66,3Z"/>
    </g>
  </g>
</svg>